<svg width="110" height="31" fill="none" xmlns="http://www.w3.org/2000/svg"><path fill-rule="evenodd" clip-rule="evenodd" d="M3.936 21.555l-.852-.371 3.534-.43c.062.102.123.192.195.287l-2.877.514zm9.485 0l.853-.394-3.514-.418c-.03.113-.124.203-.187.298l2.848.514zm-.513.06l-1.07.357-1.522-.46-.132-.042c.05-.04.092-.08.132-.133.064-.05.115-.123.175-.176l2.417.453zm2.825-.995l-.978.452-3.904-.452c.032-.09.063-.184.092-.278l4.79.278zm.35-.135l1.274-.807h-6.905c0 .288-.042.534-.136.747-.265.686-.933 1.015-1.601 1.005-.656-.019-1.326-.357-1.623-.983a1.781 1.781 0 01-.165-.769H0l1.264.807 5.292-.273c.102.377.29.706.536.949a2.265 2.265 0 001.623.687c.586.012 1.18-.202 1.6-.675.228-.245.402-.563.506-.945l5.26.257h.001zm-5.767 2.093l.136.246-.136.063-.358.164-.41-.811a2.87 2.87 0 01-.833.152 2.675 2.675 0 01-.906-.122l-.348.78c-.114.01-.268 0-.37-.073a.269.269 0 01-.124-.152l.125-.207.297-.532c-.093-.063-.175-.104-.258-.185l.247-.297c.423.257.885.398 1.338.398.452.012.902-.132 1.324-.43l.276.083.115.042-.115.091c-.081.082-.152.163-.285.235l.285.555zm0-4.194c.267.317.464.71.567 1.16h-.441a2.367 2.367 0 00-.127-.39c-.294-.778-.902-1.332-1.6-1.793l-.268-.164.268.092c.635.256 1.2.605 1.6 1.095zm-1.192 2.892c.116-.02.289-.082.423-.185l-.7-1.383.73-.348-.615-.532-.247.112-1.06.48.311.697.502-.224.656 1.383zm-1.91.194c-.041-.03-.083-.07-.122-.102a1.191 1.191 0 01-.204-.215l-2.416.454 1.028.345 1.714-.482zm-.658-.85c-.04-.09-.07-.183-.102-.277l-4.83.277.976.471 3.956-.47z" fill="#00529B"/><path fill-rule="evenodd" clip-rule="evenodd" d="M36.904 28.52c1.593.25 4.645.643 8.382.725 3.73.093 8.115-.124 12.26-.742 4.143-.6 8.027-1.607 10.785-2.694 2.779-1.044 4.333-2.316 4.326-2.321.015.007-1.604 1.48-4.548 2.742-2.914 1.312-7.028 2.57-11.36 3.383a71.136 71.136 0 01-12.557 1.24c-3.691.042-6.56-.29-7.564-.447-3.474-.516-5.996-1.427-7.536-2.305-1.554-.883-2.072-1.682-1.91-1.837.172-.184.946.188 2.513.672 1.57.49 3.958 1.102 7.21 1.584z" fill="#F47920"/><path fill-rule="evenodd" clip-rule="evenodd" d="M103.253 2.351l-.592.075-.379.036c-.712.062-1.786.153-2.733.755-.94.598-2.017 1.847-2.77 2.809-8.161 1.363-12.636 6.186-15.596 9.381l-1.856 2.16.31-.096C85.2 12.353 90.16 9.615 94.805 9.103l.07-.007.618-.805 1.301-1.703c.535-.481 1.276-.65 2.366-.775l1.903-.121 2.251-.158c1.287-.171 2.391-.467 3.908-2.545l2.065-2.78-.242-.209c-1.895 1.872-3.964 2.126-5.791 2.35v.001zm.039.318c1.582-.194 3.338-.474 5.033-1.704l-1.364 1.837c-1.445 1.978-2.44 2.25-3.691 2.416l-2.222.154-1.925.125c-.813.091-1.405.264-1.925.522.725-.91 1.685-1.997 2.525-2.531.88-.561 1.906-.647 2.585-.706l.396-.04.587-.073h.001zm-6.764 3.742a875.85 875.85 0 00-1.291 1.686l-.54.702c-3.968.456-8.157 2.516-12.731 6.242 2.89-3.097 7.175-7.297 14.563-8.63zm6.176-3.668h.002-.002z" fill="#000"/><path fill-rule="evenodd" clip-rule="evenodd" d="M79.533 17.36c5.902-4.302 9.075-6.01 16.085-6.072l-1.51 2.031c-.284.603-.725.576-1.19.548-5.012-.04-8.513.333-14.601 4.743l1.216-1.25z" fill="url(#paint0_linear)"/><path fill-rule="evenodd" clip-rule="evenodd" d="M79.529 17.354c5.94-5.466 10.898-7.928 15.258-8.409.386-.509 1.717-2.215 2.12-2.783C86.97 7.78 82.576 14.489 79.53 17.354z" fill="#fff"/><path fill-rule="evenodd" clip-rule="evenodd" d="M79.834 17.041c-.118.113-.528.553-.645.658 3.485-2.563 6.404-5.231 13.674-6.218.362-.41 1.42-1.796 1.918-2.536-6.628.899-10.962 4.59-14.947 8.096z" fill="url(#paint1_linear)"/><path fill-rule="evenodd" clip-rule="evenodd" d="M93.976 13.554c.064-.224.22-.39-.516-.824-.867-.509-1.167-.295-.975-.813.143-.393 2.005-1.175 3.364-.716 0 0-1.206 1.393-1.873 2.353z" fill="url(#paint2_linear)"/><path fill-rule="evenodd" clip-rule="evenodd" d="M99.198 5.522c-1.36.181-2.217.519-2.762 1.203l-1.898 2.536c.414-.369 1.665-.55 3.02-.585l.19.004.173-.004.605-.02c1.923-.074 4.592-.345 6.151-2.156l2.335-3.22.28-.384c-2.029 2.664-6.656 2.434-8.094 2.625z" fill="#00529B"/><path fill-rule="evenodd" clip-rule="evenodd" d="M100.325 8.34c-1.459.203-3.127.264-3.605.288-.817.036-1.903.296-2.203.66-.916 1.135-1.793 2.193-2.031 2.63.56-.516 2.4-.46 4.635-.563 2.232-.101 4.493-1.064 6.276-3.092l1.355-1.867c-.907 1.16-2.505 1.676-4.427 1.944z" fill="#C4161C"/><path fill-rule="evenodd" clip-rule="evenodd" d="M102.682 2.585c-.593.08-1.933.058-3.046.768-1.116.71-2.46 2.393-3.12 3.28.614-.655 1.429-.842 2.625-.977 1.195-.137 2.923-.114 4.15-.28 1.18-.156 2.277-.392 3.799-2.479l2.066-2.781c-2.141 2.115-4.48 2.203-6.474 2.469z" fill="url(#paint3_linear)"/><path fill-rule="evenodd" clip-rule="evenodd" d="M14.96 12.876v-2.127h4.02V9.63h-4.02V7.695h4.237V6.577h-7.214v7.43h7.448v-1.131h-4.47zM23.788 14.006V7.695h1.75c.533 0 1.025.04 1.474.339.327.232.533.562.533.971 0 .342-.122.694-.573.979-.588.382-1.611.434-2.254.357l-.368-.044 2.966 3.709h3.441l-2.815-3.095c.505-.055 1.313-.255 1.803-.57.587-.397.888-.983.888-1.53 0-.611-.33-1.277-1.078-1.715-.89-.503-2.105-.518-3.225-.518h-5.533v7.429h2.99v-.001zM47.836 9.753V7.695h4.346V6.577H44.86v7.43h2.976V10.87h4.018V9.753h-4.018zM53.261 6.577v7.43h7.38v-1.131h-4.387v-6.3h-2.993zM82.351 6.577h-9.413v1.118h3.211v6.31h2.993v-6.31h3.21V6.577zM66.598 6.36c-1.393 0-3.347.315-4.66 1.252-1.04.736-1.53 1.789-1.53 2.685 0 .888.49 1.938 1.53 2.674 1.313.925 3.267 1.239 4.66 1.239 1.393 0 3.361-.315 4.672-1.24 1.04-.735 1.519-1.785 1.519-2.673 0-.896-.48-1.949-1.52-2.685-1.31-.937-3.278-1.238-4.67-1.251zm0 6.951c-.739 0-1.613-.164-2.257-.969-.532-.653-.627-1.404-.627-2.045 0-.666.095-1.403.627-2.056.644-.82 1.518-.982 2.257-.982.75 0 1.614.162 2.265.982.535.653.632 1.39.632 2.056 0 .64-.097 1.392-.632 2.045-.651.806-1.515.97-2.265.97zM37.637 6.36c-1.392 0-3.346.315-4.657 1.252-1.04.736-1.533 1.789-1.533 2.685 0 .888.493 1.938 1.533 2.674 1.311.925 3.265 1.239 4.657 1.239s3.362-.315 4.674-1.24c1.037-.735 1.517-1.785 1.517-2.673 0-.896-.48-1.949-1.517-2.685C41 6.675 39.03 6.374 37.637 6.361zm0 6.951c-.738 0-1.613-.164-2.254-.969-.533-.653-.63-1.404-.63-2.045 0-.666.097-1.403.63-2.056.641-.82 1.516-.982 2.254-.982.75 0 1.613.162 2.268.982.533.653.628 1.39.628 2.056 0 .64-.095 1.392-.628 2.045-.655.806-1.518.97-2.268.97zM1.488 14.006l1.176-2.157h4.142l1.27 2.157h3.346l-4.534-7.43H4.113L0 14.007H1.49zm1.722-3.163l1.408-2.589h.042l1.529 2.589H3.21zM31.345 19.96l-.663 2.44c-.082.097-.21.178-.325.24a1.108 1.108 0 01-.52.147c-.162 0-.306-.065-.372-.164-.048-.082-.096-.21-.032-.437l.6-2.227h-.616l-.581 2.147c-.05.196-.13.534.047.792.098.146.31.308.744.308.18 0 .358-.031.586-.129.145-.084.305-.18.436-.276l-.096.34h.55l.861-3.181h-.619zM35.288 20.327a1.139 1.139 0 00-.359-.307c-.206-.11-.435-.129-.632-.129-.21 0-.47.02-.76.194-.21.148-.47.372-.565.745-.086.274-.051.483.047.614.113.146.307.225.472.273l.306.1c.16.032.323.032.42.158a.34.34 0 01.066.308.664.664 0 01-.227.307c-.113.098-.309.18-.583.18a.918.918 0 01-.47-.117c-.128-.095-.227-.176-.276-.255l-.407.373c.293.383.652.434 1.006.434.242 0 .73-.031 1.136-.339.224-.193.388-.438.454-.647.032-.164.064-.403-.016-.551-.115-.225-.374-.322-.52-.355l-.227-.066c-.29-.065-.42-.096-.486-.178-.063-.046-.114-.144-.063-.337a.699.699 0 01.224-.308.788.788 0 01.423-.113c.146 0 .275.034.39.113.097.064.177.146.242.228l.405-.325zM38.61 20.327a.872.872 0 00-.355-.307c-.193-.11-.423-.129-.615-.129-.224 0-.47.02-.762.194-.21.148-.47.372-.583.745-.062.274-.032.483.065.614.113.146.326.225.47.273l.29.1c.163.032.327.032.439.158.049.066.097.148.049.308a.765.765 0 01-.212.307c-.114.098-.307.18-.583.18-.178 0-.323-.036-.485-.117a1.397 1.397 0 01-.276-.255l-.406.373c.312.383.667.434 1.021.434.245 0 .729-.031 1.136-.339.226-.193.389-.438.437-.647.05-.164.064-.403-.016-.551-.097-.225-.357-.322-.517-.355l-.229-.066c-.277-.065-.402-.096-.47-.178-.063-.046-.111-.144-.063-.337.032-.08.08-.212.226-.308a.73.73 0 01.404-.113c.165 0 .292.034.407.113.098.064.177.146.243.228l.386-.325zM39.8 19.959l-.116.418h.373l-.742 2.763h.613l.858-3.181h-.987zm.389-1.05c-.052.224.08.402.293.402.226 0 .435-.179.5-.403.063-.212-.065-.389-.293-.389-.207 0-.435.177-.5.39zM45.818 23.14l.682-2.504c.214-.179.537-.324.827-.324.21 0 .327.08.373.177.098.147.05.387.015.485l-.583 2.167h.617l.583-2.117c.066-.26.096-.567-.049-.825-.13-.209-.371-.307-.713-.307-.209 0-.566.049-.957.308l.066-.24h-.99l-.111.417h.371l-.744 2.764h.613zM25.55 18.552l-1.246 4.589H25l.539-2.018h.466l.65 2.018h.84l-.744-2.053c.342-.035.796-.194 1.07-.405.306-.226.536-.55.613-.888.099-.326.053-.662-.14-.886-.261-.325-.78-.357-1.153-.357h-1.59zm1.153 2.049h-1.02l.406-1.517h.924c.098 0 .403 0 .566.162.096.097.178.259.11.517a1.145 1.145 0 01-.386.598c-.21.16-.439.226-.6.24zM42.82 21.282c-.648.065-1.184.323-1.361.987-.017.078-.033.145-.033.209v.112c.016.357.258.616.793.616.193 0 .388-.031.6-.116.018 0 .033-.013.064-.03.212-.097.37-.26.422-.307h.032l-.11.388h.55l.566-2.053c.082-.324.16-.647-.018-.889-.147-.226-.517-.307-.807-.307-.278 0-.52.033-.699.081-.565.144-.778.485-.794.791l.569.033c.046-.16.113-.275.225-.356.131-.095.325-.129.568-.129.131 0 .291.015.356.13.099.113.065.274.034.421l-.115.403h-.453c-.131 0-.274 0-.389.016zm0 1.453a.82.82 0 01-.294.052c-.126 0-.29-.015-.386-.148-.08-.114-.099-.226-.049-.388a.68.68 0 01.258-.387.972.972 0 01.47-.176c.08-.02.178-.034.294-.034h.453l-.178.677c-.099.13-.195.21-.31.292-.096.051-.179.1-.259.112zM57.618 19.959l-.112.418h.373l-.748 2.763h.617l.858-3.181h-.988zm.57-1.05c-.05.224.079.402.292.402.208 0 .435-.179.5-.403.066-.212-.065-.389-.292-.389a.564.564 0 00-.5.39zM59.968 19.96l-.857 3.18h.616l.486-1.827c.08-.209.16-.42.276-.58.194-.308.418-.356.55-.356.082 0 .177.015.243.08.046.05.065.144.065.26l.551-.162c.111-.322 0-.502-.193-.596a.744.744 0 00-.326-.068c-.357 0-.71.194-.956.533l.128-.465h-.582zM63.374 18.487l-1.02 3.782c-.079.29-.227.872.504.872h.356l.112-.42h-.176c-.307 0-.228-.26-.213-.322l1.054-3.912h-.617zM65.04 19.959l-.109.418h.374l-.765 2.763h.632l.86-3.181h-.992zm.569-1.05c-.05.224.08.402.291.402.228 0 .44-.179.503-.403.048-.212-.082-.389-.29-.389-.228 0-.438.177-.504.39zM67.305 23.14l.663-2.504c.227-.179.552-.324.841-.324.212 0 .327.08.374.177.113.147.033.387.017.485l-.582 2.167h.614l.583-2.117c.065-.26.098-.567-.049-.825-.126-.209-.372-.307-.71-.307-.228 0-.553.049-.957.308l.064-.24h-.987l-.115.417h.372l-.743 2.764h.615zM76.817 20.327a.829.829 0 00-.341-.307c-.21-.11-.418-.129-.614-.129-.23 0-.47.02-.76.194-.228.148-.487.372-.584.745-.085.274-.033.483.063.614.098.146.309.225.455.273l.308.1c.16.032.326.032.418.158.068.066.1.148.068.308a.641.641 0 01-.227.307c-.099.098-.292.18-.583.18a.961.961 0 01-.472-.117c-.129-.095-.224-.176-.274-.255l-.405.373c.29.383.65.434 1.005.434.259 0 .73-.031 1.134-.339.228-.193.387-.438.454-.647.049-.164.066-.403-.013-.551-.1-.225-.378-.322-.52-.355l-.23-.066c-.271-.065-.404-.096-.484-.178-.05-.046-.113-.144-.066-.337.033-.08.078-.212.228-.308a.804.804 0 01.421-.113.7.7 0 01.402.113c.083.064.163.146.229.228l.388-.325zM52.15 23.14h.697l.697-1.116h1.765l.082 1.117h.794l-.436-4.589h-.568l-3.03 4.589h-.001zm1.718-1.648l1.247-1.955h.015l.149 1.956h-1.411zM71.393 21.688h1.925l.051-.21c.129-.425.257-.86.033-1.213-.195-.305-.584-.373-.86-.373-.411 0-.805.146-1.118.42-.423.372-.597.871-.695 1.293-.097.34-.196.856.063 1.23.243.32.683.37.989.37.248 0 .477-.034.715-.116.128-.046.289-.111.434-.191l-.094-.373c-.148.065-.26.114-.423.149-.151.027-.294.06-.456.06-.24 0-.453-.08-.564-.223-.18-.21-.097-.537-.048-.695l.048-.128zm.096-.422l.032-.143c.067-.165.147-.423.355-.602a.8.8 0 01.537-.209c.163 0 .322.05.405.146.144.195.08.469.018.68l-.035.128h-1.312z" fill="#00529B"/><defs><linearGradient id="paint0_linear" x1="-914.499" y1="988.341" x2="-908.983" y2="993.499" gradientUnits="userSpaceOnUse"><stop stop-color="#C4161C"/><stop offset=".01" stop-color="#C4161C"/><stop offset=".3" stop-color="#C93627"/><stop offset=".5" stop-color="#EBB39E"/><stop offset=".72" stop-color="#C93627"/><stop offset="1" stop-color="#C4161C"/></linearGradient><linearGradient id="paint1_linear" x1="-508.039" y1="555.553" x2="-504.712" y2="558.663" gradientUnits="userSpaceOnUse"><stop stop-color="#00529B"/><stop offset=".11" stop-color="#00529B"/><stop offset=".5" stop-color="#778EC1"/><stop offset=".52" stop-color="#728ABF"/><stop offset=".73" stop-color="#3C69AA"/><stop offset=".88" stop-color="#00589F"/><stop offset=".96" stop-color="#00529B"/><stop offset="1" stop-color="#00529B"/></linearGradient><linearGradient id="paint2_linear" x1="-181.356" y1="331.568" x2="-179.384" y2="332.803" gradientUnits="userSpaceOnUse"><stop stop-color="#C4161C"/><stop offset=".01" stop-color="#C4161C"/><stop offset=".49" stop-color="#C93627"/><stop offset="1" stop-color="#EBB39E"/></linearGradient><linearGradient id="paint3_linear" x1="-606.309" y1="795.342" x2="-600.506" y2="799.91" gradientUnits="userSpaceOnUse"><stop stop-color="#fff"/><stop offset=".3" stop-color="#fff"/><stop offset=".51" stop-color="#D4D9EC"/><stop offset=".7" stop-color="#fff"/><stop offset="1" stop-color="#fff"/></linearGradient></defs></svg>