<svg width="98" height="94" viewBox="0 0 98 94" fill="none" xmlns="http://www.w3.org/2000/svg">
<mask id="mask0" mask-type="alpha" maskUnits="userSpaceOnUse" x="61" y="23" width="37" height="50">
<path d="M84.4808 23.3104H98V72.3104H83.7692L61 45.8022L84.4808 23.3104Z" fill="#C4C4C4"/>
</mask>
<g mask="url(#mask0)">
<rect x="5.68965" y="46.9655" width="65.9804" height="65.9804" rx="10" transform="rotate(-45 5.68965 46.9655)" fill="#222222" fill-opacity="0.7"/>
</g>
<rect y="46.9655" width="65.9804" height="65.9804" rx="7" transform="rotate(-45 0 46.9655)" fill="#0CC67B"/>
<g filter="url(#filter0_d)">
<path d="M32.9228 61.0243L29.1997 59.881C28.4334 59.6457 28.003 58.8338 28.2383 58.0676L37.7972 26.9398C38.0326 26.1736 38.8444 25.7432 39.6106 25.9785L63.4509 33.2995C64.2171 33.5348 64.6475 34.3467 64.4122 35.1129L63.2887 38.7718L32.9228 61.0243Z" fill="#9CD3D8"/>
<path d="M63.4516 33.2995L51.5314 29.639L44.4982 52.5421L63.2892 38.7717L64.4128 35.1129C64.6481 34.3466 64.2178 33.5348 63.4516 33.2995V33.2995Z" fill="#71A1B2"/>
<path d="M50.2167 71.9518L32.7309 66.5822C31.9647 66.3469 31.5343 65.535 31.7696 64.7688L41.3533 33.56C41.5886 32.7937 42.4005 32.3633 43.1667 32.5986L67.1691 39.9694C67.9353 40.2047 68.3657 41.0166 68.1304 41.7828L60.4512 66.7896C60.3431 67.1415 60.0956 67.4337 59.7663 67.5982L51.2126 71.8694C50.9034 72.0237 50.5469 72.0532 50.2167 71.9518Z" fill="#FFF1F3"/>
<path d="M67.1689 39.9694L55.1938 36.2921L44.758 70.2756L50.2166 71.9518C50.5468 72.0532 50.9033 72.0237 51.2123 71.8694L59.766 67.5981C60.0953 67.4337 60.3429 67.1415 60.4509 66.7896L68.1301 41.7828C68.3654 41.0166 67.935 40.2047 67.1689 39.9694V39.9694Z" fill="#E2EBF0"/>
<path d="M60.0251 49.7341L43.651 44.7059C42.9801 44.4999 42.6032 43.7889 42.8092 43.118C43.0153 42.4471 43.7262 42.0702 44.3971 42.2763L60.7712 47.3045C61.4421 47.5105 61.819 48.2215 61.613 48.8924C61.4069 49.5633 60.696 49.9402 60.0251 49.7341Z" fill="#006182"/>
<path d="M58.5363 54.5825L42.1622 49.5542C41.4912 49.3482 41.1144 48.6373 41.3204 47.9664C41.5264 47.2954 42.2374 46.9186 42.9083 47.1246L59.2824 52.1528C59.9533 52.3589 60.3302 53.0698 60.1241 53.7407C59.9181 54.4117 59.2072 54.7885 58.5363 54.5825Z" fill="#006182"/>
<path d="M57.0474 59.431L40.6733 54.4028C40.0024 54.1968 39.6255 53.4859 39.8315 52.8149C40.0376 52.144 40.7485 51.7671 41.4194 51.9732L57.7935 57.0014C58.4644 57.2074 58.8413 57.9184 58.6353 58.5893C58.4293 59.2602 57.7183 59.6371 57.0474 59.431Z" fill="#006182"/>
<path d="M48.6448 62.1563L39.1845 59.2512C38.5136 59.0452 38.1367 58.3342 38.3427 57.6633C38.5487 56.9924 39.2597 56.6155 39.9306 56.8215L49.3909 59.7267C50.0618 59.9327 50.4387 60.6436 50.2327 61.3145C50.0267 61.9855 49.3157 62.3623 48.6448 62.1563Z" fill="#006182"/>
<path d="M60.7711 47.3046L52.5841 44.7905L51.838 47.22L60.0251 49.7342C60.696 49.9402 61.4069 49.5633 61.613 48.8924C61.819 48.2215 61.442 47.5106 60.7711 47.3046V47.3046Z" fill="#004762"/>
<path d="M49.3906 59.7267L48.1173 59.3357L47.3713 61.7653L48.6445 62.1563C49.3154 62.3623 50.0263 61.9854 50.2324 61.3145C50.4384 60.6436 50.0615 59.9327 49.3906 59.7267Z" fill="#004762"/>
<path d="M59.282 52.1529L51.095 49.6388L50.3489 52.0684L58.536 54.5825C59.2069 54.7885 59.9179 54.4117 60.1239 53.7407C60.3298 53.0699 59.9529 52.3589 59.282 52.1529V52.1529Z" fill="#004762"/>
<path d="M57.7932 57.0014L49.6062 54.4872L48.8601 56.9168L57.0472 59.431C57.7181 59.637 58.429 59.2601 58.6351 58.5892C58.8411 57.9183 58.4641 57.2074 57.7932 57.0014V57.0014Z" fill="#004762"/>
<path d="M54.2795 65.4974C53.5133 65.2622 52.7014 65.6925 52.4661 66.4588L50.7642 72.001C50.9187 71.9833 51.0705 71.9402 51.2122 71.8694L59.7659 67.5981C59.9148 67.5238 60.0457 67.4223 60.1558 67.302L54.2795 65.4974Z" fill="#C0E3E6"/>
</g>
<defs>
<filter id="filter0_d" x="18.8123" y="16.5524" width="58.7441" height="66.8265" filterUnits="userSpaceOnUse" color-interpolation-filters="sRGB">
<feFlood flood-opacity="0" result="BackgroundImageFix"/>
<feColorMatrix in="SourceAlpha" type="matrix" values="0 0 0 0 0 0 0 0 0 0 0 0 0 0 0 0 0 0 127 0"/>
<feOffset/>
<feGaussianBlur stdDeviation="4.5"/>
<feColorMatrix type="matrix" values="0 0 0 0 0 0 0 0 0 0 0 0 0 0 0 0 0 0 0.25 0"/>
<feBlend mode="normal" in2="BackgroundImageFix" result="effect1_dropShadow"/>
<feBlend mode="normal" in="SourceGraphic" in2="effect1_dropShadow" result="shape"/>
</filter>
</defs>
</svg>
