<svg width="98" height="94" viewBox="0 0 98 94" fill="none" xmlns="http://www.w3.org/2000/svg">
<mask id="mask0" mask-type="alpha" maskUnits="userSpaceOnUse" x="61" y="23" width="37" height="50">
<path d="M84.4808 23.6207H98V72.6207H83.7692L61 46.1125L84.4808 23.6207Z" fill="#C4C4C4"/>
</mask>
<g mask="url(#mask0)">
<rect x="5.68965" y="47.2759" width="65.9804" height="65.9804" rx="10" transform="rotate(-45 5.68965 47.2759)" fill="#222222" fill-opacity="0.7"/>
</g>
<rect y="47.2759" width="65.9804" height="65.9804" rx="7" transform="rotate(-45 0 47.2759)" fill="#0CC67B"/>
<g filter="url(#filter0_d)">
<path d="M65 33.7907V39.9531H29.2263V33.7907C29.2263 32.8696 29.7449 32.0693 30.5068 31.6675C30.8413 31.4899 31.2223 31.3898 31.6272 31.3898H62.5991C63.5202 31.3898 64.3205 31.9084 64.7223 32.6703C64.9 33.0048 65 33.3858 65 33.7907Z" fill="#FD646F"/>
<path d="M38.8303 31.3898V35.8715C38.8303 36.3133 38.4718 36.6719 38.03 36.6719H34.3486C33.9068 36.6719 33.5483 36.3133 33.5483 35.8715V31.3898H38.8303Z" fill="#FC4755"/>
<path d="M59.3978 31.3898V35.8715C59.3978 36.3133 59.0393 36.6719 58.5975 36.6719H54.9161C54.4743 36.6719 54.1158 36.3133 54.1158 35.8715V31.3898H59.3978Z" fill="#FC4755"/>
<path d="M30.5068 31.6675V39.9531H29.2263V33.7907C29.2263 32.8695 29.7449 32.0692 30.5068 31.6675Z" fill="#FC4755"/>
<path d="M35.789 44.7406H39.9066C40.1275 44.7406 40.3067 44.9198 40.3067 45.1408V49.2583C40.3067 49.4793 40.1275 49.6585 39.9066 49.6585H35.789C35.568 49.6585 35.3889 49.4793 35.3889 49.2583V45.1408C35.3889 44.9198 35.568 44.7406 35.789 44.7406V44.7406Z" fill="#E6E6E6"/>
<path d="M35.7889 50.8588H39.9065C40.1274 50.8588 40.3066 51.038 40.3066 51.259V55.3774C40.3066 55.5983 40.1274 55.7775 39.9065 55.7775H35.7889C35.5679 55.7775 35.3887 55.5983 35.3887 55.3774V51.259C35.3887 51.038 35.5679 50.8588 35.7889 50.8588V50.8588Z" fill="#E6E6E6"/>
<path d="M35.7889 56.978H39.9065C40.1274 56.978 40.3066 57.1572 40.3066 57.3782V61.4958C40.3066 61.7167 40.1274 61.8959 39.9065 61.8959H35.7889C35.5679 61.8959 35.3887 61.7167 35.3887 61.4958V57.3782C35.3887 57.1572 35.5679 56.978 35.7889 56.978V56.978Z" fill="#E6E6E6"/>
<path d="M41.9073 44.7405H46.1129C46.3338 44.7405 46.513 44.9197 46.513 45.1407V49.2583C46.513 49.4792 46.3338 49.6584 46.1129 49.6584H41.9073C41.6863 49.6584 41.5071 49.4792 41.5071 49.2583V45.1407C41.5071 44.9197 41.6863 44.7405 41.9073 44.7405Z" fill="#E6E6E6"/>
<path d="M41.9073 50.8588H46.1129C46.3338 50.8588 46.513 51.038 46.513 51.259V55.3774C46.513 55.5983 46.3338 55.7775 46.1129 55.7775H41.9073C41.6863 55.7775 41.5071 55.5983 41.5071 55.3774V51.259C41.5071 51.038 41.6863 50.8588 41.9073 50.8588Z" fill="#E6E6E6"/>
<path d="M41.9073 56.978H46.1129C46.3338 56.978 46.513 57.1572 46.513 57.3782V61.4958C46.513 61.7167 46.3338 61.8959 46.1129 61.8959H41.9073C41.6863 61.8959 41.5071 61.7167 41.5071 61.4958V57.3782C41.5071 57.1572 41.6863 56.978 41.9073 56.978Z" fill="#E6E6E6"/>
<path d="M48.1137 44.7405H52.3193C52.5402 44.7405 52.7194 44.9197 52.7194 45.1407V49.2583C52.7194 49.4792 52.5402 49.6584 52.3193 49.6584H48.1137C47.8927 49.6584 47.7135 49.4792 47.7135 49.2583V45.1407C47.7135 44.9197 47.8927 44.7405 48.1137 44.7405Z" fill="#E6E6E6"/>
<path d="M48.1137 50.8588H52.3193C52.5402 50.8588 52.7194 51.038 52.7194 51.259V55.3774C52.7194 55.5983 52.5402 55.7775 52.3193 55.7775H48.1137C47.8927 55.7775 47.7135 55.5983 47.7135 55.3774V51.259C47.7135 51.038 47.8927 50.8588 48.1137 50.8588Z" fill="#E6E6E6"/>
<path d="M48.1137 56.978H52.3193C52.5402 56.978 52.7194 57.1572 52.7194 57.3782V61.4958C52.7194 61.7167 52.5402 61.8959 52.3193 61.8959H48.1137C47.8927 61.8959 47.7135 61.7167 47.7135 61.4958V57.3782C47.7135 57.1572 47.8927 56.978 48.1137 56.978Z" fill="#E6E6E6"/>
<path d="M58.8372 45.1407V49.2583C58.8372 49.4792 58.658 49.6584 58.437 49.6584H54.3194C54.0985 49.6584 53.9193 49.4792 53.9193 49.2583V45.1407C53.9193 44.9197 54.0985 44.7405 54.3194 44.7405H58.437C58.658 44.7405 58.8372 44.9197 58.8372 45.1407Z" fill="#E6E6E6"/>
<path d="M54.3194 50.8588H58.437C58.658 50.8588 58.8372 51.038 58.8372 51.259V55.3774C58.8372 55.5983 58.658 55.7775 58.437 55.7775H54.3194C54.0985 55.7775 53.9193 55.5983 53.9193 55.3774V51.259C53.9193 51.038 54.0985 50.8588 54.3194 50.8588Z" fill="#E6E6E6"/>
<path d="M54.3194 56.978H58.437C58.658 56.978 58.8372 57.1572 58.8372 57.3782V61.4958C58.8372 61.7167 58.658 61.8959 58.437 61.8959H54.3194C54.0985 61.8959 53.9193 61.7167 53.9193 61.4958V57.3782C53.9193 57.1572 54.0985 56.978 54.3194 56.978Z" fill="#E6E6E6"/>
<path d="M29.2263 39.3929V64.7626C29.2263 66.0887 30.3011 67.1635 31.6272 67.1635H62.5991C63.9252 67.1635 65 66.0887 65 64.7626V39.3929H29.2263Z" fill="#F5F5F5"/>
<path d="M38.83 28.1886V34.5911C38.83 35.0328 38.4714 35.3914 38.0297 35.3914H35.6287C35.187 35.3914 34.8284 35.0328 34.8284 34.5911V28.1886C34.8284 27.7468 35.187 27.3883 35.6287 27.3883H38.0297C38.4714 27.3883 38.83 27.7468 38.83 28.1886Z" fill="#50758D"/>
<path d="M35.3887 44.7405H40.3066V49.6584H35.3887V44.7405Z" fill="#FFAC5C"/>
<path d="M53.9198 44.7405H58.8377V49.6584H53.9198V44.7405Z" fill="#FFAC5C"/>
<path d="M41.5071 44.7405H46.513V49.6584H41.5071V44.7405Z" fill="#FFAC5C"/>
<path d="M35.3887 50.8588H40.3066V55.7775H35.3887V50.8588Z" fill="#FFAC5C"/>
<path d="M53.9198 50.8588H58.8377V55.7775H53.9198V50.8588Z" fill="#E6E6E6"/>
<path d="M41.5071 50.8588H46.513V55.7775H41.5071V50.8588Z" fill="#FFAC5C"/>
<path d="M35.3887 56.978H40.3066V61.8959H35.3887V56.978Z" fill="#E6E6E6"/>
<path d="M53.9198 56.978H58.8377V61.8959H53.9198V56.978Z" fill="#E6E6E6"/>
<path d="M41.5071 56.978H46.513V61.8959H41.5071V56.978Z" fill="#E6E6E6"/>
<path d="M47.7135 44.7405H52.7194V49.6584H47.7135V44.7405Z" fill="#FFAC5C"/>
<path d="M47.7135 50.8588H52.7194V55.7775H47.7135V50.8588Z" fill="#FFAC5C"/>
<path d="M47.7135 56.978H52.7194V61.8959H47.7135V56.978Z" fill="#E6E6E6"/>
<path d="M59.398 28.1886V34.5911C59.398 35.0328 59.0395 35.3914 58.5977 35.3914H56.1968C55.755 35.3914 55.3965 35.0328 55.3965 34.5911V28.1886C55.3965 27.7468 55.755 27.3883 56.1968 27.3883H58.5977C59.0395 27.3883 59.398 27.7468 59.398 28.1886Z" fill="#50758D"/>
<path d="M29.2263 39.3929V64.7626C29.2263 66.0887 30.3011 67.1635 31.6272 67.1635H32.514C31.3943 66.9602 30.5468 65.9806 30.5468 64.8026V41.0911C30.6373 40.847 30.8717 40.6734 31.1471 40.6734H65V39.4329V39.3929H29.2263Z" fill="#E6E6E6"/>
<path d="M36.9092 35.3914H35.6287C35.187 35.3914 34.8284 35.0328 34.8284 34.5911V28.1886C34.8284 27.7468 35.187 27.3883 35.6287 27.3883H36.1089V34.5911C36.1089 35.0328 36.4675 35.3914 36.9092 35.3914Z" fill="#2B597F"/>
<path d="M57.4773 35.3914H56.1968C55.755 35.3914 55.3965 35.0328 55.3965 34.5911V28.1886C55.3965 27.7468 55.755 27.3883 56.1968 27.3883H56.677V34.5911C56.677 35.0328 57.0355 35.3914 57.4773 35.3914Z" fill="#2B597F"/>
</g>
<defs>
<filter id="filter0_d" x="20.2263" y="18.3883" width="53.7737" height="57.7752" filterUnits="userSpaceOnUse" color-interpolation-filters="sRGB">
<feFlood flood-opacity="0" result="BackgroundImageFix"/>
<feColorMatrix in="SourceAlpha" type="matrix" values="0 0 0 0 0 0 0 0 0 0 0 0 0 0 0 0 0 0 127 0"/>
<feOffset/>
<feGaussianBlur stdDeviation="4.5"/>
<feColorMatrix type="matrix" values="0 0 0 0 0 0 0 0 0 0 0 0 0 0 0 0 0 0 0.25 0"/>
<feBlend mode="normal" in2="BackgroundImageFix" result="effect1_dropShadow"/>
<feBlend mode="normal" in="SourceGraphic" in2="effect1_dropShadow" result="shape"/>
</filter>
</defs>
</svg>
