<svg xmlns="http://www.w3.org/2000/svg" viewBox="0 0 490 490">
  <path d="M213.57 262.81a63.6 63.6 0 00-63.52 63.53c0 35.03 28.49 63.53 63.52 63.53s63.53-28.5 63.53-63.53a63.6 63.6 0 00-63.53-63.53zm0 106.64c-23.76 0-43.1-19.34-43.1-43.11s19.34-43.11 43.1-43.11c23.78 0 43.12 19.34 43.12 43.1s-19.34 43.12-43.12 43.12z"/>
  <path d="M488.31 230.78c-6.6-36.6-30.3-67.5-62.56-82.23l-.05-5.24c0-45.75-74.85-89.82-213.68-89.82C99.22 53.5-.47 95.73 0 147.18l.25 28.07c.16 16.82 13.4 30.5 29.5 30.5h.27l66.27-.6c16.25-.15 29.35-14.07 29.2-31.05-.13-13.88 8.32-27.3 23.76-37.8 16.72-11.35 42.07-17.94 63.35-17.94 48.75 0 87.85 24.29 88.12 54.15.15 16.83 13.38 30.52 29.76 30.52l66.27-.6c8-.07 15.46-3.43 21-9.45a31.31 31.31 0 008.2-21.26c21.75 13.2 37.46 36.08 42.26 62.68 5.61 31.05-6.1 64.52-29.87 85.27-12.47 10.9-26.9 15.67-50.54 16.5A84.88 84.88 0 00368.43 294l-105.8-99.54V166h-20.41v22.64h-57.3v-22.64H164.5v28.43S80.27 272.41 59.5 293.2c-22.14 22.13-21.16 58.54-21.16 58.54 0 46.74 38.03 84.78 84.78 84.78h180.92c45.13 0 82.12-35.43 84.64-79.93 21.43-.71 43.57-4.47 63.11-21.53 29.04-25.38 43.38-66.31 36.53-104.28zM396.57 182l-66.34.6c-4.97 0-9.1-4.6-9.1-10.29 0-45.33-52.3-74.38-108.7-74.38-26.43 0-54.64 7.88-74.65 21.48-21.28 14.45-32.9 33.94-32.7 54.86.04 5.72-3.98 10.42-8.98 10.46l-66.27.6h-.07c-4.96 0-9.04-4.62-9.1-10.28l-.24-28.07c-.31-33.74 82.24-73.08 191.78-73.08 107.48 0 193.09 32.8 193.09 69.59l.25 28.07c0 4.83-3.25 10.44-8.97 10.44zM368.4 351.73a64.44 64.44 0 01-64.37 64.36H123.11a64.43 64.43 0 01-64.36-64.36s-.68-26.48 15.13-44.06l104.88-98.6h69.62l104.89 98.6c16.36 17.6 15.13 44.06 15.13 44.06z"/>
</svg>
