<?xml version="1.0" encoding="iso-8859-1"?>
<!-- Generator: Adobe Illustrator 19.0.0, SVG Export Plug-In . SVG Version: 6.00 Build 0)  -->
<svg version="1.1" id="Capa_1" xmlns="http://www.w3.org/2000/svg" xmlns:xlink="http://www.w3.org/1999/xlink" x="0px" y="0px"
	 viewBox="0 0 490 490" style="enable-background:new 0 0 490 490;" xml:space="preserve">
<g>
	<path d="M352.91,152.586H137.09v115.352H352.91V152.586z M332.494,247.521H157.506v-74.519h174.987V247.521z"/>
	<path d="M321.409,289.793c-25.936-2.322-47.582,19.309-45.277,45.249c1.767,19.882,17.774,35.896,37.655,37.671
		c25.934,2.316,47.568-19.31,45.265-45.246C357.288,307.587,341.288,291.572,321.409,289.793z M319.742,352.36
		c-13.393,1.324-24.596-9.899-23.252-23.288c0.996-9.916,9.017-17.933,18.933-18.925c13.403-1.341,24.626,9.898,23.269,23.303
		C337.69,343.366,329.661,351.379,319.742,352.36z"/>
	<path d="M176.22,289.793c-25.934-2.321-47.577,19.303-45.278,45.239c1.762,19.882,17.764,35.898,37.644,37.68
		c25.936,2.324,47.584-19.303,45.282-45.242C212.104,307.587,196.1,291.572,176.22,289.793z M174.562,352.359
		c-13.401,1.33-24.613-9.901-23.26-23.299c1.001-9.918,9.03-17.931,18.95-18.915c13.399-1.329,24.608,9.901,23.258,23.297
		C192.509,343.36,184.481,351.375,174.562,352.359z"/>
	<rect x="221.443" y="184.507" width="47.113" height="20.417"/>
	<path d="M448.245,148.778V0H41.755v148.778h51.87v40.853H52.676v100.748h40.949v172.874c0,14.772,11.975,26.747,26.747,26.747
		h28.96c14.772,0,26.747-11.975,26.747-26.747v-49.138h137.843v49.138c0,14.772,11.975,26.747,26.747,26.747h28.965
		c14.769,0,26.742-11.973,26.742-26.742V290.379h40.948V189.631h-40.948v-40.853H448.245z M62.172,128.362V20.417h365.656v107.945
		h-31.453v-17.007H93.625v17.007H62.172z M73.093,269.962v-59.915h20.532v59.915H73.093z M155.662,463.253
		c0,3.496-2.834,6.331-6.331,6.331h-28.959c-3.496,0-6.331-2.834-6.331-6.331v-49.138h41.62V463.253z M375.959,463.253
		c0,3.496-2.834,6.331-6.33,6.331h-28.96c-3.496,0-6.33-2.834-6.33-6.33v-49.138h41.62V463.253z M416.906,210.048v59.915h-20.531
		v-59.915H416.906z M375.959,393.699H114.041V131.771h261.917V393.699z"/>
</g>
<g>
</g>
<g>
</g>
<g>
</g>
<g>
</g>
<g>
</g>
<g>
</g>
<g>
</g>
<g>
</g>
<g>
</g>
<g>
</g>
<g>
</g>
<g>
</g>
<g>
</g>
<g>
</g>
<g>
</g>
</svg>
