<svg xmlns="http://www.w3.org/2000/svg" xmlns:xlink="http://www.w3.org/1999/xlink" width="19" height="25" fill="none" xmlns:v="https://vecta.io/nano"><g fill="#4af6cd"><g stroke="#4af6cd" stroke-width=".5"><use xlink:href="#B"/><path d="M9.5 15.744c-1.488 0-2.7-1.21-2.7-2.7 0-.316.258-.574.574-.574s.574.258.574.574c0 .855.697 1.553 1.553 1.553s1.553-.697 1.553-1.553c0-.316.258-.574.574-.574s.574.258.574.574A2.71 2.71 0 0 1 9.5 15.744z"/><use xlink:href="#B" x="8.504"/></g><path fill-rule="evenodd" d="M.422 15.07A9.09 9.09 0 0 0 9.5 24.147h0c5.006 0 9.078-4.072 9.08-9.078C18.58 8.237 10.237.795 9.88.48c-.21-.186-.523-.19-.74-.016C8.784.752.422 7.592.422 15.07zm9.062-13.39h0zm0 0c-1.62 1.42-7.916 7.324-7.916 13.4a7.94 7.94 0 0 0 7.93 7.929 7.94 7.94 0 0 0 7.93-7.929c.002-5.543-6.337-11.876-7.943-13.4z"/><path d="M9.5 24.147l.112-.223-.053-.027H9.5v.25zm0 0l-.112.223.053.027h.06v-.25zm9.08-9.078h0zM9.88.48l-.166.187h0L9.88.48zM9.14.465l.156.195h.001L9.14.465zm.343 1.212l.164.188.503-.438h-.667v.25zm-.001 0v-.25h-.63l.457.432.172-.182zm7.944 13.39h-.25 0 .25zM9.5 23.897a8.84 8.84 0 0 1-8.828-8.828h-.5A9.34 9.34 0 0 0 9.5 24.397v-.5zm.113.027h0l-.225.447h0l.225-.447zm8.717-8.855c-.002 4.868-3.962 8.828-8.83 8.828v.5c5.144 0 9.328-4.184 9.33-9.328h-.5zM9.716.668c.172.153 2.334 2.08 4.45 4.816C16.29 8.23 18.33 11.74 18.33 15.07h.5c0-3.504-2.133-7.13-4.268-9.89C12.418 2.406 10.23.455 10.047.293l-.33.374zM9.298.66c.122-.1.3-.095.417.008l.332-.374C9.746.026 9.295.018 8.984.27l.315.388zM.672 15.07c0-3.652 2.046-7.175 4.17-9.842C6.962 2.566 9.126.797 9.298.66l-.313-.4c-.186.15-2.382 1.944-4.533 4.645C2.306 7.608.172 11.244.172 15.07h.5zM9.32 1.49h0l.33.377h0l-.33-.377zm.164.438h.001v-.5h-.001v.5zm.172-.43l-.344.363.344-.363zM9.32 1.5c-.816.716-2.8 2.56-4.602 4.993-1.787 2.426-3.4 5.472-3.4 8.586h.5c0-2.953 1.536-5.892 3.302-8.29 1.76-2.39 3.726-4.21 4.53-4.913L9.32 1.5zm-8 13.578a8.19 8.19 0 0 0 8.18 8.179v-.5a7.69 7.69 0 0 1-7.68-7.679h-.5zm8.18 8.18a8.19 8.19 0 0 0 8.18-8.179h-.5a7.69 7.69 0 0 1-7.68 7.679v.5zm8.18-8.18c.001-2.855-1.625-5.88-3.416-8.353-1.798-2.483-3.797-4.458-4.606-5.22l-.343.364a38.52 38.52 0 0 1 4.544 5.149c1.78 2.457 3.322 5.37 3.32 8.06h.5z"/></g><defs ><path id="B" d="M5.248 15.744c-1.488 0-2.7-1.21-2.7-2.7 0-.316.258-.574.574-.574s.574.258.574.574c0 .855.697 1.553 1.553 1.553s1.553-.697 1.553-1.553c0-.316.258-.574.574-.574s.574.258.574.574a2.71 2.71 0 0 1-2.703 2.699z"/></defs></svg>