<svg xmlns="http://www.w3.org/2000/svg" viewBox="0 0 512 512" fill="#fdcc13">
  <path d="M392.2 116.3l-76 119.9v144.9h-51.7v-61.5h-53.6L99.7 11 36.3 30.8l3.2 9.1v136.8C23.7 182 11 197.6 11 216.4c0 21.9 18 40.7 39.1 40.7s39.1-18.8 39.1-40.7H68c0 11.5-8.4 20.9-18 20.9-9.5 0-18-9.4-18-20.9 0-11.5 7.4-20.9 18-20.9h10.6v-94.8l80.3 231V381H75.4v120H501V116.3H392.2zM244.4 339.4v41.7H162v-41.7h82.4zM87 36l101.4 283.6h-30.6l-95-275.2L87 36zm393.9 444.1H96.5V402h384.4v78.1zM336.3 241.4l67.6-105.3h76v239.8H336.3V241.4z"/>
  <path d="M369 216.4v35.4h95v-99h-52.8L369 216.4zm75-43.8V231h-53.9v-8.3l32.7-50H444z"/>
</svg>
