<svg width="30" height="47" viewBox="0 0 30 47" fill="none" xmlns="http://www.w3.org/2000/svg">
<path d="M0.204865 12.2628C0.339317 11.9902 0.534685 11.7512 0.776302 11.5636L12.7916 2.22742L14.0116 1.27946C14.3186 1.04175 14.6585 0.907962 15 0.863281C15.3415 0.907962 15.6814 1.04175 15.9884 1.27946L17.2084 2.22742L29.2237 11.5636C29.4653 11.7512 29.6607 11.9902 29.7951 12.2628C29.9296 12.5354 29.9996 12.8345 30 13.1376V17.2011C30 17.6212 29.51 17.8533 29.1728 17.5962L17.3077 8.54735V46.4984C17.3077 46.7743 17.0786 47.0001 16.7986 47.0001H13.2014C12.9214 47.0001 12.6923 46.7743 12.6923 46.4984V8.54735L0.827206 17.5962C0.48996 17.8533 0 17.6212 0 17.2011V13.1376C0.000373237 12.8345 0.0704143 12.5354 0.204865 12.2628Z" fill="#778AA2"/>
</svg>
