<svg xmlns="http://www.w3.org/2000/svg" width="36" height="37" fill="none"  xmlns:v="https://vecta.io/nano"><path d="M35.674 17.033c-.197-.082-.425-.037-.576.115l-1.583 1.588V7.94a.53.53 0 0 0-.528-.53h-4.06l2.894-2.904a1.61 1.61 0 0 0 .472-1.143 1.61 1.61 0 0 0-.472-1.143L30.18.573A1.6 1.6 0 0 0 29.04.1a1.6 1.6 0 0 0-1.139.473L21.086 7.4H4.684V2.166a.53.53 0 0 0-.528-.53A4.17 4.17 0 0 0 0 5.805V28.32c0 .04.005.077.013.114a4 4 0 0 0 1.197 2.57 3.97 3.97 0 0 0 2.793 1.14H20.15l-3.04 3.05a.53.53 0 0 0 .374.905h18a.53.53 0 0 0 .528-.53V17.523a.53.53 0 0 0-.326-.49zm-7.026-15.7c.216-.217.568-.217.784 0l1.642 1.647a.56.56 0 0 1 0 .787l-1.047 1.05L27.6 2.374l1.047-1.05zm-1.794 1.8l2.426 2.434-.97.973-2.426-2.434.97-.973zm8.09 20.356h-.975a.53.53 0 1 0 0 1.06h.975v1.597h-.975a.53.53 0 1 0 0 1.06h.975v1.597h-.975a.53.53 0 1 0 0 1.06h.975v1.598h-.975a.53.53 0 1 0 0 1.06h.975v2.528H18.757l5.337-5.354a.53.53 0 0 0 0-.75c-.024-.024-.05-.044-.076-.063-.206-.14-.49-.12-.672.063l-2.14 2.148H4.003c-1.603 0-2.893-1.255-2.943-2.86l.023-.3.02-.142.028-.14.008-.034.026-.104.016-.056.024-.08.027-.08.02-.055.04-.103.012-.03.057-.126c.416-.863 1.21-1.503 2.165-1.7l.14-.026.022-.004.12-.016.034-.004.118-.01.038-.003.156-.004a.53.53 0 0 0 .528-.53v-3.844a.53.53 0 0 0-.528-.53.53.53 0 0 0-.528.53v3.347a4.12 4.12 0 0 0-2.374 1.152l-.197.208V5.805a3.11 3.11 0 0 1 2.571-3.064v15.976a.53.53 0 0 0 .528.53.53.53 0 0 0 .528-.53V8.47H20.03l-2.92 2.93a.53.53 0 0 0 0 .75c.206.207.54.207.747 0l7.282-7.305 2.426 2.434-10.94 10.975-2.426-2.434 2.1-2.107a.53.53 0 0 0 0-.75.53.53 0 0 0-.747 0l-2.474 2.482a.54.54 0 0 0-.037.042l-.032.045-.01.018-.016.03-.01.02-.013.032-1.736 4.93a.52.52 0 0 0-.021.081H9.442a.53.53 0 1 0 0 1.06h14.633a.53.53 0 1 0 0-1.06H13.577l3.222-1.14.045-.02.052-.027.05-.034a.51.51 0 0 0 .052-.045L27.87 8.47h4.588v11.325L24.9 27.378a.53.53 0 0 0 0 .75c.013.013.026.025.04.036.097.08.215.12.334.12s.237-.04.333-.12c.014-.01.027-.024.04-.036l9.296-9.326v4.677zm-19.286-4.695l-1.514.536-1.008-1.012.534-1.518 1.988 1.994z" fill="#ff681d"/></svg>