<svg xmlns="http://www.w3.org/2000/svg" width="40" height="40" fill="#ff681d"  xmlns:v="https://vecta.io/nano"><path d="M4.898 18.042a.67.67 0 0 1-.282-.062c-.088-.04-.167-.1-.23-.175s-.108-.16-.134-.255a.66.66 0 0 1-.013-.287A15.91 15.91 0 0 1 8.685 8.76a16.04 16.04 0 0 1 8.531-4.432.67.67 0 0 1 .498.111c.145.1.243.256.274.43s-.01.352-.1.496-.256.242-.43.273A14.7 14.7 0 0 0 9.629 9.7a14.62 14.62 0 0 0-4.075 7.794c-.027.154-.108.293-.228.394a.67.67 0 0 1-.428.156zm17.768 17.712a.67.67 0 0 1-.451-.175c-.123-.113-.2-.267-.214-.433s.034-.33.136-.463a.67.67 0 0 1 .414-.25 14.7 14.7 0 0 0 7.819-4.062 14.62 14.62 0 0 0 4.075-7.794c.015-.087.046-.17.093-.244s.108-.14.18-.2.153-.087.24-.106a.67.67 0 0 1 .693.269.65.65 0 0 1 .104.24.67.67 0 0 1 .004.26 15.91 15.91 0 0 1-4.446 8.503 16.04 16.04 0 0 1-8.531 4.432.64.64 0 0 1-.116.01h0zm-18-15.054c.368 0 .667-.298.667-.665s-.298-.665-.667-.665-.666.3-.666.666.298.665.667.665zM20 5.416c.368 0 .667-.298.667-.665s-.3-.665-.667-.665-.667.298-.667.665.298.665.667.665zM35.333 20.7c.368 0 .667-.298.667-.665s-.298-.665-.667-.665-.667.298-.667.665.3.665.667.665zM20 35.984c.368 0 .667-.297.667-.664s-.3-.665-.667-.665-.667.298-.667.665.298.664.667.664zm0 3.988c-3.956 0-7.822-1.17-11.1-3.36a19.95 19.95 0 0 1-7.366-8.947 19.88 19.88 0 0 1-1.14-11.518A19.9 19.9 0 0 1 5.858 5.94 20.03 20.03 0 0 1 20 .1a20.03 20.03 0 0 1 14.142 5.84A19.9 19.9 0 0 1 40 20.036c0 5.286-2.107 10.358-5.858 14.097a19.84 19.84 0 0 1-6.484 4.33A19.95 19.95 0 0 1 20 39.972h0zM20 1.43A18.71 18.71 0 0 0 9.629 4.565a18.62 18.62 0 0 0-6.875 8.351 18.55 18.55 0 0 0-1.062 10.751 18.59 18.59 0 0 0 5.109 9.527c3.5 3.5 8.25 5.45 13.2 5.45s9.7-1.96 13.2-5.45a18.58 18.58 0 0 0 5.467-13.157c0-4.935-1.968-9.67-5.468-13.157a18.55 18.55 0 0 0-6.052-4.043C24.882 1.9 22.452 1.423 20 1.43h0zm3.333 21.93a.67.67 0 0 0 .471-.195c.125-.125.195-.294.195-.47s-.07-.345-.195-.47a.67.67 0 0 0-.471-.195h-4.667V20.7h4c1.06 0 2.078-.42 2.83-1.168a3.98 3.98 0 0 0 0-5.639c-.75-.748-1.768-1.168-2.83-1.168H18a.67.67 0 0 0-.471.195c-.125.125-.195.294-.195.47v5.98h-.667a.67.67 0 0 0-.471.195c-.125.125-.195.294-.195.47s.07.345.195.47a.67.67 0 0 0 .471.195h.667v1.33h-.667a.67.67 0 0 0-.471.195c-.125.125-.195.294-.195.47s.07.345.195.47a.67.67 0 0 0 .471.195h.667V28c0 .176.07.345.195.47a.67.67 0 0 0 .943 0c.125-.125.195-.294.195-.47v-4.64h4.667zm2-6.645c-.001.705-.282 1.38-.782 1.88s-1.178.78-1.885.78h-4V14.06h4a2.67 2.67 0 0 1 1.885.78c.5.5.78 1.174.782 1.88h0z"/></svg>