<svg xmlns="http://www.w3.org/2000/svg" width="40" height="40" fill="none"  xmlns:v="https://vecta.io/nano"><path d="M40 23.108c0-2.256-1.29-4.23-3.226-5.183V7.817C36.774 3.562 33.3.1 29.032.1S21.3 3.562 21.3 7.817v.76c-.816-.14-1.665-.154-2.518-.022-.046.007-.09.02-.137.027.045-.252.074-.507.074-.765V5.245c0-1.017-.794-1.853-1.797-1.924C15.608 1.325 13.364.1 10.968.1 7.055.1 3.87 3.274 3.87 7.174v.643c0 1.47.736 2.842 1.935 3.68v.037c0 1.62.757 3.066 1.935 4v1.377l-2.9.48C2.04 17.866 0 20.267 0 23.108v5.288h11.412c-2.197.86-3.67 2.962-3.67 5.38v6.197h24.516v-6.197c0-2.417-1.473-4.52-3.67-5.38H40v-5.288zM22.58 7.817c0-3.546 2.894-6.43 6.452-6.43s6.452 2.885 6.452 6.43v9.653c-.112-.025-.222-.052-.336-.07l-2.9-.48v-1.377a5.13 5.13 0 0 0 1.936-4.01l-.005-4.075-.915.42c-.013.006-1.302.583-4.242.583s-4.23-.576-4.237-.58l-.925-.442V9.5a7.78 7.78 0 0 0-1.29-.588V7.817zm4.14 4.54c-.42-.734-.95-1.376-1.56-1.92V9.34c.767.192 2.032.405 3.87.405s3.104-.213 3.87-.405v2.19a3.87 3.87 0 0 1-3.871 3.858c-.216 0-.43-.024-.645-.06v-.947a2.07 2.07 0 0 0-1.666-2.024zm1.105 7.18c.36-.855.56-1.776.56-2.72v-.2c.214.027.43.047.645.047a5.14 5.14 0 0 0 1.936-.379v1.06l-1.936 5.788-1.206-3.608zm.053 4.226l-1.767-1.76a7.01 7.01 0 0 0 .856-.963l.91 2.725zm4.172-5.578l1.02.17.423 2.11-3.307 3.297 1.865-5.577zM18.97 9.826c2.78-.43 5.5.95 6.772 3.428l.18.35h.394a.78.78 0 0 1 .781.778v2.437c0 1.327-.47 2.608-1.29 3.628l-.003-3.945-.892.367c-.014.006-1.48.593-4.91.593s-4.897-.587-4.907-.59l-.9-.384v2.467c-.522-1.08-.74-2.297-.603-3.52a6.49 6.49 0 0 1 5.379-5.608zm-6.176 9.127a7.69 7.69 0 0 0 .519 1.092l-1.138-.68.62-.41zM11 18.605l-1.958-1.463v-.844a5.14 5.14 0 0 0 1.936.379c.446 0 .884-.064 1.3-.177.017.39.06.78.135 1.16L11 18.605zm2.63 3.124l.632.378c.2 1.4.876 2.622 1.876 3.516V27.1h-2.656l-.545-4.344.694-1.037zm2.994 6.72l2.257 1.8-1.903 1.138-1.75-2.617 1.395-.32zm.805-1.006V26.5A5.78 5.78 0 0 0 20 27.11a5.77 5.77 0 0 0 2.581-.611v.945L20 29.502l-2.58-2.058zm5.966 1.006l1.395.32-1.75 2.617-1.903-1.138 2.257-1.8zM20 25.824c-2.5 0-4.516-2.02-4.516-4.502v-3c.843.196 2.308.428 4.516.428s3.673-.232 4.516-.428v3c0 2.482-2.027 4.502-4.516 4.502zM5.806 7.44v2.298c-.4-.547-.645-1.22-.645-1.92v-.643c0-3.192 2.605-5.788 5.807-5.788a5.83 5.83 0 0 1 5.023 2.895l.186.32h.597c.356 0 .645.288.645.643v2.572a3.15 3.15 0 0 1-.232 1.174 7.67 7.67 0 0 0-1.059.516l-.003-2.05-.915.42c-.014.006-1.303.582-4.243.582s-4.23-.576-4.237-.58l-.925-.442zm1.3 4.093V9.34c.767.192 2.032.405 3.87.405s3.104-.213 3.87-.405v1.103c-1.34 1.204-2.26 2.863-2.506 4.692-.44.166-.896.255-1.364.255a3.87 3.87 0 0 1-3.871-3.859zm1.124 6.6l1.592 1.2-1.85 1.107-1.234-2.05 1.49-.248zm.242 8.967h-3.3v-1.93h-1.3v1.93H1.3v-4.002a4.49 4.49 0 0 1 3.774-4.441l.298-.05 2.16 3.587.794-.475.693 1.036-.545 4.344zm1.3 0l.584-4.66-.925-1.383 1.546-.925 1.546.924-.925 1.383.584 4.66h-2.4zm7.725 11.576h-4.584V35.47h-1.3v3.215h-2.58v-4.91c0-2.11 1.44-3.912 3.5-4.386l1.343-.31 2.703 4.04.768-.46.696 1.04-.555 4.983zm3.728 0h-2.43l.592-5.307-.923-1.38L20 31.075l1.546.924-.922 1.38.592 5.307zm9.753-4.91v4.91h-2.58V35.47h-1.3v3.215h-4.584l-.555-4.983.696-1.04.768.46 2.703-4.04 1.343.31c2.06.473 3.5 2.277 3.5 4.386zM38.7 27.1h-2.58v-1.93h-1.3v1.93H23.87v-1.486a5.8 5.8 0 0 0 1.616-2.425l3.545 3.535 5.862-5.843-.463-2.307.505.084c2.187.363 3.774 2.23 3.774 4.44V27.1z" fill="#ff681d"/></svg>