<svg xmlns="http://www.w3.org/2000/svg" width="40" height="40" fill="#ff681d"  xmlns:v="https://vecta.io/nano"><path d="M39.464 14.068l-10.688-2.13c.494-1.126.792-2.328.88-3.554C29.656 3.816 25.716.1 20.87.1s-8.786 3.716-8.786 8.284c0 1.344.727 3.378 1.74 5.553l-.5.103L.804 11.4a.67.67 0 0 0-.557.134C.09 11.67 0 11.86 0 12.06v24.6c0 .314.22.585.53.65l12.667 2.658a.67.67 0 0 0 .275 0l12.533-2.63 13.2 2.63a.69.69 0 0 0 .131.013c.368 0 .667-.298.667-.664V14.72c0-.317-.224-.6-.536-.652zm-26.798 24.42L1.333 36.1v-8.394c2.35.693 7.365 2.5 11.333 6.03v4.74zm0-6.486a33.25 33.25 0 0 0-11.333-5.669v-5.33c2.4-1.14 7.544-2.888 11.333.66v10.34zm0-12.07c-3.988-2.874-8.898-1.425-11.333-.386V12.88l11.333 2.378v4.673zM14 38.488v-3.445a16.94 16.94 0 0 1 2.215 2.98L14 38.488zM25.333 36.1l-7.75 1.626A18.67 18.67 0 0 0 14 33.171V23.106a22.93 22.93 0 0 1 2.429 3.913c1.588 3.03 2.98 5.657 8.904 6.245V36.1zm0-4.178c-5.094-.536-6.214-2.648-7.723-5.527-.925-1.94-2.142-3.73-3.6-5.303V15.25l.42-.088a87.66 87.66 0 0 0 5.183 8.857 1.55 1.55 0 0 0 2.54 0 87.14 87.14 0 0 0 3.191-5.163v13.067zm.06-15.93c-.003.006-.007.012-.01.02a83.2 83.2 0 0 1-4.345 7.259c-.04.05-.102.078-.167.078s-.126-.03-.167-.078c-2.54-3.724-7.286-11.917-7.286-14.896 0-3.835 3.344-6.955 7.453-6.955s7.453 3.12 7.453 6.955c0 1.566-1.316 4.576-2.93 7.62zm13.272 22.494l-12-2.392v-2.742a29.41 29.41 0 0 0 1.408.039c5.563 0 8.97-1.65 10.592-2.714v7.8zm0-9.458c-.868.7-4.646 3.353-12 2.987V19.102c2.788 3.85 7.237 6.16 12 6.234v3.704zm0-5.032c-8.394-.315-11.563-6.486-12-7.436v-.123c.577-1.092 1.126-2.2 1.6-3.258l10.4 2.075v8.742zM20.87 4.48c-2.2 0-4 1.785-4 3.987s1.8 3.987 4 3.987a4 4 0 0 0 4-3.987c0-2.202-1.8-3.987-4-3.987zm0 6.645c-1.472-.002-2.665-1.2-2.667-2.658A2.67 2.67 0 0 1 20.87 5.8a2.67 2.67 0 0 1 2.667 2.658 2.67 2.67 0 0 1-2.667 2.658z"/></svg>