<svg width="13" height="10" viewBox="0 0 13 10" fill="none" xmlns="http://www.w3.org/2000/svg">
<path d="M6.19017 4.81704C7.02134 4.81704 7.74098 4.57969 8.32914 4.1114C8.91711 3.64318 9.21531 3.07029 9.21531 2.40844C9.21531 1.74682 8.9172 1.17386 8.32904 0.705489C7.74088 0.23735 7.02125 0 6.19017 0C5.35891 0 4.63937 0.23735 4.05131 0.705565C3.46324 1.17378 3.16504 1.74675 3.16504 2.40844C3.16504 3.07029 3.46324 3.64326 4.05131 4.11147C4.63957 4.57961 5.3592 4.81704 6.19017 4.81704ZM4.57182 1.11992C5.02305 0.760649 5.55238 0.586013 6.19017 0.586013C6.82788 0.586013 7.3573 0.760649 7.80863 1.11992C8.25986 1.47926 8.47929 1.90078 8.47929 2.40844C8.47929 2.91625 8.25986 3.3377 7.80863 3.69704C7.3573 4.05639 6.82788 4.23103 6.19017 4.23103C5.55257 4.23103 5.02324 4.05631 4.57182 3.69704C4.12049 3.33778 3.90106 2.91625 3.90106 2.40844C3.90106 1.90078 4.12049 1.47926 4.57182 1.11992Z" fill="white"/>
<path d="M11.4835 7.68943C11.4666 7.49458 11.4323 7.28202 11.3818 7.05757C11.3308 6.83143 11.2651 6.61766 11.1866 6.42227C11.1053 6.22032 10.995 6.02089 10.8585 5.82977C10.7169 5.63141 10.5506 5.45868 10.3639 5.31654C10.1687 5.16785 9.92975 5.04829 9.65339 4.96109C9.378 4.87434 9.0728 4.8304 8.74633 4.8304C8.61812 4.8304 8.49413 4.87228 8.25467 4.99641C8.10729 5.07294 7.9349 5.16144 7.74249 5.25932C7.57796 5.34279 7.35508 5.42099 7.07978 5.49179C6.81119 5.56099 6.53847 5.59608 6.26921 5.59608C6.00014 5.59608 5.72743 5.56099 5.45864 5.49179C5.18363 5.42107 4.96065 5.34286 4.79641 5.2594C4.60582 5.16243 4.43334 5.07393 4.28376 4.99634C4.04449 4.87221 3.92049 4.83032 3.79228 4.83032C3.46571 4.83032 3.16061 4.87434 2.88531 4.96117C2.60915 5.04822 2.37007 5.16777 2.17469 5.31662C1.98803 5.45883 1.82168 5.63148 1.68024 5.82977C1.54389 6.02089 1.4335 6.22024 1.35224 6.42235C1.27376 6.61773 1.20812 6.83143 1.15714 7.05757C1.10655 7.28172 1.07234 7.49435 1.05538 7.68966C1.03871 7.88063 1.03027 8.07937 1.03027 8.28018C1.03027 8.80218 1.23869 9.22477 1.64967 9.53643C2.05558 9.84397 2.59257 9.99991 3.2458 9.99991H9.29339C9.94642 9.99991 10.4834 9.84397 10.8894 9.53643C11.3005 9.225 11.5089 8.80225 11.5089 8.2801C11.5088 8.07861 11.5003 7.87986 11.4835 7.68943ZM10.3819 9.11186C10.1137 9.3151 9.75765 9.4139 9.29329 9.4139H3.2458C2.78135 9.4139 2.42527 9.3151 2.15715 9.11193C1.89412 8.91258 1.76629 8.64044 1.76629 8.28018C1.76629 8.0928 1.77405 7.90779 1.78958 7.73017C1.80472 7.55592 1.83567 7.3645 1.88157 7.1611C1.92689 6.96022 1.98458 6.77169 2.05319 6.60103C2.11902 6.43738 2.2088 6.27533 2.32015 6.11923C2.42642 5.97046 2.54869 5.84282 2.68361 5.73997C2.8098 5.64377 2.96887 5.56503 3.1563 5.50598C3.32964 5.45135 3.52445 5.42145 3.73593 5.41695C3.76171 5.42786 3.80761 5.44868 3.88197 5.48729C4.03327 5.56579 4.20767 5.65536 4.40047 5.7534C4.61779 5.86372 4.89779 5.96336 5.23231 6.04934C5.5743 6.13739 5.9231 6.1821 6.26931 6.1821C6.61552 6.1821 6.96441 6.13739 7.30621 6.04942C7.64101 5.96329 7.92091 5.86372 8.13853 5.75325C8.33583 5.65285 8.50534 5.56587 8.65664 5.48729C8.731 5.44876 8.7769 5.42786 8.80268 5.41695C9.01426 5.42145 9.20906 5.45135 9.3825 5.50598C9.56984 5.56503 9.7289 5.64384 9.8551 5.73997C9.99002 5.84274 10.1123 5.97038 10.2186 6.11931C10.33 6.27533 10.4199 6.43745 10.4856 6.60095C10.5543 6.77185 10.6121 6.96029 10.6573 7.16102C10.7031 7.3648 10.7342 7.5563 10.7493 7.73025V7.7304C10.7649 7.90733 10.7728 8.09226 10.7729 8.28018C10.7728 8.64051 10.645 8.91258 10.3819 9.11186Z" fill="white"/>
</svg>
