<svg width="1001" height="496" viewBox="0 0 1001 496" fill="none" xmlns="http://www.w3.org/2000/svg">
<g opacity="0.29827">
<path d="M1008.08 163.448L443.182 -356.858V-747.19L28.1096 -770C24.9043 -762.456 4.36709 -740.714 7.57176 -728.596C11.43 -714.102 30.8387 -718.735 36.4776 -709.409C43.0661 -698.42 31.7291 -653.749 28.3457 -640.86C21.8759 -616.445 7.09676 -596.665 2.82235 -572.25C-4.35982 -531.263 10.1824 -534.53 37.7242 -508.927C84.141 -465.742 46.9244 -420.952 58.6176 -370.223C68.1146 -328.878 109.605 -307.554 124.8 -266.211C136.553 -234.37 152.697 -226.233 177.746 -202.947C177.153 -217.084 164.51 -258.785 188.253 -255.102C211.817 -251.478 202.736 -216.669 207.247 -202.115C211.045 -189.997 237.933 -165.761 215.616 -154.593C208.196 -150.91 187.066 -165.582 178.577 -169.503C184.572 -150.791 180.774 -131.367 190.271 -113.487C201.608 -92.162 213.835 -100.359 228.853 -88.7754C244.344 -76.8355 242.683 -63.1137 235.797 -45.0554C228.615 -26.2247 221.196 -29.1352 232.592 -6.44342C240.843 9.95119 254.85 30.7421 266.9 43.2164C273.904 50.4634 281.502 52.1267 288.506 61.3932C294.323 69.1155 292.067 79.2142 299.012 86.1638C310.883 98.1037 331.006 98.282 340.384 113.904C350.831 131.309 338.96 144.437 369.706 142.833C371.309 177.643 377.897 209.185 377.541 243.994C394.695 250.825 422.414 242.687 440.399 239.063C458.266 263.18 481.355 246.429 501.774 259.558C510.678 265.26 508.837 279.517 514.239 284.506C525.339 294.723 533.529 288.308 547.301 291.872C557.51 294.486 565.404 301.97 575.138 304.703C584.338 307.257 599.475 301.258 606.301 309.396C614.492 319.138 600.78 336.958 613.127 344.799C623.395 351.333 638.115 335.77 648.088 338.027C659.721 340.7 693.079 371.174 701.271 381.212C710.59 392.677 719.969 414.062 725.25 428.793C733.501 451.841 732.373 463.127 749.408 479.998C760.27 490.75 749.942 491.522 767.63 494.67C779.204 496.749 794.518 488.374 806.212 487.067C830.549 484.394 855.122 489.027 879.102 484.453C901.421 480.176 922.729 473.166 945.64 469.899C965.465 467.048 1000.37 469.246 1017.94 459.801C1036.99 449.643 1038.71 426.654 1011.17 430.932C1008.97 416.26 1018.77 396.003 1007.85 385.847C1023.04 365.056 1028.56 350.384 1030.93 324.959C1032 313.792 1032.48 301.436 1038 292.05C1043.4 282.783 1058.59 277.259 1061.56 269.299C1066.13 256.943 1058.83 251.419 1053.25 244.528C1049.69 240.073 1039.54 242.212 1036.63 238.291C1031.23 231.103 1036.57 223.678 1033.6 216.431C1024.94 195.462 1014.61 187.205 1008.08 163.444C1008.26 167.424 1008.44 171.463 1008.2 175.384" stroke="white" stroke-width="2" stroke-linecap="round" stroke-linejoin="round"/>
</g>
<path d="M729.549 82.8208C702.657 102.476 725.944 127.622 739.088 157.601C742.982 166.484 738.91 175.3 728.953 176.454C707.541 178.935 658.542 130.628 654.129 147.179C649.571 164.273 686.856 212.539 688.264 215.203C700.628 238.597 689.136 274.044 668.699 285.595C654.157 293.813 606.138 261.53 592.61 248.548C504.02 163.533 548.959 192.841 437.132 119.419C428.572 113.798 419.408 108.254 409.678 105.561C399.656 102.786 395.026 111.748 395.332 118.16C396.345 139.409 425.348 190.665 401.962 204.811C394.786 209.151 384.045 208.43 376.711 212.584C370.966 215.838 368.055 221.839 363.727 226.467" stroke="white" stroke-width="2"/>
<path d="M727.454 83.2932C718.579 106.644 738.515 115.149 754.352 130.702C759.045 135.311 759.397 142.825 754.332 147.3C743.44 156.921 702.833 142.164 705.247 155.073C707.741 168.407 741.984 187.475 743.521 188.769C757.023 200.125 761.087 228.53 753.359 243.969C747.86 254.955 712.439 250.75 701.331 246.917C628.587 221.819 661.474 225.138 579.496 216.544C573.22 215.886 566.639 215.504 560.58 217.273C554.339 219.096 554.431 226.916 556.46 231.171C563.182 245.27 593.802 269.445 585.228 287.744C582.597 293.359 576.562 296.847 573.791 302.393C571.621 306.738 571.785 311.904 570.783 316.66" stroke="white" stroke-width="2"/>
<path d="M732.248 85C728.265 112.41 737.594 122.028 745.061 139.943C747.273 145.251 747.484 154.022 745.156 159.327C740.148 170.735 721.16 154.139 722.365 169.177C723.609 184.709 739.662 206.44 740.385 207.927C746.739 220.977 748.808 254.085 745.309 272.237C742.819 285.153 726.311 280.8 721.118 276.498C687.113 248.331 702.436 251.69 664.237 242.943C661.313 242.274 658.249 241.931 655.44 244.092C652.548 246.319 652.64 255.45 653.61 260.387C656.827 276.748 671.225 304.498 667.351 326.004C666.162 332.602 663.376 336.77 662.121 343.291C661.138 348.399 661.247 354.43 660.81 360" stroke="white" stroke-width="2"/>
<path d="M726.511 80.705C724.957 119.181 719.28 132.22 713.446 156.932C711.718 164.255 710.51 176.502 710.954 184.016C711.91 200.175 723.088 177.803 720.614 198.767C718.058 220.419 707.635 250.093 707.101 252.139C702.414 270.102 697.245 316.28 696.628 341.799C696.188 359.956 704.635 354.585 707.663 348.799C727.486 310.906 719.732 314.937 739.11 304.365C740.594 303.555 742.103 303.209 743.174 306.351C744.277 309.587 743.08 322.344 741.992 329.201C738.388 351.925 727.997 390.083 727.136 420.304C726.872 429.577 727.678 435.522 727.455 444.689C727.281 451.87 726.467 460.293 725.973 468.096" stroke="white" stroke-width="2"/>
<path fill-rule="evenodd" clip-rule="evenodd" d="M727.5 91C731.09 91 734 88.0899 734 84.5C734 80.9101 731.09 78 727.5 78C723.91 78 721 80.9101 721 84.5C721 88.0899 723.91 91 727.5 91Z" fill="#4AF6CD"/>
<path fill-rule="evenodd" clip-rule="evenodd" d="M570 319C571.657 319 573 317.657 573 316C573 314.343 571.657 313 570 313C568.343 313 567 314.343 567 316C567 317.657 568.343 319 570 319Z" fill="#4AF6CD"/>
<path d="M398.41 309.976L396.17 321H394.218L392.186 311.768L390.138 321H388.234L385.994 309.976H387.482L389.258 319.672L391.386 309.976H393.002L395.178 319.672L397.018 309.976H398.41ZM406.544 316.536C406.544 316.781 406.534 317.032 406.512 317.288H401.136C401.2 318.216 401.435 318.899 401.84 319.336C402.246 319.773 402.768 319.992 403.408 319.992C403.814 319.992 404.187 319.933 404.528 319.816C404.87 319.699 405.227 319.512 405.6 319.256L406.24 320.136C405.344 320.84 404.363 321.192 403.296 321.192C402.123 321.192 401.206 320.808 400.544 320.04C399.894 319.272 399.568 318.216 399.568 316.872C399.568 315.997 399.707 315.224 399.984 314.552C400.272 313.869 400.678 313.336 401.2 312.952C401.734 312.568 402.358 312.376 403.072 312.376C404.192 312.376 405.051 312.744 405.648 313.48C406.246 314.216 406.544 315.235 406.544 316.536ZM405.088 316.104C405.088 315.272 404.923 314.637 404.592 314.2C404.262 313.763 403.766 313.544 403.104 313.544C401.899 313.544 401.243 314.429 401.136 316.2H405.088V316.104ZM411.183 312.376C411.759 312.376 412.276 312.456 412.735 312.616C413.194 312.776 413.631 313.016 414.047 313.336L413.423 314.264C413.039 314.019 412.671 313.837 412.319 313.72C411.978 313.603 411.615 313.544 411.231 313.544C410.751 313.544 410.372 313.645 410.095 313.848C409.818 314.04 409.679 314.307 409.679 314.648C409.679 314.989 409.807 315.256 410.063 315.448C410.33 315.64 410.804 315.827 411.487 316.008C412.426 316.243 413.124 316.563 413.583 316.968C414.052 317.373 414.287 317.928 414.287 318.632C414.287 319.464 413.962 320.099 413.311 320.536C412.671 320.973 411.887 321.192 410.959 321.192C409.679 321.192 408.618 320.824 407.775 320.088L408.559 319.192C409.274 319.736 410.063 320.008 410.927 320.008C411.482 320.008 411.919 319.896 412.239 319.672C412.57 319.437 412.735 319.123 412.735 318.728C412.735 318.44 412.676 318.211 412.559 318.04C412.442 317.859 412.239 317.704 411.951 317.576C411.663 317.437 411.242 317.293 410.687 317.144C409.791 316.909 409.14 316.595 408.735 316.2C408.34 315.805 408.143 315.304 408.143 314.696C408.143 314.259 408.271 313.864 408.527 313.512C408.794 313.149 409.156 312.872 409.615 312.68C410.084 312.477 410.607 312.376 411.183 312.376ZM420.62 320.616C420.065 321 419.436 321.192 418.732 321.192C418.017 321.192 417.457 320.989 417.052 320.584C416.657 320.168 416.46 319.571 416.46 318.792V313.704H414.988V312.568H416.46V310.664L417.932 310.488V312.568H419.932L419.772 313.704H417.932V318.728C417.932 319.165 418.006 319.485 418.156 319.688C418.316 319.88 418.577 319.976 418.94 319.976C419.27 319.976 419.644 319.864 420.06 319.64L420.62 320.616ZM429.179 309.784C429.915 309.784 430.545 309.891 431.067 310.104C431.59 310.307 432.097 310.627 432.587 311.064L431.755 311.992C431.339 311.661 430.929 311.421 430.523 311.272C430.129 311.112 429.702 311.032 429.243 311.032C428.667 311.032 428.193 311.165 427.819 311.432C427.446 311.699 427.259 312.088 427.259 312.6C427.259 312.92 427.323 313.192 427.451 313.416C427.579 313.629 427.814 313.827 428.155 314.008C428.507 314.189 429.014 314.381 429.675 314.584C430.369 314.797 430.945 315.027 431.403 315.272C431.862 315.517 432.23 315.859 432.507 316.296C432.795 316.723 432.939 317.267 432.939 317.928C432.939 318.568 432.779 319.133 432.459 319.624C432.15 320.115 431.697 320.499 431.099 320.776C430.513 321.053 429.814 321.192 429.003 321.192C427.478 321.192 426.23 320.717 425.259 319.768L426.091 318.84C426.539 319.203 426.993 319.48 427.451 319.672C427.91 319.853 428.422 319.944 428.987 319.944C429.67 319.944 430.235 319.779 430.683 319.448C431.131 319.107 431.355 318.616 431.355 317.976C431.355 317.613 431.286 317.315 431.147 317.08C431.009 316.835 430.769 316.616 430.427 316.424C430.097 316.232 429.611 316.04 428.971 315.848C427.841 315.507 427.014 315.096 426.491 314.616C425.969 314.136 425.707 313.485 425.707 312.664C425.707 312.109 425.851 311.613 426.139 311.176C426.438 310.739 426.849 310.397 427.371 310.152C427.905 309.907 428.507 309.784 429.179 309.784ZM439.066 312.376C439.834 312.376 440.431 312.605 440.858 313.064C441.295 313.523 441.514 314.152 441.514 314.952V321H440.042V315.16C440.042 314.563 439.925 314.141 439.69 313.896C439.466 313.651 439.135 313.528 438.698 313.528C438.261 313.528 437.871 313.656 437.53 313.912C437.189 314.168 436.869 314.531 436.57 315V321H435.098V309.192L436.57 309.032V313.736C437.231 312.829 438.063 312.376 439.066 312.376ZM447.641 312.376C448.825 312.376 449.742 312.771 450.393 313.56C451.054 314.349 451.385 315.421 451.385 316.776C451.385 317.651 451.236 318.424 450.937 319.096C450.638 319.757 450.206 320.275 449.641 320.648C449.076 321.011 448.404 321.192 447.625 321.192C446.441 321.192 445.518 320.797 444.857 320.008C444.196 319.219 443.865 318.147 443.865 316.792C443.865 315.917 444.014 315.149 444.313 314.488C444.612 313.816 445.044 313.299 445.609 312.936C446.174 312.563 446.852 312.376 447.641 312.376ZM447.641 313.56C446.18 313.56 445.449 314.637 445.449 316.792C445.449 318.936 446.174 320.008 447.625 320.008C449.076 320.008 449.801 318.931 449.801 316.776C449.801 314.632 449.081 313.56 447.641 313.56ZM457.481 312.376C457.78 312.376 458.057 312.408 458.313 312.472L458.041 313.912C457.785 313.848 457.54 313.816 457.305 313.816C456.782 313.816 456.361 314.008 456.041 314.392C455.721 314.776 455.47 315.373 455.289 316.184V321H453.817V312.568H455.081L455.225 314.28C455.449 313.651 455.753 313.176 456.137 312.856C456.521 312.536 456.969 312.376 457.481 312.376ZM465.872 316.536C465.872 316.781 465.862 317.032 465.84 317.288H460.464C460.528 318.216 460.763 318.899 461.168 319.336C461.574 319.773 462.096 319.992 462.736 319.992C463.142 319.992 463.515 319.933 463.856 319.816C464.198 319.699 464.555 319.512 464.928 319.256L465.568 320.136C464.672 320.84 463.691 321.192 462.624 321.192C461.451 321.192 460.534 320.808 459.872 320.04C459.222 319.272 458.896 318.216 458.896 316.872C458.896 315.997 459.035 315.224 459.312 314.552C459.6 313.869 460.006 313.336 460.528 312.952C461.062 312.568 461.686 312.376 462.4 312.376C463.52 312.376 464.379 312.744 464.976 313.48C465.574 314.216 465.872 315.235 465.872 316.536ZM464.416 316.104C464.416 315.272 464.251 314.637 463.92 314.2C463.59 313.763 463.094 313.544 462.432 313.544C461.227 313.544 460.571 314.429 460.464 316.2H464.416V316.104ZM474.41 308.184V322.568H474.058V308.184H474.41ZM493.237 321H491.765L491.381 316.024C491.221 314.072 491.131 312.573 491.109 311.528L488.725 319.752H487.301L484.789 311.512C484.789 312.845 484.72 314.387 484.581 316.136L484.213 321H482.773L483.685 309.976H485.733L488.053 317.992L490.261 309.976H492.325L493.237 321ZM501.434 319.032C501.434 319.373 501.493 319.629 501.61 319.8C501.728 319.96 501.904 320.083 502.138 320.168L501.802 321.192C501.365 321.139 501.013 321.016 500.746 320.824C500.48 320.632 500.282 320.333 500.154 319.928C499.589 320.771 498.752 321.192 497.642 321.192C496.81 321.192 496.154 320.957 495.674 320.488C495.194 320.019 494.954 319.405 494.954 318.648C494.954 317.752 495.274 317.064 495.914 316.584C496.565 316.104 497.482 315.864 498.666 315.864H499.962V315.24C499.962 314.643 499.818 314.216 499.53 313.96C499.242 313.704 498.8 313.576 498.202 313.576C497.584 313.576 496.826 313.725 495.93 314.024L495.562 312.952C496.608 312.568 497.578 312.376 498.474 312.376C499.466 312.376 500.208 312.621 500.698 313.112C501.189 313.592 501.434 314.28 501.434 315.176V319.032ZM497.978 320.088C498.821 320.088 499.482 319.651 499.962 318.776V316.84H498.858C497.301 316.84 496.522 317.416 496.522 318.568C496.522 319.069 496.645 319.448 496.89 319.704C497.136 319.96 497.498 320.088 497.978 320.088ZM505.981 321.192C505.437 321.192 505.005 321.032 504.685 320.712C504.376 320.381 504.221 319.923 504.221 319.336V309.176L505.693 309V319.304C505.693 319.539 505.731 319.709 505.805 319.816C505.891 319.923 506.029 319.976 506.221 319.976C506.424 319.976 506.605 319.944 506.765 319.88L507.149 320.904C506.797 321.096 506.408 321.192 505.981 321.192ZM510.461 312.568V321H508.989V312.568H510.461ZM509.709 308.52C510.018 308.52 510.269 308.616 510.461 308.808C510.653 309 510.749 309.24 510.749 309.528C510.749 309.816 510.653 310.056 510.461 310.248C510.269 310.429 510.018 310.52 509.709 310.52C509.41 310.52 509.165 310.429 508.973 310.248C508.781 310.056 508.685 309.816 508.685 309.528C508.685 309.24 508.781 309 508.973 308.808C509.165 308.616 509.41 308.52 509.709 308.52ZM517.36 312.376C518.32 312.376 519.083 312.765 519.648 313.544C520.214 314.312 520.496 315.389 520.496 316.776C520.496 317.651 520.363 318.424 520.096 319.096C519.83 319.757 519.446 320.275 518.944 320.648C518.443 321.011 517.856 321.192 517.184 321.192C516.299 321.192 515.552 320.819 514.944 320.072L514.8 321H513.504V309.176L514.976 309V313.624C515.584 312.792 516.379 312.376 517.36 312.376ZM516.832 320.024C517.483 320.024 517.99 319.763 518.352 319.24C518.726 318.707 518.912 317.885 518.912 316.776C518.912 315.635 518.742 314.813 518.4 314.312C518.059 313.8 517.574 313.544 516.944 313.544C516.198 313.544 515.542 313.981 514.976 314.856V318.888C515.2 319.24 515.472 319.517 515.792 319.72C516.123 319.923 516.47 320.024 516.832 320.024ZM529.276 321H528.012L527.9 319.688C527.58 320.211 527.212 320.595 526.796 320.84C526.38 321.075 525.874 321.192 525.276 321.192C524.54 321.192 523.964 320.968 523.548 320.52C523.132 320.072 522.924 319.437 522.924 318.616V312.568H524.396V318.456C524.396 319.032 524.498 319.443 524.7 319.688C524.903 319.923 525.234 320.04 525.692 320.04C526.514 320.04 527.218 319.555 527.804 318.584V312.568H529.276V321ZM532.701 318.968C533.021 318.968 533.288 319.075 533.501 319.288C533.714 319.501 533.821 319.763 533.821 320.072C533.821 320.403 533.725 320.781 533.533 321.208L532.461 323.656H531.405L532.045 321C531.906 320.893 531.794 320.76 531.709 320.6C531.634 320.44 531.597 320.264 531.597 320.072C531.597 319.763 531.704 319.501 531.917 319.288C532.13 319.075 532.392 318.968 532.701 318.968ZM544.331 309.784C544.992 309.784 545.547 309.869 545.995 310.04C546.454 310.211 546.918 310.488 547.387 310.872L546.555 311.848C545.883 311.304 545.174 311.032 544.427 311.032C543.51 311.032 542.768 311.384 542.203 312.088C541.648 312.792 541.371 313.923 541.371 315.48C541.371 316.995 541.648 318.115 542.203 318.84C542.758 319.555 543.494 319.912 544.411 319.912C544.88 319.912 545.291 319.832 545.643 319.672C545.995 319.512 546.368 319.288 546.763 319L547.515 319.96C547.174 320.312 546.736 320.605 546.203 320.84C545.67 321.075 545.056 321.192 544.363 321.192C543.467 321.192 542.667 320.973 541.963 320.536C541.27 320.088 540.726 319.437 540.331 318.584C539.947 317.72 539.755 316.685 539.755 315.48C539.755 314.275 539.958 313.245 540.363 312.392C540.768 311.528 541.318 310.877 542.011 310.44C542.704 310.003 543.478 309.784 544.331 309.784ZM555.3 321L554.468 318.232H550.292L549.46 321H547.924L551.46 309.976H553.38L556.9 321H555.3ZM550.66 317H554.1L552.388 311.24L550.66 317Z" fill="white"/>
<path fill-rule="evenodd" clip-rule="evenodd" d="M725 471C726.657 471 728 469.657 728 468C728 466.343 726.657 465 725 465C723.343 465 722 466.343 722 468C722 469.657 723.343 471 725 471Z" fill="#4AF6CD"/>
<path d="M540.547 473H538.515L534.035 463.64C534.099 464.376 534.147 465.059 534.179 465.688C534.221 466.307 534.243 467.059 534.243 467.944V473H532.819V461.976H534.803L539.331 471.352C539.299 471.075 539.256 470.589 539.203 469.896C539.149 469.203 539.123 468.568 539.123 467.992V461.976H540.547V473ZM546.829 464.376C548.013 464.376 548.93 464.771 549.581 465.56C550.242 466.349 550.573 467.421 550.573 468.776C550.573 469.651 550.423 470.424 550.125 471.096C549.826 471.757 549.394 472.275 548.829 472.648C548.263 473.011 547.591 473.192 546.813 473.192C545.629 473.192 544.706 472.797 544.045 472.008C543.383 471.219 543.053 470.147 543.053 468.792C543.053 467.917 543.202 467.149 543.501 466.488C543.799 465.816 544.231 465.299 544.797 464.936C545.362 464.563 546.039 464.376 546.829 464.376ZM546.829 465.56C545.367 465.56 544.637 466.637 544.637 468.792C544.637 470.936 545.362 472.008 546.813 472.008C548.263 472.008 548.989 470.931 548.989 468.776C548.989 466.632 548.269 465.56 546.829 465.56ZM556.668 464.376C556.967 464.376 557.244 464.408 557.5 464.472L557.228 465.912C556.972 465.848 556.727 465.816 556.492 465.816C555.97 465.816 555.548 466.008 555.228 466.392C554.908 466.776 554.658 467.373 554.476 468.184V473H553.004V464.568H554.268L554.412 466.28C554.636 465.651 554.94 465.176 555.324 464.856C555.708 464.536 556.156 464.376 556.668 464.376ZM563.432 472.616C562.878 473 562.248 473.192 561.544 473.192C560.83 473.192 560.27 472.989 559.864 472.584C559.47 472.168 559.272 471.571 559.272 470.792V465.704H557.8V464.568H559.272V462.664L560.744 462.488V464.568H562.744L562.584 465.704H560.744V470.728C560.744 471.165 560.819 471.485 560.968 471.688C561.128 471.88 561.39 471.976 561.752 471.976C562.083 471.976 562.456 471.864 562.872 471.64L563.432 472.616ZM568.926 464.376C569.694 464.376 570.291 464.605 570.718 465.064C571.155 465.523 571.374 466.152 571.374 466.952V473H569.902V467.16C569.902 466.563 569.784 466.141 569.55 465.896C569.326 465.651 568.995 465.528 568.558 465.528C568.12 465.528 567.731 465.656 567.39 465.912C567.048 466.168 566.728 466.531 566.43 467V473H564.958V461.192L566.43 461.032V465.736C567.091 464.829 567.923 464.376 568.926 464.376ZM581.367 461.784C582.103 461.784 582.732 461.891 583.255 462.104C583.778 462.307 584.284 462.627 584.775 463.064L583.943 463.992C583.527 463.661 583.116 463.421 582.711 463.272C582.316 463.112 581.89 463.032 581.431 463.032C580.855 463.032 580.38 463.165 580.007 463.432C579.634 463.699 579.447 464.088 579.447 464.6C579.447 464.92 579.511 465.192 579.639 465.416C579.767 465.629 580.002 465.827 580.343 466.008C580.695 466.189 581.202 466.381 581.863 466.584C582.556 466.797 583.132 467.027 583.591 467.272C584.05 467.517 584.418 467.859 584.695 468.296C584.983 468.723 585.127 469.267 585.127 469.928C585.127 470.568 584.967 471.133 584.647 471.624C584.338 472.115 583.884 472.499 583.287 472.776C582.7 473.053 582.002 473.192 581.191 473.192C579.666 473.192 578.418 472.717 577.447 471.768L578.279 470.84C578.727 471.203 579.18 471.48 579.639 471.672C580.098 471.853 580.61 471.944 581.175 471.944C581.858 471.944 582.423 471.779 582.871 471.448C583.319 471.107 583.543 470.616 583.543 469.976C583.543 469.613 583.474 469.315 583.335 469.08C583.196 468.835 582.956 468.616 582.615 468.424C582.284 468.232 581.799 468.04 581.159 467.848C580.028 467.507 579.202 467.096 578.679 466.616C578.156 466.136 577.895 465.485 577.895 464.664C577.895 464.109 578.039 463.613 578.327 463.176C578.626 462.739 579.036 462.397 579.559 462.152C580.092 461.907 580.695 461.784 581.367 461.784ZM591.254 464.376C592.022 464.376 592.619 464.605 593.046 465.064C593.483 465.523 593.702 466.152 593.702 466.952V473H592.23V467.16C592.23 466.563 592.112 466.141 591.878 465.896C591.654 465.651 591.323 465.528 590.886 465.528C590.448 465.528 590.059 465.656 589.718 465.912C589.376 466.168 589.056 466.531 588.758 467V473H587.286V461.192L588.758 461.032V465.736C589.419 464.829 590.251 464.376 591.254 464.376ZM599.829 464.376C601.013 464.376 601.93 464.771 602.581 465.56C603.242 466.349 603.573 467.421 603.573 468.776C603.573 469.651 603.423 470.424 603.125 471.096C602.826 471.757 602.394 472.275 601.829 472.648C601.263 473.011 600.591 473.192 599.813 473.192C598.629 473.192 597.706 472.797 597.045 472.008C596.383 471.219 596.053 470.147 596.053 468.792C596.053 467.917 596.202 467.149 596.501 466.488C596.799 465.816 597.231 465.299 597.797 464.936C598.362 464.563 599.039 464.376 599.829 464.376ZM599.829 465.56C598.367 465.56 597.637 466.637 597.637 468.792C597.637 470.936 598.362 472.008 599.813 472.008C601.263 472.008 601.989 470.931 601.989 468.776C601.989 466.632 601.269 465.56 599.829 465.56ZM609.668 464.376C609.967 464.376 610.244 464.408 610.5 464.472L610.228 465.912C609.972 465.848 609.727 465.816 609.492 465.816C608.97 465.816 608.548 466.008 608.228 466.392C607.908 466.776 607.658 467.373 607.476 468.184V473H606.004V464.568H607.268L607.412 466.28C607.636 465.651 607.94 465.176 608.324 464.856C608.708 464.536 609.156 464.376 609.668 464.376ZM618.06 468.536C618.06 468.781 618.049 469.032 618.028 469.288H612.652C612.716 470.216 612.951 470.899 613.356 471.336C613.761 471.773 614.284 471.992 614.924 471.992C615.329 471.992 615.703 471.933 616.044 471.816C616.385 471.699 616.743 471.512 617.116 471.256L617.756 472.136C616.86 472.84 615.879 473.192 614.812 473.192C613.639 473.192 612.721 472.808 612.06 472.04C611.409 471.272 611.084 470.216 611.084 468.872C611.084 467.997 611.223 467.224 611.5 466.552C611.788 465.869 612.193 465.336 612.716 464.952C613.249 464.568 613.873 464.376 614.588 464.376C615.708 464.376 616.567 464.744 617.164 465.48C617.761 466.216 618.06 467.235 618.06 468.536ZM616.604 468.104C616.604 467.272 616.439 466.637 616.108 466.2C615.777 465.763 615.281 465.544 614.62 465.544C613.415 465.544 612.759 466.429 612.652 468.2H616.604V468.104ZM626.597 460.184V474.568H626.245V460.184H626.597ZM637.089 461.976V471.672H641.617L641.441 473H635.569V461.976H637.089ZM648.187 464.872C648.763 465.224 649.201 465.736 649.499 466.408C649.809 467.069 649.963 467.859 649.963 468.776C649.963 469.651 649.814 470.424 649.515 471.096C649.217 471.757 648.785 472.275 648.219 472.648C647.654 473.011 646.982 473.192 646.203 473.192C645.947 473.192 645.675 473.165 645.387 473.112L644.763 475.08L643.563 474.728L644.235 472.696C643.659 472.344 643.217 471.832 642.907 471.16C642.598 470.488 642.443 469.699 642.443 468.792C642.443 467.917 642.593 467.149 642.891 466.488C643.19 465.816 643.622 465.299 644.187 464.936C644.753 464.563 645.43 464.376 646.219 464.376C646.475 464.376 646.747 464.403 647.035 464.456L647.659 462.504L648.859 462.856L648.187 464.872ZM646.219 465.56C644.758 465.56 644.027 466.637 644.027 468.792C644.027 470.168 644.283 471.096 644.795 471.576L646.779 465.608C646.598 465.576 646.411 465.56 646.219 465.56ZM646.203 472.008C647.654 472.008 648.379 470.931 648.379 468.776C648.379 468.061 648.315 467.48 648.187 467.032C648.07 466.584 647.883 466.243 647.627 466.008L645.659 471.96C645.819 471.992 646.001 472.008 646.203 472.008ZM653.867 461V473H652.395V461.176L653.867 461ZM658.715 464.568L655.611 468.296L659.067 473H657.307L653.963 468.392L657.067 464.568H658.715ZM662.055 461V473H660.583V461.176L662.055 461ZM666.903 464.568L663.799 468.296L667.255 473H665.495L662.151 468.392L665.255 464.568H666.903ZM674.997 468.536C674.997 468.781 674.987 469.032 674.965 469.288H669.589C669.653 470.216 669.888 470.899 670.293 471.336C670.699 471.773 671.221 471.992 671.861 471.992C672.267 471.992 672.64 471.933 672.981 471.816C673.323 471.699 673.68 471.512 674.053 471.256L674.693 472.136C673.797 472.84 672.816 473.192 671.749 473.192C670.576 473.192 669.659 472.808 668.997 472.04C668.347 471.272 668.021 470.216 668.021 468.872C668.021 467.997 668.16 467.224 668.437 466.552C668.725 465.869 669.131 465.336 669.653 464.952C670.187 464.568 670.811 464.376 671.525 464.376C672.645 464.376 673.504 464.744 674.101 465.48C674.699 466.216 674.997 467.235 674.997 468.536ZM673.541 468.104C673.541 467.272 673.376 466.637 673.045 466.2C672.715 465.763 672.219 465.544 671.557 465.544C670.352 465.544 669.696 466.429 669.589 468.2H673.541V468.104ZM681.316 464.376C682.084 464.376 682.681 464.605 683.108 465.064C683.545 465.523 683.764 466.152 683.764 466.952V473H682.292V467.16C682.292 466.563 682.18 466.141 681.956 465.896C681.732 465.651 681.401 465.528 680.964 465.528C680.516 465.528 680.121 465.656 679.78 465.912C679.439 466.168 679.119 466.536 678.82 467.016V473H677.348V464.568H678.612L678.74 465.816C679.039 465.368 679.407 465.016 679.844 464.76C680.292 464.504 680.783 464.376 681.316 464.376ZM687.107 470.968C687.427 470.968 687.694 471.075 687.907 471.288C688.12 471.501 688.227 471.763 688.227 472.072C688.227 472.403 688.131 472.781 687.939 473.208L686.867 475.656H685.811L686.451 473C686.312 472.893 686.2 472.76 686.115 472.6C686.04 472.44 686.003 472.264 686.003 472.072C686.003 471.763 686.11 471.501 686.323 471.288C686.536 471.075 686.798 470.968 687.107 470.968ZM697.185 461.976C698.849 461.976 700.183 462.365 701.185 463.144C702.199 463.912 702.705 465.341 702.705 467.432C702.705 469.469 702.199 470.909 701.185 471.752C700.183 472.584 698.961 473 697.521 473H694.881V461.976H697.185ZM696.401 463.192V471.8H697.633C698.657 471.8 699.489 471.485 700.129 470.856C700.769 470.227 701.089 469.085 701.089 467.432C701.089 466.269 700.924 465.379 700.593 464.76C700.263 464.131 699.841 463.715 699.329 463.512C698.817 463.299 698.215 463.192 697.521 463.192H696.401ZM706.698 461.976V473H705.178V461.976H706.698ZM712.698 461.976L708.522 467.016L713.002 473H711.13L706.778 467.112L710.97 461.976H712.698Z" fill="white"/>
<path fill-rule="evenodd" clip-rule="evenodd" d="M661 363C662.657 363 664 361.657 664 360C664 358.343 662.657 357 661 357C659.343 357 658 358.343 658 360C658 361.657 659.343 363 661 363Z" fill="#4AF6CD"/>
<path d="M490.789 354.784C491.525 354.784 492.154 354.891 492.677 355.104C493.199 355.307 493.706 355.627 494.197 356.064L493.365 356.992C492.949 356.661 492.538 356.421 492.133 356.272C491.738 356.112 491.311 356.032 490.853 356.032C490.277 356.032 489.802 356.165 489.429 356.432C489.055 356.699 488.869 357.088 488.869 357.6C488.869 357.92 488.933 358.192 489.061 358.416C489.189 358.629 489.423 358.827 489.765 359.008C490.117 359.189 490.623 359.381 491.285 359.584C491.978 359.797 492.554 360.027 493.013 360.272C493.471 360.517 493.839 360.859 494.117 361.296C494.405 361.723 494.549 362.267 494.549 362.928C494.549 363.568 494.389 364.133 494.069 364.624C493.759 365.115 493.306 365.499 492.709 365.776C492.122 366.053 491.423 366.192 490.613 366.192C489.087 366.192 487.839 365.717 486.869 364.768L487.701 363.84C488.149 364.203 488.602 364.48 489.061 364.672C489.519 364.853 490.031 364.944 490.597 364.944C491.279 364.944 491.845 364.779 492.293 364.448C492.741 364.107 492.965 363.616 492.965 362.976C492.965 362.613 492.895 362.315 492.757 362.08C492.618 361.835 492.378 361.616 492.037 361.424C491.706 361.232 491.221 361.04 490.581 360.848C489.45 360.507 488.623 360.096 488.101 359.616C487.578 359.136 487.317 358.485 487.317 357.664C487.317 357.109 487.461 356.613 487.749 356.176C488.047 355.739 488.458 355.397 488.981 355.152C489.514 354.907 490.117 354.784 490.789 354.784ZM499.876 357.376C501.06 357.376 501.977 357.771 502.628 358.56C503.289 359.349 503.62 360.421 503.62 361.776C503.62 362.651 503.47 363.424 503.172 364.096C502.873 364.757 502.441 365.275 501.876 365.648C501.31 366.011 500.638 366.192 499.86 366.192C498.676 366.192 497.753 365.797 497.092 365.008C496.43 364.219 496.1 363.147 496.1 361.792C496.1 360.917 496.249 360.149 496.548 359.488C496.846 358.816 497.278 358.299 497.844 357.936C498.409 357.563 499.086 357.376 499.876 357.376ZM499.876 358.56C498.414 358.56 497.684 359.637 497.684 361.792C497.684 363.936 498.409 365.008 499.86 365.008C501.31 365.008 502.036 363.931 502.036 361.776C502.036 359.632 501.316 358.56 499.876 358.56ZM512.323 366H511.059L510.947 364.688C510.627 365.211 510.259 365.595 509.843 365.84C509.427 366.075 508.921 366.192 508.323 366.192C507.587 366.192 507.011 365.968 506.595 365.52C506.179 365.072 505.971 364.437 505.971 363.616V357.568H507.443V363.456C507.443 364.032 507.545 364.443 507.747 364.688C507.95 364.923 508.281 365.04 508.739 365.04C509.561 365.04 510.265 364.555 510.851 363.584V357.568H512.323V366ZM519.62 365.616C519.065 366 518.436 366.192 517.732 366.192C517.017 366.192 516.457 365.989 516.052 365.584C515.657 365.168 515.46 364.571 515.46 363.792V358.704H513.988V357.568H515.46V355.664L516.932 355.488V357.568H518.932L518.772 358.704H516.932V363.728C516.932 364.165 517.006 364.485 517.156 364.688C517.316 364.88 517.577 364.976 517.94 364.976C518.27 364.976 518.644 364.864 519.06 364.64L519.62 365.616ZM525.113 357.376C525.881 357.376 526.478 357.605 526.905 358.064C527.342 358.523 527.561 359.152 527.561 359.952V366H526.089V360.16C526.089 359.563 525.972 359.141 525.737 358.896C525.513 358.651 525.182 358.528 524.745 358.528C524.308 358.528 523.918 358.656 523.577 358.912C523.236 359.168 522.916 359.531 522.617 360V366H521.145V354.192L522.617 354.032V358.736C523.278 357.829 524.11 357.376 525.113 357.376ZM537.554 354.784C538.29 354.784 538.92 354.891 539.442 355.104C539.965 355.307 540.472 355.627 540.962 356.064L540.13 356.992C539.714 356.661 539.304 356.421 538.898 356.272C538.504 356.112 538.077 356.032 537.618 356.032C537.042 356.032 536.568 356.165 536.194 356.432C535.821 356.699 535.634 357.088 535.634 357.6C535.634 357.92 535.698 358.192 535.826 358.416C535.954 358.629 536.189 358.827 536.53 359.008C536.882 359.189 537.389 359.381 538.05 359.584C538.744 359.797 539.32 360.027 539.778 360.272C540.237 360.517 540.605 360.859 540.882 361.296C541.17 361.723 541.314 362.267 541.314 362.928C541.314 363.568 541.154 364.133 540.834 364.624C540.525 365.115 540.072 365.499 539.474 365.776C538.888 366.053 538.189 366.192 537.378 366.192C535.853 366.192 534.605 365.717 533.634 364.768L534.466 363.84C534.914 364.203 535.368 364.48 535.826 364.672C536.285 364.853 536.797 364.944 537.362 364.944C538.045 364.944 538.61 364.779 539.058 364.448C539.506 364.107 539.73 363.616 539.73 362.976C539.73 362.613 539.661 362.315 539.522 362.08C539.384 361.835 539.144 361.616 538.802 361.424C538.472 361.232 537.986 361.04 537.346 360.848C536.216 360.507 535.389 360.096 534.866 359.616C534.344 359.136 534.082 358.485 534.082 357.664C534.082 357.109 534.226 356.613 534.514 356.176C534.813 355.739 535.224 355.397 535.746 355.152C536.28 354.907 536.882 354.784 537.554 354.784ZM547.441 357.376C548.209 357.376 548.806 357.605 549.233 358.064C549.67 358.523 549.889 359.152 549.889 359.952V366H548.417V360.16C548.417 359.563 548.3 359.141 548.065 358.896C547.841 358.651 547.51 358.528 547.073 358.528C546.636 358.528 546.246 358.656 545.905 358.912C545.564 359.168 545.244 359.531 544.945 360V366H543.473V354.192L544.945 354.032V358.736C545.606 357.829 546.438 357.376 547.441 357.376ZM556.016 357.376C557.2 357.376 558.117 357.771 558.768 358.56C559.429 359.349 559.76 360.421 559.76 361.776C559.76 362.651 559.611 363.424 559.312 364.096C559.013 364.757 558.581 365.275 558.016 365.648C557.451 366.011 556.779 366.192 556 366.192C554.816 366.192 553.893 365.797 553.232 365.008C552.571 364.219 552.24 363.147 552.24 361.792C552.24 360.917 552.389 360.149 552.688 359.488C552.987 358.816 553.419 358.299 553.984 357.936C554.549 357.563 555.227 357.376 556.016 357.376ZM556.016 358.56C554.555 358.56 553.824 359.637 553.824 361.792C553.824 363.936 554.549 365.008 556 365.008C557.451 365.008 558.176 363.931 558.176 361.776C558.176 359.632 557.456 358.56 556.016 358.56ZM565.856 357.376C566.155 357.376 566.432 357.408 566.688 357.472L566.416 358.912C566.16 358.848 565.915 358.816 565.68 358.816C565.157 358.816 564.736 359.008 564.416 359.392C564.096 359.776 563.845 360.373 563.664 361.184V366H562.192V357.568H563.456L563.6 359.28C563.824 358.651 564.128 358.176 564.512 357.856C564.896 357.536 565.344 357.376 565.856 357.376ZM574.247 361.536C574.247 361.781 574.237 362.032 574.215 362.288H568.839C568.903 363.216 569.138 363.899 569.543 364.336C569.949 364.773 570.471 364.992 571.111 364.992C571.517 364.992 571.89 364.933 572.231 364.816C572.573 364.699 572.93 364.512 573.303 364.256L573.943 365.136C573.047 365.84 572.066 366.192 570.999 366.192C569.826 366.192 568.909 365.808 568.247 365.04C567.597 364.272 567.271 363.216 567.271 361.872C567.271 360.997 567.41 360.224 567.687 359.552C567.975 358.869 568.381 358.336 568.903 357.952C569.437 357.568 570.061 357.376 570.775 357.376C571.895 357.376 572.754 357.744 573.351 358.48C573.949 359.216 574.247 360.235 574.247 361.536ZM572.791 361.104C572.791 360.272 572.626 359.637 572.295 359.2C571.965 358.763 571.469 358.544 570.807 358.544C569.602 358.544 568.946 359.429 568.839 361.2H572.791V361.104ZM582.785 353.184V367.568H582.433V353.184H582.785ZM597.916 366V360.832H593.276V366H591.756V354.976H593.276V359.584H597.916V354.976H599.436V366H597.916ZM608.823 366H607.559L607.447 364.688C607.127 365.211 606.759 365.595 606.343 365.84C605.927 366.075 605.421 366.192 604.823 366.192C604.087 366.192 603.511 365.968 603.095 365.52C602.679 365.072 602.471 364.437 602.471 363.616V357.568H603.943V363.456C603.943 364.032 604.045 364.443 604.247 364.688C604.45 364.923 604.781 365.04 605.239 365.04C606.061 365.04 606.765 364.555 607.351 363.584V357.568H608.823V366ZM613.544 366.192C613 366.192 612.568 366.032 612.248 365.712C611.938 365.381 611.784 364.923 611.784 364.336V354.176L613.256 354V364.304C613.256 364.539 613.293 364.709 613.368 364.816C613.453 364.923 613.592 364.976 613.784 364.976C613.986 364.976 614.168 364.944 614.328 364.88L614.712 365.904C614.36 366.096 613.97 366.192 613.544 366.192ZM618.231 366.192C617.687 366.192 617.255 366.032 616.935 365.712C616.626 365.381 616.471 364.923 616.471 364.336V354.176L617.943 354V364.304C617.943 364.539 617.981 364.709 618.055 364.816C618.141 364.923 618.279 364.976 618.471 364.976C618.674 364.976 618.855 364.944 619.015 364.88L619.399 365.904C619.047 366.096 618.658 366.192 618.231 366.192ZM621.623 363.968C621.943 363.968 622.209 364.075 622.423 364.288C622.636 364.501 622.743 364.763 622.743 365.072C622.743 365.403 622.647 365.781 622.455 366.208L621.383 368.656H620.327L620.967 366C620.828 365.893 620.716 365.76 620.631 365.6C620.556 365.44 620.519 365.264 620.519 365.072C620.519 364.763 620.625 364.501 620.839 364.288C621.052 364.075 621.313 363.968 621.623 363.968ZM636.949 362.464C636.949 363.2 636.794 363.851 636.485 364.416C636.186 364.971 635.744 365.408 635.157 365.728C634.581 366.037 633.888 366.192 633.077 366.192C631.85 366.192 630.901 365.856 630.229 365.184C629.568 364.501 629.237 363.595 629.237 362.464V354.976H630.757V362.352C630.757 363.205 630.949 363.845 631.333 364.272C631.717 364.699 632.298 364.912 633.077 364.912C633.866 364.912 634.453 364.704 634.837 364.288C635.221 363.861 635.413 363.216 635.413 362.352V354.976H636.949V362.464ZM642.601 354.784C643.337 354.784 643.967 354.891 644.489 355.104C645.012 355.307 645.519 355.627 646.009 356.064L645.177 356.992C644.761 356.661 644.351 356.421 643.945 356.272C643.551 356.112 643.124 356.032 642.665 356.032C642.089 356.032 641.615 356.165 641.241 356.432C640.868 356.699 640.681 357.088 640.681 357.6C640.681 357.92 640.745 358.192 640.873 358.416C641.001 358.629 641.236 358.827 641.577 359.008C641.929 359.189 642.436 359.381 643.097 359.584C643.791 359.797 644.367 360.027 644.825 360.272C645.284 360.517 645.652 360.859 645.929 361.296C646.217 361.723 646.361 362.267 646.361 362.928C646.361 363.568 646.201 364.133 645.881 364.624C645.572 365.115 645.119 365.499 644.521 365.776C643.935 366.053 643.236 366.192 642.425 366.192C640.9 366.192 639.652 365.717 638.681 364.768L639.513 363.84C639.961 364.203 640.415 364.48 640.873 364.672C641.332 364.853 641.844 364.944 642.409 364.944C643.092 364.944 643.657 364.779 644.105 364.448C644.553 364.107 644.777 363.616 644.777 362.976C644.777 362.613 644.708 362.315 644.569 362.08C644.431 361.835 644.191 361.616 643.849 361.424C643.519 361.232 643.033 361.04 642.393 360.848C641.263 360.507 640.436 360.096 639.913 359.616C639.391 359.136 639.129 358.485 639.129 357.664C639.129 357.109 639.273 356.613 639.561 356.176C639.86 355.739 640.271 355.397 640.793 355.152C641.327 354.907 641.929 354.784 642.601 354.784Z" fill="white"/>
<path fill-rule="evenodd" clip-rule="evenodd" d="M365 228C366.657 228 368 226.657 368 225C368 223.343 366.657 222 365 222C363.343 222 362 223.343 362 225C362 226.657 363.343 228 365 228Z" fill="#4AF6CD"/>
<path d="M128.256 218.976L128.08 220.192H123.808V223.792H127.52V225.008H123.808V228.784H128.384V230H122.288V218.976H128.256ZM136.263 228.032C136.263 228.373 136.321 228.629 136.439 228.8C136.556 228.96 136.732 229.083 136.967 229.168L136.631 230.192C136.193 230.139 135.841 230.016 135.575 229.824C135.308 229.632 135.111 229.333 134.983 228.928C134.417 229.771 133.58 230.192 132.471 230.192C131.639 230.192 130.983 229.957 130.503 229.488C130.023 229.019 129.783 228.405 129.783 227.648C129.783 226.752 130.103 226.064 130.743 225.584C131.393 225.104 132.311 224.864 133.495 224.864H134.791V224.24C134.791 223.643 134.647 223.216 134.359 222.96C134.071 222.704 133.628 222.576 133.031 222.576C132.412 222.576 131.655 222.725 130.759 223.024L130.391 221.952C131.436 221.568 132.407 221.376 133.303 221.376C134.295 221.376 135.036 221.621 135.527 222.112C136.017 222.592 136.263 223.28 136.263 224.176V228.032ZM132.807 229.088C133.649 229.088 134.311 228.651 134.791 227.776V225.84H133.687C132.129 225.84 131.351 226.416 131.351 227.568C131.351 228.069 131.473 228.448 131.719 228.704C131.964 228.96 132.327 229.088 132.807 229.088ZM141.417 221.376C141.993 221.376 142.511 221.456 142.969 221.616C143.428 221.776 143.865 222.016 144.281 222.336L143.657 223.264C143.273 223.019 142.905 222.837 142.553 222.72C142.212 222.603 141.849 222.544 141.465 222.544C140.985 222.544 140.607 222.645 140.329 222.848C140.052 223.04 139.913 223.307 139.913 223.648C139.913 223.989 140.041 224.256 140.297 224.448C140.564 224.64 141.039 224.827 141.721 225.008C142.66 225.243 143.359 225.563 143.817 225.968C144.287 226.373 144.521 226.928 144.521 227.632C144.521 228.464 144.196 229.099 143.545 229.536C142.905 229.973 142.121 230.192 141.193 230.192C139.913 230.192 138.852 229.824 138.009 229.088L138.793 228.192C139.508 228.736 140.297 229.008 141.161 229.008C141.716 229.008 142.153 228.896 142.473 228.672C142.804 228.437 142.969 228.123 142.969 227.728C142.969 227.44 142.911 227.211 142.793 227.04C142.676 226.859 142.473 226.704 142.185 226.576C141.897 226.437 141.476 226.293 140.921 226.144C140.025 225.909 139.375 225.595 138.969 225.2C138.575 224.805 138.377 224.304 138.377 223.696C138.377 223.259 138.505 222.864 138.761 222.512C139.028 222.149 139.391 221.872 139.849 221.68C140.319 221.477 140.841 221.376 141.417 221.376ZM150.854 229.616C150.299 230 149.67 230.192 148.966 230.192C148.251 230.192 147.691 229.989 147.286 229.584C146.891 229.168 146.694 228.571 146.694 227.792V222.704H145.222V221.568H146.694V219.664L148.166 219.488V221.568H150.166L150.006 222.704H148.166V227.728C148.166 228.165 148.241 228.485 148.39 228.688C148.55 228.88 148.811 228.976 149.174 228.976C149.505 228.976 149.878 228.864 150.294 228.64L150.854 229.616ZM159.414 218.784C160.15 218.784 160.779 218.891 161.302 219.104C161.824 219.307 162.331 219.627 162.822 220.064L161.99 220.992C161.574 220.661 161.163 220.421 160.758 220.272C160.363 220.112 159.936 220.032 159.478 220.032C158.902 220.032 158.427 220.165 158.054 220.432C157.68 220.699 157.494 221.088 157.494 221.6C157.494 221.92 157.558 222.192 157.686 222.416C157.814 222.629 158.048 222.827 158.39 223.008C158.742 223.189 159.248 223.381 159.91 223.584C160.603 223.797 161.179 224.027 161.638 224.272C162.096 224.517 162.464 224.859 162.742 225.296C163.03 225.723 163.174 226.267 163.174 226.928C163.174 227.568 163.014 228.133 162.694 228.624C162.384 229.115 161.931 229.499 161.334 229.776C160.747 230.053 160.048 230.192 159.238 230.192C157.712 230.192 156.464 229.717 155.494 228.768L156.326 227.84C156.774 228.203 157.227 228.48 157.686 228.672C158.144 228.853 158.656 228.944 159.222 228.944C159.904 228.944 160.47 228.779 160.918 228.448C161.366 228.107 161.59 227.616 161.59 226.976C161.59 226.613 161.52 226.315 161.382 226.08C161.243 225.835 161.003 225.616 160.662 225.424C160.331 225.232 159.846 225.04 159.206 224.848C158.075 224.507 157.248 224.096 156.726 223.616C156.203 223.136 155.942 222.485 155.942 221.664C155.942 221.109 156.086 220.613 156.374 220.176C156.672 219.739 157.083 219.397 157.606 219.152C158.139 218.907 158.742 218.784 159.414 218.784ZM169.301 221.376C170.069 221.376 170.666 221.605 171.093 222.064C171.53 222.523 171.749 223.152 171.749 223.952V230H170.277V224.16C170.277 223.563 170.159 223.141 169.925 222.896C169.701 222.651 169.37 222.528 168.933 222.528C168.495 222.528 168.106 222.656 167.765 222.912C167.423 223.168 167.103 223.531 166.805 224V230H165.333V218.192L166.805 218.032V222.736C167.466 221.829 168.298 221.376 169.301 221.376ZM177.876 221.376C179.06 221.376 179.977 221.771 180.628 222.56C181.289 223.349 181.62 224.421 181.62 225.776C181.62 226.651 181.47 227.424 181.172 228.096C180.873 228.757 180.441 229.275 179.876 229.648C179.31 230.011 178.638 230.192 177.86 230.192C176.676 230.192 175.753 229.797 175.092 229.008C174.43 228.219 174.1 227.147 174.1 225.792C174.1 224.917 174.249 224.149 174.548 223.488C174.846 222.816 175.278 222.299 175.844 221.936C176.409 221.563 177.086 221.376 177.876 221.376ZM177.876 222.56C176.414 222.56 175.684 223.637 175.684 225.792C175.684 227.936 176.409 229.008 177.86 229.008C179.31 229.008 180.036 227.931 180.036 225.776C180.036 223.632 179.316 222.56 177.876 222.56ZM187.715 221.376C188.014 221.376 188.291 221.408 188.547 221.472L188.275 222.912C188.019 222.848 187.774 222.816 187.539 222.816C187.017 222.816 186.595 223.008 186.275 223.392C185.955 223.776 185.705 224.373 185.523 225.184V230H184.051V221.568H185.315L185.459 223.28C185.683 222.651 185.987 222.176 186.371 221.856C186.755 221.536 187.203 221.376 187.715 221.376ZM196.107 225.536C196.107 225.781 196.096 226.032 196.075 226.288H190.699C190.763 227.216 190.997 227.899 191.403 228.336C191.808 228.773 192.331 228.992 192.971 228.992C193.376 228.992 193.749 228.933 194.091 228.816C194.432 228.699 194.789 228.512 195.163 228.256L195.803 229.136C194.907 229.84 193.925 230.192 192.859 230.192C191.685 230.192 190.768 229.808 190.107 229.04C189.456 228.272 189.131 227.216 189.131 225.872C189.131 224.997 189.269 224.224 189.547 223.552C189.835 222.869 190.24 222.336 190.763 221.952C191.296 221.568 191.92 221.376 192.635 221.376C193.755 221.376 194.613 221.744 195.211 222.48C195.808 223.216 196.107 224.235 196.107 225.536ZM194.651 225.104C194.651 224.272 194.485 223.637 194.155 223.2C193.824 222.763 193.328 222.544 192.667 222.544C191.461 222.544 190.805 223.429 190.699 225.2H194.651V225.104ZM204.644 217.184V231.568H204.292V217.184H204.644ZM216.512 218.976C217.877 218.976 218.933 219.264 219.68 219.84C220.426 220.405 220.8 221.253 220.8 222.384C220.8 223.589 220.41 224.485 219.632 225.072C218.853 225.659 217.818 225.952 216.528 225.952H215.136V230H213.616V218.976H216.512ZM216.464 224.752C217.349 224.752 218.021 224.581 218.48 224.24C218.949 223.899 219.184 223.285 219.184 222.4C219.184 221.611 218.949 221.04 218.48 220.688C218.021 220.336 217.36 220.16 216.496 220.16H215.136V224.752H216.464ZM224.305 221.568V230H222.833V221.568H224.305ZM223.553 217.52C223.862 217.52 224.113 217.616 224.305 217.808C224.497 218 224.593 218.24 224.593 218.528C224.593 218.816 224.497 219.056 224.305 219.248C224.113 219.429 223.862 219.52 223.553 219.52C223.254 219.52 223.009 219.429 222.817 219.248C222.625 219.056 222.529 218.816 222.529 218.528C222.529 218.24 222.625 218 222.817 217.808C223.009 217.616 223.254 217.52 223.553 217.52ZM231.316 221.376C232.084 221.376 232.681 221.605 233.108 222.064C233.545 222.523 233.764 223.152 233.764 223.952V230H232.292V224.16C232.292 223.563 232.18 223.141 231.956 222.896C231.732 222.651 231.401 222.528 230.964 222.528C230.516 222.528 230.121 222.656 229.78 222.912C229.439 223.168 229.119 223.536 228.82 224.016V230H227.348V221.568H228.612L228.74 222.816C229.039 222.368 229.407 222.016 229.844 221.76C230.292 221.504 230.783 221.376 231.316 221.376ZM243.091 225.536C243.091 225.781 243.08 226.032 243.059 226.288H237.683C237.747 227.216 237.982 227.899 238.387 228.336C238.792 228.773 239.315 228.992 239.955 228.992C240.36 228.992 240.734 228.933 241.075 228.816C241.416 228.699 241.774 228.512 242.147 228.256L242.787 229.136C241.891 229.84 240.91 230.192 239.843 230.192C238.67 230.192 237.752 229.808 237.091 229.04C236.44 228.272 236.115 227.216 236.115 225.872C236.115 224.997 236.254 224.224 236.531 223.552C236.819 222.869 237.224 222.336 237.747 221.952C238.28 221.568 238.904 221.376 239.619 221.376C240.739 221.376 241.598 221.744 242.195 222.48C242.792 223.216 243.091 224.235 243.091 225.536ZM241.635 225.104C241.635 224.272 241.47 223.637 241.139 223.2C240.808 222.763 240.312 222.544 239.651 222.544C238.446 222.544 237.79 223.429 237.683 225.2H241.635V225.104ZM247.122 230.192C246.578 230.192 246.146 230.032 245.826 229.712C245.517 229.381 245.362 228.923 245.362 228.336V218.176L246.834 218V228.304C246.834 228.539 246.871 228.709 246.946 228.816C247.031 228.923 247.17 228.976 247.362 228.976C247.565 228.976 247.746 228.944 247.906 228.88L248.29 229.904C247.938 230.096 247.549 230.192 247.122 230.192ZM251.809 230.192C251.265 230.192 250.833 230.032 250.513 229.712C250.204 229.381 250.049 228.923 250.049 228.336V218.176L251.521 218V228.304C251.521 228.539 251.559 228.709 251.633 228.816C251.719 228.923 251.857 228.976 252.049 228.976C252.252 228.976 252.433 228.944 252.593 228.88L252.977 229.904C252.625 230.096 252.236 230.192 251.809 230.192ZM260.419 228.032C260.419 228.373 260.477 228.629 260.595 228.8C260.712 228.96 260.888 229.083 261.123 229.168L260.787 230.192C260.349 230.139 259.997 230.016 259.731 229.824C259.464 229.632 259.267 229.333 259.139 228.928C258.573 229.771 257.736 230.192 256.627 230.192C255.795 230.192 255.139 229.957 254.659 229.488C254.179 229.019 253.939 228.405 253.939 227.648C253.939 226.752 254.259 226.064 254.899 225.584C255.549 225.104 256.467 224.864 257.651 224.864H258.947V224.24C258.947 223.643 258.803 223.216 258.515 222.96C258.227 222.704 257.784 222.576 257.187 222.576C256.568 222.576 255.811 222.725 254.915 223.024L254.547 221.952C255.592 221.568 256.563 221.376 257.459 221.376C258.451 221.376 259.192 221.621 259.683 222.112C260.173 222.592 260.419 223.28 260.419 224.176V228.032ZM256.963 229.088C257.805 229.088 258.467 228.651 258.947 227.776V225.84H257.843C256.285 225.84 255.507 226.416 255.507 227.568C255.507 228.069 255.629 228.448 255.875 228.704C256.12 228.96 256.483 229.088 256.963 229.088ZM265.574 221.376C266.15 221.376 266.667 221.456 267.126 221.616C267.584 221.776 268.022 222.016 268.438 222.336L267.814 223.264C267.43 223.019 267.062 222.837 266.71 222.72C266.368 222.603 266.006 222.544 265.622 222.544C265.142 222.544 264.763 222.645 264.486 222.848C264.208 223.04 264.07 223.307 264.07 223.648C264.07 223.989 264.198 224.256 264.454 224.448C264.72 224.64 265.195 224.827 265.878 225.008C266.816 225.243 267.515 225.563 267.974 225.968C268.443 226.373 268.678 226.928 268.678 227.632C268.678 228.464 268.352 229.099 267.702 229.536C267.062 229.973 266.278 230.192 265.35 230.192C264.07 230.192 263.008 229.824 262.166 229.088L262.95 228.192C263.664 228.736 264.454 229.008 265.318 229.008C265.872 229.008 266.31 228.896 266.63 228.672C266.96 228.437 267.126 228.123 267.126 227.728C267.126 227.44 267.067 227.211 266.95 227.04C266.832 226.859 266.63 226.704 266.342 226.576C266.054 226.437 265.632 226.293 265.078 226.144C264.182 225.909 263.531 225.595 263.126 225.2C262.731 224.805 262.534 224.304 262.534 223.696C262.534 223.259 262.662 222.864 262.918 222.512C263.184 222.149 263.547 221.872 264.006 221.68C264.475 221.477 264.998 221.376 265.574 221.376ZM278.925 218.784C279.586 218.784 280.141 218.869 280.589 219.04C281.047 219.211 281.511 219.488 281.981 219.872L281.149 220.848C280.477 220.304 279.767 220.032 279.021 220.032C278.103 220.032 277.362 220.384 276.797 221.088C276.242 221.792 275.965 222.923 275.965 224.48C275.965 225.995 276.242 227.115 276.797 227.84C277.351 228.555 278.087 228.912 279.005 228.912C279.474 228.912 279.885 228.832 280.237 228.672C280.589 228.512 280.962 228.288 281.357 228L282.109 228.96C281.767 229.312 281.33 229.605 280.797 229.84C280.263 230.075 279.65 230.192 278.957 230.192C278.061 230.192 277.261 229.973 276.557 229.536C275.863 229.088 275.319 228.437 274.925 227.584C274.541 226.72 274.349 225.685 274.349 224.48C274.349 223.275 274.551 222.245 274.957 221.392C275.362 220.528 275.911 219.877 276.605 219.44C277.298 219.003 278.071 218.784 278.925 218.784ZM286.797 221.376C287.981 221.376 288.899 221.771 289.549 222.56C290.211 223.349 290.541 224.421 290.541 225.776C290.541 226.651 290.392 227.424 290.093 228.096C289.795 228.757 289.363 229.275 288.797 229.648C288.232 230.011 287.56 230.192 286.781 230.192C285.597 230.192 284.675 229.797 284.013 229.008C283.352 228.219 283.021 227.147 283.021 225.792C283.021 224.917 283.171 224.149 283.469 223.488C283.768 222.816 284.2 222.299 284.765 221.936C285.331 221.563 286.008 221.376 286.797 221.376ZM286.797 222.56C285.336 222.56 284.605 223.637 284.605 225.792C284.605 227.936 285.331 229.008 286.781 229.008C288.232 229.008 288.957 227.931 288.957 225.776C288.957 223.632 288.237 222.56 286.797 222.56ZM299.245 230H297.981L297.869 228.688C297.549 229.211 297.181 229.595 296.765 229.84C296.349 230.075 295.842 230.192 295.245 230.192C294.509 230.192 293.933 229.968 293.517 229.52C293.101 229.072 292.893 228.437 292.893 227.616V221.568H294.365V227.456C294.365 228.032 294.466 228.443 294.669 228.688C294.872 228.923 295.202 229.04 295.661 229.04C296.482 229.04 297.186 228.555 297.773 227.584V221.568H299.245V230ZM306.254 221.376C307.022 221.376 307.619 221.605 308.046 222.064C308.483 222.523 308.702 223.152 308.702 223.952V230H307.23V224.16C307.23 223.563 307.118 223.141 306.894 222.896C306.67 222.651 306.339 222.528 305.902 222.528C305.454 222.528 305.059 222.656 304.718 222.912C304.376 223.168 304.056 223.536 303.758 224.016V230H302.286V221.568H303.55L303.678 222.816C303.976 222.368 304.344 222.016 304.782 221.76C305.23 221.504 305.72 221.376 306.254 221.376ZM315.917 229.616C315.362 230 314.733 230.192 314.029 230.192C313.314 230.192 312.754 229.989 312.349 229.584C311.954 229.168 311.757 228.571 311.757 227.792V222.704H310.285V221.568H311.757V219.664L313.229 219.488V221.568H315.229L315.069 222.704H313.229V227.728C313.229 228.165 313.303 228.485 313.453 228.688C313.613 228.88 313.874 228.976 314.237 228.976C314.567 228.976 314.941 228.864 315.357 228.64L315.917 229.616ZM320.74 230.048C320.409 231.029 319.945 231.803 319.348 232.368C318.761 232.944 317.918 233.291 316.82 233.408L316.66 232.256C317.214 232.16 317.657 232.021 317.988 231.84C318.318 231.659 318.58 231.424 318.772 231.136C318.974 230.859 319.161 230.48 319.332 230H318.836L316.004 221.568H317.572L319.828 228.928L322.036 221.568H323.556L320.74 230.048ZM325.623 227.968C325.943 227.968 326.209 228.075 326.423 228.288C326.636 228.501 326.743 228.763 326.743 229.072C326.743 229.403 326.647 229.781 326.455 230.208L325.383 232.656H324.327L324.967 230C324.828 229.893 324.716 229.76 324.631 229.6C324.556 229.44 324.519 229.264 324.519 229.072C324.519 228.763 324.625 228.501 324.839 228.288C325.052 228.075 325.313 227.968 325.623 227.968ZM340.949 226.464C340.949 227.2 340.794 227.851 340.485 228.416C340.186 228.971 339.744 229.408 339.157 229.728C338.581 230.037 337.888 230.192 337.077 230.192C335.85 230.192 334.901 229.856 334.229 229.184C333.568 228.501 333.237 227.595 333.237 226.464V218.976H334.757V226.352C334.757 227.205 334.949 227.845 335.333 228.272C335.717 228.699 336.298 228.912 337.077 228.912C337.866 228.912 338.453 228.704 338.837 228.288C339.221 227.861 339.413 227.216 339.413 226.352V218.976H340.949V226.464ZM346.601 218.784C347.337 218.784 347.967 218.891 348.489 219.104C349.012 219.307 349.519 219.627 350.009 220.064L349.177 220.992C348.761 220.661 348.351 220.421 347.945 220.272C347.551 220.112 347.124 220.032 346.665 220.032C346.089 220.032 345.615 220.165 345.241 220.432C344.868 220.699 344.681 221.088 344.681 221.6C344.681 221.92 344.745 222.192 344.873 222.416C345.001 222.629 345.236 222.827 345.577 223.008C345.929 223.189 346.436 223.381 347.097 223.584C347.791 223.797 348.367 224.027 348.825 224.272C349.284 224.517 349.652 224.859 349.929 225.296C350.217 225.723 350.361 226.267 350.361 226.928C350.361 227.568 350.201 228.133 349.881 228.624C349.572 229.115 349.119 229.499 348.521 229.776C347.935 230.053 347.236 230.192 346.425 230.192C344.9 230.192 343.652 229.717 342.681 228.768L343.513 227.84C343.961 228.203 344.415 228.48 344.873 228.672C345.332 228.853 345.844 228.944 346.409 228.944C347.092 228.944 347.657 228.779 348.105 228.448C348.553 228.107 348.777 227.616 348.777 226.976C348.777 226.613 348.708 226.315 348.569 226.08C348.431 225.835 348.191 225.616 347.849 225.424C347.519 225.232 347.033 225.04 346.393 224.848C345.263 224.507 344.436 224.096 343.913 223.616C343.391 223.136 343.129 222.485 343.129 221.664C343.129 221.109 343.273 220.613 343.561 220.176C343.86 219.739 344.271 219.397 344.793 219.152C345.327 218.907 345.929 218.784 346.601 218.784Z" fill="white"/>
<path d="M598.378 75.784C599.039 75.784 599.594 75.8693 600.042 76.04C600.501 76.2107 600.965 76.488 601.434 76.872L600.602 77.848C599.93 77.304 599.221 77.032 598.474 77.032C597.557 77.032 596.815 77.384 596.25 78.088C595.695 78.792 595.418 79.9227 595.418 81.48C595.418 82.9947 595.695 84.1147 596.25 84.84C596.805 85.5547 597.541 85.912 598.458 85.912C598.927 85.912 599.338 85.832 599.69 85.672C600.042 85.512 600.415 85.288 600.81 85L601.562 85.96C601.221 86.312 600.783 86.6053 600.25 86.84C599.717 87.0747 599.103 87.192 598.41 87.192C597.514 87.192 596.714 86.9733 596.01 86.536C595.317 86.088 594.773 85.4373 594.378 84.584C593.994 83.72 593.802 82.6853 593.802 81.48C593.802 80.2747 594.005 79.2453 594.41 78.392C594.815 77.528 595.365 76.8773 596.058 76.44C596.751 76.0027 597.525 75.784 598.378 75.784ZM609.401 87H608.137L608.025 85.688C607.705 86.2107 607.337 86.5947 606.921 86.84C606.505 87.0747 605.999 87.192 605.401 87.192C604.665 87.192 604.089 86.968 603.673 86.52C603.257 86.072 603.049 85.4373 603.049 84.616V78.568H604.521V84.456C604.521 85.032 604.623 85.4427 604.825 85.688C605.028 85.9227 605.359 86.04 605.817 86.04C606.639 86.04 607.343 85.5547 607.929 84.584V78.568H609.401V87ZM616.106 78.376C616.405 78.376 616.682 78.408 616.938 78.472L616.666 79.912C616.41 79.848 616.165 79.816 615.93 79.816C615.407 79.816 614.986 80.008 614.666 80.392C614.346 80.776 614.095 81.3733 613.914 82.184V87H612.442V78.568H613.706L613.85 80.28C614.074 79.6507 614.378 79.176 614.762 78.856C615.146 78.536 615.594 78.376 616.106 78.376ZM622.278 78.376C622.576 78.376 622.854 78.408 623.11 78.472L622.838 79.912C622.582 79.848 622.336 79.816 622.102 79.816C621.579 79.816 621.158 80.008 620.838 80.392C620.518 80.776 620.267 81.3733 620.086 82.184V87H618.614V78.568H619.878L620.022 80.28C620.246 79.6507 620.55 79.176 620.934 78.856C621.318 78.536 621.766 78.376 622.278 78.376ZM630.669 82.536C630.669 82.7813 630.659 83.032 630.637 83.288H625.261C625.325 84.216 625.56 84.8987 625.965 85.336C626.371 85.7733 626.893 85.992 627.533 85.992C627.939 85.992 628.312 85.9333 628.653 85.816C628.995 85.6987 629.352 85.512 629.725 85.256L630.365 86.136C629.469 86.84 628.488 87.192 627.421 87.192C626.248 87.192 625.331 86.808 624.669 86.04C624.019 85.272 623.693 84.216 623.693 82.872C623.693 81.9973 623.832 81.224 624.109 80.552C624.397 79.8693 624.803 79.336 625.325 78.952C625.859 78.568 626.483 78.376 627.197 78.376C628.317 78.376 629.176 78.744 629.773 79.48C630.371 80.216 630.669 81.2347 630.669 82.536ZM629.213 82.104C629.213 81.272 629.048 80.6373 628.717 80.2C628.387 79.7627 627.891 79.544 627.229 79.544C626.024 79.544 625.368 80.4293 625.261 82.2H629.213V82.104ZM636.988 78.376C637.756 78.376 638.353 78.6053 638.78 79.064C639.217 79.5227 639.436 80.152 639.436 80.952V87H637.964V81.16C637.964 80.5627 637.852 80.1413 637.628 79.896C637.404 79.6507 637.073 79.528 636.636 79.528C636.188 79.528 635.793 79.656 635.452 79.912C635.111 80.168 634.791 80.536 634.492 81.016V87H633.02V78.568H634.284L634.412 79.816C634.711 79.368 635.079 79.016 635.516 78.76C635.964 78.504 636.455 78.376 636.988 78.376ZM646.651 86.616C646.096 87 645.467 87.192 644.763 87.192C644.048 87.192 643.488 86.9893 643.083 86.584C642.688 86.168 642.491 85.5707 642.491 84.792V79.704H641.019V78.568H642.491V76.664L643.963 76.488V78.568H645.963L645.803 79.704H643.963V84.728C643.963 85.1653 644.038 85.4853 644.187 85.688C644.347 85.88 644.608 85.976 644.971 85.976C645.302 85.976 645.675 85.864 646.091 85.64L646.651 86.616ZM654.011 75.976V85.672H658.539L658.363 87H652.491V75.976H654.011ZM663.141 78.376C664.325 78.376 665.242 78.7707 665.893 79.56C666.554 80.3493 666.885 81.4213 666.885 82.776C666.885 83.6507 666.736 84.424 666.437 85.096C666.138 85.7573 665.706 86.2747 665.141 86.648C664.576 87.0107 663.904 87.192 663.125 87.192C661.941 87.192 661.018 86.7973 660.357 86.008C659.696 85.2187 659.365 84.1467 659.365 82.792C659.365 81.9173 659.514 81.1493 659.813 80.488C660.112 79.816 660.544 79.2987 661.109 78.936C661.674 78.5627 662.352 78.376 663.141 78.376ZM663.141 79.56C661.68 79.56 660.949 80.6373 660.949 82.792C660.949 84.936 661.674 86.008 663.125 86.008C664.576 86.008 665.301 84.9307 665.301 82.776C665.301 80.632 664.581 79.56 663.141 79.56ZM672.389 78.376C672.89 78.376 673.349 78.4507 673.765 78.6C674.181 78.7387 674.581 78.968 674.965 79.288L674.261 80.216C673.962 80.0027 673.669 79.848 673.381 79.752C673.104 79.6453 672.794 79.592 672.453 79.592C671.77 79.592 671.237 79.864 670.853 80.408C670.48 80.952 670.293 81.7573 670.293 82.824C670.293 83.8907 670.48 84.68 670.853 85.192C671.226 85.6933 671.76 85.944 672.453 85.944C672.784 85.944 673.088 85.896 673.365 85.8C673.642 85.6933 673.952 85.528 674.293 85.304L674.965 86.264C674.197 86.8827 673.338 87.192 672.389 87.192C671.248 87.192 670.346 86.808 669.685 86.04C669.034 85.272 668.709 84.2107 668.709 82.856C668.709 81.96 668.858 81.176 669.157 80.504C669.456 79.832 669.877 79.3093 670.421 78.936C670.976 78.5627 671.632 78.376 672.389 78.376ZM682.481 85.032C682.481 85.3733 682.54 85.6293 682.657 85.8C682.775 85.96 682.951 86.0827 683.185 86.168L682.849 87.192C682.412 87.1387 682.06 87.016 681.793 86.824C681.527 86.632 681.329 86.3333 681.201 85.928C680.636 86.7707 679.799 87.192 678.689 87.192C677.857 87.192 677.201 86.9573 676.721 86.488C676.241 86.0187 676.001 85.4053 676.001 84.648C676.001 83.752 676.321 83.064 676.961 82.584C677.612 82.104 678.529 81.864 679.713 81.864H681.009V81.24C681.009 80.6427 680.865 80.216 680.577 79.96C680.289 79.704 679.847 79.576 679.249 79.576C678.631 79.576 677.873 79.7253 676.977 80.024L676.609 78.952C677.655 78.568 678.625 78.376 679.521 78.376C680.513 78.376 681.255 78.6213 681.745 79.112C682.236 79.592 682.481 80.28 682.481 81.176V85.032ZM679.025 86.088C679.868 86.088 680.529 85.6507 681.009 84.776V82.84H679.905C678.348 82.84 677.569 83.416 677.569 84.568C677.569 85.0693 677.692 85.448 677.937 85.704C678.183 85.96 678.545 86.088 679.025 86.088ZM689.76 86.616C689.206 87 688.576 87.192 687.872 87.192C687.158 87.192 686.598 86.9893 686.192 86.584C685.798 86.168 685.6 85.5707 685.6 84.792V79.704H684.128V78.568H685.6V76.664L687.072 76.488V78.568H689.072L688.912 79.704H687.072V84.728C687.072 85.1653 687.147 85.4853 687.296 85.688C687.456 85.88 687.718 85.976 688.08 85.976C688.411 85.976 688.784 85.864 689.2 85.64L689.76 86.616ZM692.758 78.568V87H691.286V78.568H692.758ZM692.006 74.52C692.315 74.52 692.566 74.616 692.758 74.808C692.95 75 693.046 75.24 693.046 75.528C693.046 75.816 692.95 76.056 692.758 76.248C692.566 76.4293 692.315 76.52 692.006 76.52C691.707 76.52 691.462 76.4293 691.27 76.248C691.078 76.056 690.982 75.816 690.982 75.528C690.982 75.24 691.078 75 691.27 74.808C691.462 74.616 691.707 74.52 692.006 74.52ZM698.969 78.376C700.153 78.376 701.071 78.7707 701.721 79.56C702.383 80.3493 702.713 81.4213 702.713 82.776C702.713 83.6507 702.564 84.424 702.265 85.096C701.967 85.7573 701.535 86.2747 700.969 86.648C700.404 87.0107 699.732 87.192 698.953 87.192C697.769 87.192 696.847 86.7973 696.185 86.008C695.524 85.2187 695.193 84.1467 695.193 82.792C695.193 81.9173 695.343 81.1493 695.641 80.488C695.94 79.816 696.372 79.2987 696.937 78.936C697.503 78.5627 698.18 78.376 698.969 78.376ZM698.969 79.56C697.508 79.56 696.777 80.6373 696.777 82.792C696.777 84.936 697.503 86.008 698.953 86.008C700.404 86.008 701.129 84.9307 701.129 82.776C701.129 80.632 700.409 79.56 698.969 79.56ZM709.113 78.376C709.881 78.376 710.478 78.6053 710.905 79.064C711.342 79.5227 711.561 80.152 711.561 80.952V87H710.089V81.16C710.089 80.5627 709.977 80.1413 709.753 79.896C709.529 79.6507 709.198 79.528 708.761 79.528C708.313 79.528 707.918 79.656 707.577 79.912C707.236 80.168 706.916 80.536 706.617 81.016V87H705.145V78.568H706.409L706.537 79.816C706.836 79.368 707.204 79.016 707.641 78.76C708.089 78.504 708.58 78.376 709.113 78.376Z" fill="white"/>
</svg>
