<svg width="98" height="94" viewBox="0 0 98 94" fill="none" xmlns="http://www.w3.org/2000/svg">
<mask id="mask0" mask-type="alpha" maskUnits="userSpaceOnUse" x="61" y="23" width="37" height="49">
<path d="M84.4808 23H98V72H83.7692L61 45.4918L84.4808 23Z" fill="#C4C4C4"/>
</mask>
<g mask="url(#mask0)">
<rect x="5.68965" y="46.6552" width="65.9804" height="65.9804" rx="10" transform="rotate(-45 5.68965 46.6552)" fill="#222222" fill-opacity="0.7"/>
</g>
<rect y="46.6552" width="65.9804" height="65.9804" rx="7" transform="rotate(-45 0 46.6552)" fill="#0CC67B"/>
<g filter="url(#filter0_d)">
<path d="M54.0895 48.0611V57.9552H39.9121V48.0611C40.7249 47.933 41.5414 47.8271 42.3592 47.7446C45.4454 47.4281 48.555 47.4281 51.6412 47.7446C52.459 47.8271 53.2755 47.933 54.0895 48.0611Z" fill="#EF7954"/>
<path d="M57.7403 60.8189V48.7895C56.5312 48.4968 55.3137 48.2535 54.0896 48.061V57.9552H39.9122V48.061C38.6879 48.2535 37.4695 48.4968 36.2602 48.7895V60.8189H33.5735V72.5944H60.4271V60.8189H57.7403Z" fill="#738B93"/>
<path d="M51.6411 47.7446V48.2532C51.6411 50.8123 49.5598 52.8949 47.0007 52.8949C44.4416 52.8949 42.359 50.8123 42.359 48.2532V47.7446C45.4453 47.4281 48.5549 47.4281 51.6411 47.7446Z" fill="#738B93"/>
<path d="M50.41 44.4651V48.2533C50.41 50.1363 48.8841 51.6634 47.0011 51.6634C45.1181 51.6634 43.591 50.1363 43.591 48.2533V44.4651H50.41Z" fill="#F9D8B7"/>
<path d="M50.41 44.4651V47.502C49.3681 47.9786 48.2117 48.2422 47.0023 48.2422H46.9999C45.7893 48.2422 44.6328 47.9786 43.591 47.5008V44.4651H50.41Z" fill="#EDCEB2"/>
<path d="M56.098 32.5105L55.8812 34.1103L55.1423 39.5832C54.593 43.6596 51.114 46.7027 47.0019 46.7027H46.9994C42.8873 46.7027 39.407 43.6596 38.8577 39.5832L38.1188 34.1103L37.9033 32.5105H56.098Z" fill="#F9D8B7"/>
<path d="M37.9033 32.5105L38.1188 34.1103H41.1681L41.6484 34.8455L42.6262 36.343H51.375L52.3529 34.8455L52.8319 34.1103H55.8812L56.098 32.5105H37.9033Z" fill="#EDCEB2"/>
<path d="M57.8794 32.5098H36.1213C36.1213 31.4628 36.2697 30.4503 36.5474 29.493H57.4535C57.731 30.4504 57.8794 31.4629 57.8794 32.5098Z" fill="#EDA856"/>
<path d="M49.8116 20.4031L49.1156 29.4932H44.8859L44.1893 20.4031L44.1424 19.7907C45.0524 19.5402 46.0107 19.4056 47.0005 19.4056C47.9902 19.4056 48.9486 19.5402 49.8585 19.7907L49.8116 20.4031Z" fill="#EDA856"/>
<path d="M52.8326 32.5098L52.3527 33.2449L51.3748 34.742H42.6261L41.6481 33.2449L41.1682 32.5098H52.8326Z" fill="#EDA856"/>
<path d="M44.8859 29.493H49.1157V29.4931H56.5231C56.5231 29.141 56.504 28.793 56.4665 28.4507C56.1005 25.0849 53.9801 22.246 51.0397 20.8671C50.6593 20.6881 50.265 20.534 49.8587 20.4067L49.8115 20.4031L49.1954 28.451H44.8059L44.1893 20.4031L44.1424 20.4067C43.7361 20.534 43.3418 20.6882 42.9613 20.8671C40.0203 22.246 37.9001 25.0849 37.5341 28.4507C37.4964 28.793 37.4774 29.141 37.4774 29.4931H44.8859V29.493Z" fill="#CC731B"/>
<path d="M41.6482 33.2449H52.3528L52.8327 32.5098H41.1682L41.6482 33.2449Z" fill="#CC731B"/>
<path d="M42.9618 20.867L43.6894 28.4507H37.5345C37.9005 25.0849 40.0208 22.246 42.9618 20.867Z" fill="#EDA856"/>
<path d="M56.4667 28.4507H50.3122L51.0398 20.867C53.9805 22.246 56.1007 25.0849 56.4667 28.4507Z" fill="#EDA856"/>
<path d="M36.26 48.7895L30.2941 50.938L27.0005 60.8189H36.26" fill="#EF7954"/>
<path d="M57.7401 48.7895L63.7061 50.938L66.9998 60.8189H57.7401" fill="#EF7954"/>
<path d="M36.2601 60.8188H28.6559V72.5944H36.2601V60.8188Z" fill="#F9D8B7"/>
<path d="M65.3444 60.8188H57.7401V72.5944H65.3444V60.8188Z" fill="#F9D8B7"/>
<path d="M54.0895 61.6609H39.9121V63.9897H54.0895V61.6609Z" fill="#496A72"/>
<path d="M53.2865 63.9897H40.715V71.1437H53.2865V63.9897Z" fill="#496A72"/>
<path d="M53.2865 63.9897H40.715V65.0365H53.2865V63.9897Z" fill="#2D4C51"/>
<path d="M40.2415 53.0402H35.9312V56.3653H40.2415V53.0402Z" fill="#496A72"/>
<path d="M39.379 53.9022H36.7927V55.5032H39.379V53.9022Z" fill="#738B93"/>
<path d="M58.0707 53.0402H53.7604V56.3653H58.0707V53.0402Z" fill="#496A72"/>
<path d="M57.2087 53.9022H54.6225V55.5032H57.2087V53.9022Z" fill="#738B93"/>
<path d="M36.2601 60.8188H28.6559V62.7692H36.2601V60.8188Z" fill="#EDCEB2"/>
<path d="M65.3444 60.8188H57.7401V62.7692H65.3444V60.8188Z" fill="#EDCEB2"/>
</g>
<defs>
<filter id="filter0_d" x="18.0005" y="10.4056" width="57.9993" height="71.1888" filterUnits="userSpaceOnUse" color-interpolation-filters="sRGB">
<feFlood flood-opacity="0" result="BackgroundImageFix"/>
<feColorMatrix in="SourceAlpha" type="matrix" values="0 0 0 0 0 0 0 0 0 0 0 0 0 0 0 0 0 0 127 0"/>
<feOffset/>
<feGaussianBlur stdDeviation="4.5"/>
<feColorMatrix type="matrix" values="0 0 0 0 0 0 0 0 0 0 0 0 0 0 0 0 0 0 0.25 0"/>
<feBlend mode="normal" in2="BackgroundImageFix" result="effect1_dropShadow"/>
<feBlend mode="normal" in="SourceGraphic" in2="effect1_dropShadow" result="shape"/>
</filter>
</defs>
</svg>
