<svg width="30" height="31" viewBox="0 0 30 31" fill="none" xmlns="http://www.w3.org/2000/svg">
<g clip-path="url(#clip0)">
<path d="M29.2128 23.1745L23.1407 19.1222C22.3701 18.6121 21.3372 18.78 20.7675 19.5079L18.9988 21.7837C18.7715 22.0837 18.3583 22.1707 18.0295 21.9879L17.693 21.8022C16.5777 21.1939 15.1899 20.4365 12.3938 17.6374C9.59771 14.8383 8.83933 13.4485 8.23139 12.3344L8.04691 11.9977C7.86172 11.6687 7.94702 11.2534 8.24686 11.0242L10.5195 9.25468C11.2466 8.68453 11.4146 7.65117 10.9054 6.87982L6.85605 0.80337C6.33423 0.0178868 5.28732 -0.217911 4.47949 0.268048L1.94035 1.7944C1.14254 2.26377 0.557215 3.02392 0.307115 3.91558C-0.607223 7.24946 0.0806243 13.0032 8.55039 21.48C15.2879 28.2218 20.3037 30.0349 23.7512 30.0349C24.5446 30.0383 25.3349 29.935 26.1008 29.7277C26.992 29.4777 27.7518 28.8919 28.2205 28.0933L29.7473 25.5539C30.2336 24.7453 29.9981 23.697 29.2128 23.1745ZM28.8859 25.0406L27.3626 27.5815C27.026 28.1579 26.4796 28.5817 25.8378 28.7642C22.7623 29.6092 17.3891 28.9093 9.25774 20.7722C1.12643 12.635 0.427097 7.25849 1.27148 4.18028C1.45403 3.53726 1.87807 2.98974 2.45479 2.6524L4.99392 1.12805C5.34444 0.916989 5.79882 1.01929 6.02525 1.36015L8.22495 4.66501L10.0712 7.43607C10.2923 7.77065 10.2197 8.21909 9.90423 8.46667L7.63107 10.2361C6.9393 10.7655 6.74175 11.7233 7.16766 12.4834L7.34816 12.8116C7.98709 13.9843 8.78145 15.4431 11.6815 18.3448C14.5816 21.2464 16.0389 22.0414 17.2102 22.6807L17.5386 22.8618C18.2982 23.288 19.2553 23.0903 19.7843 22.3981L21.5525 20.1233C21.8 19.8078 22.2479 19.7352 22.5824 19.9562L28.654 24.0085C28.9948 24.2349 29.0971 24.6899 28.8859 25.0406Z" fill="#52B153"/>
<path d="M16.9991 5.02042C21.6907 5.02564 25.4926 8.83035 25.4979 13.5253C25.4979 13.8016 25.7217 14.0255 25.9978 14.0255C26.2739 14.0255 26.4977 13.8016 26.4977 13.5253C26.4919 8.27797 22.2427 4.02564 16.9991 4.0199C16.723 4.0199 16.4992 4.24385 16.4992 4.52016C16.4992 4.79647 16.723 5.02042 16.9991 5.02042Z" fill="#52B153"/>
<path d="M16.9991 8.02213C20.0348 8.02571 22.4947 10.4875 22.4983 13.5253C22.4983 13.8016 22.7222 14.0255 22.9982 14.0255C23.2743 14.0255 23.4981 13.8016 23.4981 13.5253C23.494 9.93507 20.5867 7.02571 16.9991 7.02161C16.723 7.02161 16.4992 7.24556 16.4992 7.52187C16.4992 7.79818 16.723 8.02213 16.9991 8.02213Z" fill="#52B153"/>
<path d="M16.9991 11.0238C18.3789 11.0255 19.4971 12.1444 19.4988 13.5252C19.4988 13.8016 19.7226 14.0255 19.9987 14.0255C20.2747 14.0255 20.4986 13.8016 20.4986 13.5252C20.4963 11.5921 18.9309 10.0255 16.9991 10.0233C16.723 10.0233 16.4992 10.2472 16.4992 10.5235C16.4992 10.7999 16.723 11.0238 16.9991 11.0238Z" fill="#52B153"/>
</g>
<defs>
<clipPath id="clip0">
<rect width="30" height="30.0214" fill="white" transform="translate(0 0.0142517)"/>
</clipPath>
</defs>
</svg>
