<svg width="153" height="74" viewBox="0 0 153 74" fill="none" xmlns="http://www.w3.org/2000/svg">
<path d="M70.1068 14.5104H76.3857C76.4529 14.5023 76.521 14.5097 76.5849 14.532C76.6488 14.5543 76.7069 14.5909 76.7547 14.6391C76.8025 14.6873 76.8389 14.7457 76.861 14.8101C76.8831 14.8745 76.8905 14.9431 76.8825 15.0107V50.2859C76.8915 50.3538 76.8848 50.4228 76.8631 50.4876C76.8413 50.5525 76.805 50.6114 76.7569 50.6598C76.7088 50.7082 76.6504 50.7448 76.586 50.7667C76.5216 50.7886 76.4531 50.7953 76.3857 50.7863H70.1068C70.0394 50.7953 69.9709 50.7886 69.9065 50.7667C69.8422 50.7448 69.7837 50.7082 69.7356 50.6598C69.6876 50.6114 69.6513 50.5525 69.6295 50.4876C69.6077 50.4228 69.601 50.3538 69.61 50.2859V15.0407C69.601 14.9729 69.6077 14.9039 69.6295 14.839C69.6513 14.7742 69.6876 14.7153 69.7356 14.6669C69.7837 14.6185 69.8422 14.5819 69.9065 14.56C69.9709 14.538 70.0394 14.5313 70.1068 14.5404" fill="#8C88A3"/>
<path d="M97.8952 15.1808C98.0293 14.9457 98.0591 14.7805 97.9945 14.6805C97.9699 14.6356 97.934 14.5981 97.8904 14.5717C97.8468 14.5453 97.797 14.5311 97.7461 14.5304H90.2253C90.167 14.5273 90.1088 14.5395 90.0566 14.5658C90.0044 14.5921 89.9598 14.6316 89.9272 14.6805C89.8626 14.7805 79.0632 28.8856 79.0632 28.8856C78.1857 29.9623 77.6647 31.2884 77.573 32.6783C77.665 34.0666 78.1861 35.3911 79.0632 36.466C79.0632 36.466 89.8626 50.5711 89.9123 50.6712C89.9449 50.72 89.9895 50.7595 90.0417 50.7858C90.0939 50.8121 90.1521 50.8244 90.2104 50.8213H97.7312C97.7821 50.8206 97.8319 50.8063 97.8755 50.78C97.9191 50.7536 97.955 50.7161 97.9796 50.6712C98.0442 50.5711 98.0144 50.406 97.8802 50.1708C97.8802 50.1708 85.1733 33.3538 85.059 33.1236C84.9448 32.8935 84.8951 32.8585 84.8852 32.6733C84.8852 32.4882 84.9498 32.4382 85.059 32.223C85.1683 32.0079 97.8802 15.1758 97.8802 15.1758" fill="#1F1646"/>
<path d="M120.239 34.1494H112.952C112.346 34.1494 112.52 33.559 112.52 33.559L116.201 21.4403C116.218 21.348 116.268 21.2649 116.34 21.2051C116.412 21.1453 116.502 21.1126 116.595 21.1126C116.689 21.1126 116.779 21.1453 116.851 21.2051C116.923 21.2649 116.972 21.348 116.99 21.4403L120.671 33.559C120.699 33.6272 120.708 33.7013 120.699 33.7743C120.69 33.8473 120.663 33.9168 120.619 33.976C120.576 34.0352 120.518 34.0823 120.452 34.1126C120.385 34.143 120.312 34.1556 120.239 34.1494ZM133.403 50.5361L123.304 17.5125C122.9 16.1982 122.155 15.3726 121.069 15.0357C119.6 14.652 118.084 14.4835 116.568 14.5354C115.095 14.4858 113.622 14.6544 112.197 15.0357C111.124 15.3693 110.387 16.1949 109.986 17.5125L99.7878 50.5361C99.7878 50.7362 99.9219 50.8363 100.19 50.8363H106.722C106.872 50.8455 107.021 50.8 107.14 50.7081C107.26 50.6163 107.342 50.4842 107.373 50.3359L110.036 41.6798C110.059 41.5225 110.138 41.3791 110.259 41.2768C110.38 41.1744 110.534 41.1202 110.692 41.1244H122.499C122.65 41.117 122.798 41.1631 122.917 41.2546C123.037 41.346 123.121 41.4771 123.155 41.6247L125.818 50.381C125.856 50.5213 125.943 50.6436 126.062 50.7268C126.18 50.8099 126.324 50.8486 126.468 50.8363H133.05C133.284 50.8363 133.403 50.7362 133.403 50.5361Z" fill="#8C88A3"/>
<path d="M47.4151 43.7362V36.396C47.4071 36.3283 47.4144 36.2598 47.4366 36.1954C47.4587 36.131 47.4951 36.0725 47.5429 36.0244C47.5907 35.9762 47.6488 35.9396 47.7127 35.9173C47.7766 35.895 47.8447 35.8876 47.9118 35.8956H63.341C63.4083 35.9047 63.4769 35.898 63.5412 35.8761C63.6056 35.8541 63.6641 35.8175 63.7121 35.7691C63.7602 35.7207 63.7965 35.6618 63.8183 35.597C63.8401 35.5321 63.8467 35.4631 63.8377 35.3953V29.5661C63.8467 29.4983 63.8401 29.4292 63.8183 29.3644C63.7965 29.2996 63.7602 29.2407 63.7121 29.1923C63.6641 29.1439 63.6056 29.1073 63.5412 29.0853C63.4769 29.0634 63.4083 29.0567 63.341 29.0658H47.9168C47.8496 29.0738 47.7816 29.0664 47.7176 29.0441C47.6537 29.0218 47.5957 28.9852 47.5479 28.937C47.5 28.8888 47.4637 28.8304 47.4416 28.766C47.4194 28.7016 47.4121 28.633 47.4201 28.5654V21.6705C47.4201 21.3002 47.5889 21.1101 47.9168 21.1101H64.5779C64.6453 21.1191 64.7138 21.1124 64.7782 21.0905C64.8425 21.0686 64.901 21.032 64.9491 20.9836C64.9971 20.9352 65.0334 20.8763 65.0552 20.8114C65.077 20.7466 65.0837 20.6776 65.0747 20.6097V15.0407C65.0747 14.7072 64.8561 14.5404 64.4189 14.5404H40.6344C40.5672 14.5323 40.4991 14.5397 40.4352 14.562C40.3713 14.5843 40.3133 14.621 40.2655 14.6691C40.2176 14.7173 40.1813 14.7758 40.1592 14.8401C40.137 14.9045 40.1297 14.9731 40.1377 15.0407V50.3159C40.1287 50.3838 40.1353 50.4528 40.1571 50.5176C40.1789 50.5825 40.2152 50.6414 40.2632 50.6898C40.3113 50.7382 40.3698 50.7748 40.4342 50.7967C40.4985 50.8187 40.567 50.8253 40.6344 50.8163H64.5779C64.6453 50.8253 64.7138 50.8187 64.7782 50.7967C64.8425 50.7748 64.901 50.7382 64.9491 50.6898C64.9971 50.6414 65.0334 50.5825 65.0552 50.5176C65.077 50.4528 65.0837 50.3838 65.0747 50.3159V44.747C65.0826 44.6793 65.0753 44.6107 65.0532 44.5464C65.031 44.482 64.9947 44.4235 64.9468 44.3753C64.899 44.3272 64.841 44.2906 64.7771 44.2683C64.7132 44.246 64.6451 44.2386 64.5779 44.2466H47.9168C47.4201 44.2466 47.4201 43.9114 47.4201 43.7462" fill="#1F1646"/>
<path d="M28.4739 38.9678C28.4739 40.3665 27.9223 41.7079 26.9404 42.6969C25.9585 43.686 24.6267 44.2416 23.2381 44.2416H14.9026C14.8352 44.2507 14.7667 44.244 14.7023 44.222C14.638 44.2001 14.5795 44.1635 14.5314 44.1151C14.4834 44.0667 14.4471 44.0078 14.4253 43.9429C14.4035 43.8781 14.3968 43.8091 14.4058 43.7412V21.6204C14.3968 21.5526 14.4035 21.4836 14.4253 21.4187C14.4471 21.3539 14.4834 21.295 14.5314 21.2466C14.5795 21.1982 14.638 21.1616 14.7023 21.1397C14.7667 21.1177 14.8352 21.111 14.9026 21.1201H22.9152C24.3899 21.1214 25.8038 21.7124 26.8461 22.7632C27.8884 23.814 28.4739 25.2387 28.4739 26.7241V38.9678ZM35.8358 40.0786V26.4139C35.8384 24.8516 35.5352 23.3042 34.9434 21.8601C34.3517 20.416 33.4831 19.1036 32.3873 17.998C31.2915 16.8924 29.99 16.0153 28.5573 15.4168C27.1247 14.8184 25.5889 14.5104 24.0379 14.5104H7.69471C7.62755 14.5023 7.55945 14.5097 7.49555 14.532C7.43164 14.5543 7.37359 14.5909 7.32577 14.6391C7.27795 14.6873 7.2416 14.7457 7.21946 14.8101C7.19732 14.8745 7.18997 14.9431 7.19795 15.0107V50.2859C7.18896 50.3538 7.19561 50.4228 7.21739 50.4876C7.23917 50.5525 7.2755 50.6114 7.32355 50.6598C7.3716 50.7082 7.43009 50.7448 7.49446 50.7667C7.55883 50.7886 7.62735 50.7953 7.69471 50.7863H25.1705C27.9931 50.7863 30.7006 49.6593 32.6997 47.6522C34.6988 45.6451 35.8266 42.9217 35.8358 40.0786Z" fill="#1F1646"/>
<path d="M146.304 65.0765C146.249 65.2266 146.13 65.5518 145.941 66.0522C145.809 66.4319 145.643 66.7987 145.444 67.148C145.32 67.3513 145.149 67.5226 144.948 67.6483C144.764 67.7612 144.552 67.8185 144.337 67.8134C144.05 67.8164 143.764 67.7793 143.487 67.7034V68.2938C143.767 68.3835 144.058 68.4323 144.352 68.4389C144.655 68.4456 144.956 68.3823 145.231 68.2538C145.483 68.1216 145.701 67.9313 145.867 67.6984C146.146 67.251 146.373 66.7725 146.542 66.2723L149.856 57.6111H149.16L147.595 61.7541C147.168 62.9249 146.855 63.8056 146.666 64.391H146.622C146.499 63.944 146.198 63.0784 145.718 61.7941L144.153 57.6111H143.457L146.304 65.0765ZM140.989 64.1959C140.76 63.8155 140.654 63.3733 140.685 62.9299V58.2116H142.861V57.6212H140.685V55.8199H140.343L140 57.5061L138.907 57.8163V58.2116H140V63.045C139.95 63.6375 140.116 64.228 140.467 64.7062C140.656 64.8931 140.883 65.0368 141.133 65.1274C141.382 65.2181 141.648 65.2536 141.912 65.2316C142.304 65.2338 142.693 65.1712 143.065 65.0465V64.5011C142.697 64.576 142.322 64.6112 141.947 64.6061C141.769 64.621 141.59 64.5913 141.427 64.5198C141.263 64.4482 141.119 64.3369 141.008 64.1959H140.989ZM137.104 56.1901C137.17 56.1932 137.235 56.1787 137.294 56.1479C137.352 56.1171 137.402 56.0713 137.437 56.015C137.526 55.8642 137.567 55.6898 137.556 55.5146C137.569 55.3394 137.528 55.1643 137.437 55.0143C137.401 54.9593 137.351 54.9147 137.293 54.8849C137.234 54.8551 137.169 54.841 137.104 54.8442C136.821 54.8442 136.677 55.0643 136.677 55.4996C136.677 55.935 136.821 56.1651 137.104 56.1651V56.1901ZM137.447 57.5711H136.771V65.0264H137.447V57.5711ZM134.223 54.3588H133.552V65.0264H134.223V54.3588ZM130.646 56.2152C130.711 56.2179 130.776 56.2031 130.834 56.1723C130.891 56.1415 130.94 56.0959 130.974 56.04C131.063 55.8893 131.105 55.7148 131.093 55.5397C131.107 55.3644 131.065 55.1893 130.974 55.0393C130.938 54.9851 130.889 54.941 130.832 54.9112C130.775 54.8814 130.711 54.8669 130.646 54.8692C130.358 54.8692 130.214 55.0893 130.214 55.5247C130.214 55.96 130.358 56.1901 130.646 56.1901V56.2152ZM130.984 57.5961H130.308V65.0515H130.984V57.5961ZM127.477 61.2988C127.529 62.1536 127.316 63.0037 126.866 63.7305C126.657 64.0144 126.38 64.2409 126.062 64.3895C125.743 64.5381 125.393 64.604 125.043 64.5811C124.701 64.6109 124.357 64.5604 124.038 64.4337C123.719 64.3069 123.434 64.1073 123.205 63.8506C122.811 63.3603 122.615 62.553 122.619 61.4289V61.3138C122.619 60.1563 122.807 59.3224 123.185 58.812C123.413 58.5439 123.702 58.3352 124.027 58.2036C124.352 58.0721 124.704 58.0216 125.053 58.0565C126.669 58.0565 127.477 59.1322 127.477 61.2838V61.2988ZM123.637 57.7813C123.223 58.019 122.879 58.3647 122.643 58.782H122.594V58.1966C122.614 57.863 122.624 57.4927 122.624 57.0858V54.4089H121.948V65.0765H122.37L122.559 63.9507H122.624C122.863 64.3478 123.207 64.67 123.617 64.8813C124.059 65.1059 124.548 65.2192 125.043 65.2116C125.48 65.2364 125.917 65.159 126.319 64.9854C126.722 64.8118 127.079 64.5467 127.363 64.2109C127.963 63.3819 128.256 62.3677 128.192 61.3438C128.263 60.3228 127.986 59.3081 127.407 58.4668C127.122 58.1278 126.761 57.8608 126.355 57.6871C125.949 57.5133 125.508 57.4376 125.068 57.466C124.572 57.4521 124.081 57.5603 123.637 57.7813ZM116.076 57.2809C116.232 56.8917 116.366 56.4942 116.479 56.0901C116.638 56.5904 116.772 56.9857 116.886 57.2709L118.237 60.8835H114.68L116.076 57.2809ZM119.852 65.0515H120.637L116.737 55.0093H116.295L112.266 65.0765H113.036L114.422 61.539H118.466L119.852 65.0515ZM106.439 58.787C106.838 59.3746 107.033 60.0779 106.996 60.7884H102.426C102.441 60.04 102.707 59.3188 103.181 58.742C103.398 58.5054 103.664 58.3193 103.96 58.1966C104.256 58.0739 104.575 58.0176 104.894 58.0315C105.191 58.0192 105.487 58.0791 105.756 58.2063C106.025 58.3335 106.259 58.5241 106.439 58.762V58.787ZM106.26 65.0615C106.66 64.9826 107.048 64.8567 107.418 64.6862V64.0708C107.027 64.2365 106.621 64.3654 106.206 64.456C105.838 64.52 105.466 64.5501 105.093 64.5461C104.723 64.569 104.352 64.5081 104.008 64.3679C103.664 64.2276 103.356 64.0115 103.106 63.7355C102.594 63.0658 102.34 62.2324 102.391 61.3888H107.721V60.8935C107.773 59.9956 107.505 59.1085 106.966 58.3917C106.715 58.0895 106.399 57.8497 106.041 57.6909C105.684 57.5321 105.295 57.4585 104.904 57.4761C104.457 57.458 104.012 57.5454 103.604 57.7313C103.196 57.9172 102.837 58.1964 102.555 58.5468C101.94 59.3666 101.633 60.3782 101.685 61.4039C101.621 62.419 101.942 63.4209 102.584 64.2059C102.908 64.5461 103.3 64.8117 103.735 64.9845C104.17 65.1572 104.636 65.233 105.103 65.2066C105.494 65.2089 105.885 65.1754 106.27 65.1065L106.26 65.0615ZM98.3571 64.1959C98.1308 63.8149 98.0267 63.3728 98.0591 62.9299V58.2116H100.23V57.6212H98.0591V55.8199H97.7113L97.3736 57.5061L96.2757 57.8163V58.2116H97.3736V63.045C97.3236 63.6375 97.4896 64.228 97.8405 64.7062C98.0294 64.894 98.2564 65.0382 98.506 65.1289C98.7556 65.2196 99.0217 65.2546 99.2861 65.2316C99.6683 65.2381 100.049 65.1824 100.414 65.0665V64.5211C100.046 64.596 99.6712 64.6312 99.296 64.6262C99.1181 64.6402 98.9396 64.6101 98.7759 64.5386C98.6123 64.467 98.4685 64.3562 98.3571 64.2159V64.1959ZM90.4588 64.2159C90.3134 64.0771 90.1998 63.9081 90.1261 63.7205C90.0523 63.533 90.02 63.3315 90.0315 63.1301C90.0156 62.8743 90.0692 62.619 90.1865 62.3916C90.3038 62.1641 90.4803 61.9732 90.6972 61.8392C91.388 61.4989 92.1488 61.3275 92.9177 61.3388L94.2142 61.2838V62.0443C94.2445 62.3899 94.1993 62.7381 94.0817 63.0642C93.9642 63.3903 93.7772 63.6866 93.5339 63.9322C93.2905 64.1778 92.9967 64.3667 92.6732 64.4857C92.3496 64.6048 92.0041 64.651 91.6609 64.6212C91.2256 64.6489 90.796 64.5095 90.4588 64.2309V64.2159ZM94.8799 65.1015V60.143C94.9444 59.4226 94.729 58.7051 94.2788 58.1415C94.0353 57.9137 93.7477 57.7391 93.4339 57.6289C93.1201 57.5186 92.787 57.4751 92.4557 57.5011C91.6204 57.5127 90.7979 57.7091 90.0464 58.0765L90.2998 58.6669C90.9534 58.304 91.6847 58.1065 92.4309 58.0915C92.6868 58.068 92.9447 58.1046 93.1843 58.1984C93.4239 58.2921 93.6387 58.4405 93.8118 58.6319C94.1283 59.1042 94.2787 59.6696 94.239 60.238V60.7384L92.8332 60.7784C91.9205 60.7406 91.0154 60.9608 90.2203 61.4139C89.9357 61.5921 89.7028 61.8428 89.5449 62.1405C89.3871 62.4383 89.3099 62.7727 89.3212 63.1101C89.3042 63.3977 89.3492 63.6857 89.4529 63.9543C89.5567 64.2229 89.7168 64.4657 89.9223 64.6662C90.3965 65.0651 91.0045 65.2656 91.6212 65.2266C92.1018 65.2381 92.5783 65.1353 93.0121 64.9264C93.4631 64.682 93.8549 64.3403 94.1596 63.9257H94.2142L94.3831 65.1065L94.8799 65.1015ZM87.4286 65.1015V60.223C87.4286 58.4117 86.589 57.5061 84.91 57.5061C83.6847 57.5061 82.8303 57.893 82.3468 58.6669H82.307L82.1779 57.6662H81.6016V65.1215H82.2772V61.0086C82.2066 60.2265 82.426 59.4458 82.8932 58.817C83.1518 58.5735 83.4584 58.3875 83.793 58.2711C84.1276 58.1547 84.4828 58.1106 84.8355 58.1415C85.0994 58.1174 85.3654 58.1494 85.6161 58.2356C85.8669 58.3218 86.0968 58.4603 86.291 58.6419C86.6542 59.1053 86.8315 59.6892 86.7877 60.2781V65.1115L87.4286 65.1015ZM79.1377 65.1015V60.223C79.1377 58.4117 78.2982 57.5061 76.6192 57.5061C75.3922 57.5061 74.5328 57.8913 74.056 58.6669H74.0162L73.8871 57.6662H73.3208V65.1215H74.0162V61.0086C73.9456 60.2265 74.165 59.4458 74.6322 58.817C74.8908 58.5735 75.1974 58.3875 75.532 58.2711C75.8666 58.1547 76.2218 58.1106 76.5745 58.1415C76.8384 58.1174 77.1043 58.1494 77.3551 58.2356C77.6059 58.3218 77.8358 58.4603 78.03 58.6419C78.3932 59.1053 78.5705 59.6892 78.5267 60.2781V65.1115L79.1377 65.1015ZM70.5936 55.0944H69.8981V65.1015H70.5936V55.0944Z" fill="#51534A"/>
</svg>
