<svg xmlns="http://www.w3.org/2000/svg" width="315" height="267"><defs><clipPath id="a"><path fill="#fff" d="M155-7s61 9 112 43c46.898 31.265 61.379 52.852 59 88-3.154 46.6-91.239 65.025-181 15-107.634-59.988-175.361-7.21-170 15 7 29 15 54.823 90 66 74.87 11.156 83 71 83 71"/></clipPath></defs><path fill="none" stroke="#d695b3" stroke-dasharray="4 2" stroke-miterlimit="50" stroke-width="2" d="M155-7v0s61 9 112 43c46.898 31.265 61.379 52.852 59 88-3.154 46.6-91.239 65.025-181 15-107.634-59.988-175.361-7.21-170 15 7 29 15 54.823 90 66 74.87 11.156 83 71 83 71v0" clip-path="url(&quot;#a&quot;)" opacity=".72"/></svg>