<svg width="25" height="20" viewBox="0 0 25 20" fill="none" xmlns="http://www.w3.org/2000/svg">
<path d="M22.8027 0.93573H2.19728C1.85905 0.93573 1.5424 1.01853 1.25592 1.155L12.4512 12.3023L14.9604 9.90115C14.9604 9.90115 14.9606 9.9009 14.9607 9.90081C14.9607 9.90071 14.9609 9.90061 14.9609 9.90061L23.7444 1.1552C23.4579 1.01863 23.1411 0.93573 22.8027 0.93573Z" fill="#F1403B"/>
<path d="M24.7801 2.18655L16.5143 10.4165L24.7798 18.6465C24.9169 18.3613 25 18.046 25 17.7092V3.12354C25 2.78695 24.917 2.4717 24.7801 2.18655Z" fill="#F1403B"/>
<path d="M0.220215 2.18622C0.0831543 2.47147 0 2.78676 0 3.12354V17.7092C0 18.0458 0.0830567 18.3611 0.22002 18.6463L8.48579 10.4164L0.220215 2.18622Z" fill="#F1403B"/>
<path d="M15.4786 11.4478L12.969 13.8492C12.826 13.9916 12.6386 14.0629 12.4512 14.0629C12.2639 14.0629 12.0764 13.9916 11.9334 13.8492L9.52147 11.4477L1.25555 19.6776C1.54208 19.8142 1.85892 19.8971 2.19725 19.8971H22.8027C23.141 19.8971 23.4576 19.8143 23.7441 19.6778L15.4786 11.4478Z" fill="#F1403B"/>
</svg>
