<svg width="18" height="19" viewBox="0 0 18 19" fill="none" xmlns="http://www.w3.org/2000/svg">
<path d="M16.5789 12.7322C15.4686 12.7322 14.3811 12.5596 13.3503 12.2209C12.8473 12.0483 12.276 12.1813 11.9454 12.5171L9.9019 14.0538C7.55716 12.8077 6.05653 11.3144 4.82212 8.99672L6.32369 7.01011C6.70169 6.63373 6.83718 6.08282 6.67518 5.56685C6.33222 4.53392 6.15791 3.45006 6.15791 2.34639C6.15791 1.56626 5.52035 0.931427 4.73686 0.931427H1.42105C0.637565 0.931427 0 1.56626 0 2.34639C0 11.4484 7.4378 18.8543 16.5789 18.8543C17.3624 18.8543 18 18.2195 18 17.4393V14.1472C18 13.3671 17.3624 12.7322 16.5789 12.7322Z" fill="#F1403B"/>
</svg>
