<svg xmlns="http://www.w3.org/2000/svg" width="40" height="25" fill="#4af6cd" xmlns:v="https://vecta.io/nano"><path d="M26.358 4.754l.263-.236.5-.47c.16-.166.352-.276.52-.417l.51-.4 1.007-.662.944-.525.434-.224.41-.18c.52-.24.95-.387 1.247-.495l.472-.15a.18.18 0 0 0 .116-.116c.03-.095-.023-.196-.116-.226 0 0-.18-.057-.51-.116l-.613-.08-.84-.04c-.158.002-.326-.002-.5.008l-.547.05c-.386.027-.8.115-1.23.204-.224.037-.442.106-.67.176l-.706.22-1.46.65-.743.43-.38.228-.362.264-.738.56c-.26.183-.465.42-.703.638l-.7.685-.63.77-.617.81-.53.883-.505.918-.42 1.002-.404 1.016-.537 1.915-.15.53-.118.437-.12.44-.158.424-.158.427c-.055.14-.125.274-.186.414a12.42 12.42 0 0 1-1.975 3.037 14.84 14.84 0 0 1-2.693 2.38c-.976.677-2.008 1.22-3.022 1.677s-2.02.806-2.967 1.082c-1.893.557-3.542.813-4.696.962l-1.823.155c-.085.002-.158.065-.17.15-.012.095.055.183.15.195h.003s.68.086 1.87.11l2.153-.045 2.79-.306c2.03-.342 4.422-.962 6.775-2.242 1.174-.637 2.337-1.436 3.374-2.434 1.04-.99 1.963-2.16 2.694-3.444l.276-.482.244-.495.457-1.006.21-.5.052-.128.027-.063.007-.017c.022-.065-.023.07-.017.052l.012-.028.098-.23.396-.916.394-.91.42-.756.392-.75.447-.73.424-.73.464-.673.447-.668.485-.607.238-.3a2.29 2.29 0 0 1 .243-.288l.505-.535.24-.264z"/><path fill-rule="evenodd" d="M38.83 23.45l1.007.422c.063.023.096.093.072.153s-.08.086-.138.076l-1.08-.25c-.685-.17-1.65-.466-2.79-.893l-.275-.107-.61-.242-.936-.41-.972-.48-.992-.557-.318-.203-.682-.434-.703-.52-.28-.212-.948-.83-.268-.28-.617-.657-.404-.517-.2-.26-.14-.178c-.003-.005.015.026-.033-.055l-.005-.008-.042-.063-.326-.5-.1-.153a2.46 2.46 0 0 1-.224-.382l-.153-.306c-.16-.317-.324-.637-.4-.964l-.043-.13-.156-.514-.108-.673-.016-.13-.022-.205.003-.342.006-.194.032-.48.1-.5.032-.15c.026-.144.082-.284.138-.42l.08-.204.12-.3c.03-.064.066-.126.103-.187l.055-.092.1-.164.235-.363.032-.038c.256-.3.5-.586.797-.798.216-.196.468-.33.705-.454l.197-.106c.113-.05.228-.09.34-.126L29.15 8c.132-.045.258-.088.393-.1.572-.115 1.077-.083 1.464-.005l.507.13.35.16.274.143c.06.035.08.11.045.17-.02.035-.053.057-.1.06l-.017.003-.29.043-.263.035-.066.008-.133.038-.29.08c-.106.017-.215.068-.327.12l-.156.07a1.48 1.48 0 0 0-.338.176l-.17.103c-.117.07-.226.162-.335.256l-.16.133-.154.168c-.1.105-.2.2-.28.344-.276.36-.465.813-.572 1.303a1.49 1.49 0 0 1-.03.136c-.02.077-.04.154-.038.24l-.006.09-.028.306c-.006.073-.002.15.002.227l.005.188v.052l-.002.16c.002.05.01.1.018.15l.01.067.043.447.1.462a3.84 3.84 0 0 0 .147.591l.094.327c.017.102.077.233.138.364l.07.155.246.543.03.068.003.005.003.007.068.116.14.23.28.465.67.876.758.818.813.756.28.234.562.466.86.637.854.577.833.52.512.296.286.163 1.435.745 1.135.53zm-9.5-7.466l.007.013.003.003z"/><path d="M31.488 2.852c-.78.16-1.275.366-1.275.366-.032.013-.057.045-.057.08-.002.048.038.088.086.088.002 0 .517.003 1.277.1.38.037.814.113 1.273.193l1.405.342.346.115.33.146.633.27.617.155.583.093c.184.028.364.038.527.047l.43.027c.25.005.417-.013.417-.013h.007l.023-.005a.11.11 0 0 0 .065-.14s-.055-.15-.2-.374a3.49 3.49 0 0 0-.268-.386 3.2 3.2 0 0 0-.416-.416c-.08-.073-.168-.143-.26-.213l-.3-.186a2.49 2.49 0 0 0-.7-.31 3.2 3.2 0 0 0-.796-.128l-.824-.05c-.273-.025-.545-.022-.8-.027s-.53.02-.78.033l-.72.085-.635.116zm5.622 6.15l.426.218.414.218c.013.007.028.01.045.01.053-.002.096-.047.096-.1l-.003-.128c-.005-.083-.01-.208-.043-.36s-.08-.336-.173-.53a3.01 3.01 0 0 0-.357-.625l-.258-.317-.308-.304a3.58 3.58 0 0 0-.753-.525c-.28-.143-.6-.248-.904-.326L34.348 6c-.625-.145-1.25-.246-1.837-.293a15.37 15.37 0 0 0-1.599-.06c-.933.012-1.546.105-1.546.105a.09.09 0 0 0-.075.07c-.008.048.022.095.07.103l1.476.346 1.47.435L33.1 7l.803.327a5.97 5.97 0 0 1 .75.406l.68.422.652.32.595.278.517.25zm-.928 2.087c-.063-.13-.153-.254-.253-.386a1.62 1.62 0 0 0-.364-.341c-.14-.1-.3-.16-.477-.224l-.505-.173-.98-.274a7.55 7.55 0 0 0-.866-.128c-.505-.052-.848-.03-.848-.03-.025.002-.048.017-.062.042-.017.037-.002.08.035.096l.733.367.715.414.384.243.382.26a3.73 3.73 0 0 1 .344.299c.1.1.208.208.3.3s.224.138.334.194.226.1.334.143l.313.1.266.086a2.56 2.56 0 0 0 .276.068l.005.002c.052.01.1-.025.1-.076 0 0 .02-.1.008-.3a1.54 1.54 0 0 0-.05-.319c-.035-.115-.08-.24-.146-.374h0z"/></svg>