<svg width="14" height="14" viewBox="0 0 14 14" fill="none" xmlns="http://www.w3.org/2000/svg">
<path d="M7 0C3.13399 0 0 3.13399 0 7C0 10.866 3.13399 14 7 14C10.866 14 14 10.866 14 7C14 3.13399 10.866 0 7 0ZM7 12.4444C3.9931 12.4444 1.55557 10.0069 1.55557 7C1.55557 3.99314 3.9931 1.55557 7 1.55557C10.0069 1.55557 12.4444 3.9931 12.4444 7C12.4444 10.0069 10.0069 12.4444 7 12.4444Z" fill="#FF681D"/>
<path d="M9.40834 4.14832L6.17784 7.76243L4.56379 6.21306L3.48656 7.33525L6.26341 10.0009L10.5681 5.18497L9.40834 4.14832Z" fill="#FF681D"/>
</svg>
