<svg xmlns="http://www.w3.org/2000/svg" xmlns:xlink="http://www.w3.org/1999/xlink" width="34" height="31" fill="none" xmlns:v="https://vecta.io/nano"><g fill="#546d79"><path d="M0 30.492c0 .28.233.508.518.508H18.73c-.058-.16-.09-.33-.09-.508v-.508h-4.7c.347-.424.557-.953.557-1.525 0-1.403-1.237-2.54-2.762-2.54h-.344v-1.27h2.415c.383 0 .69-.305.69-.684v-4.7c0-.376-.274-.826-.61-1l-.15-.08 2.568-5 .2.018 1.805 6.415c-.322.155-.62.363-.875.626a3 3 0 0 0-.863 2.174c.018.814.357 1.573.957 2.137a3.12 3.12 0 0 0 2.147.847h.067c.83-.018 1.602-.35 2.177-.94a3 3 0 0 0 .863-2.175c-.018-.814-.357-1.573-.957-2.137s-1.388-.858-2.216-.848l-.306.022-1.798-6.38c.523-.312.875-.877.875-1.52 0-.98-.813-1.78-1.812-1.78s-1.812.798-1.812 1.78a1.72 1.72 0 0 0 .057.434l-4.267 4.673-1.393-.717c-.093-.048-.2-.07-.305-.07-.285 0-.564.16-.564.435v1.1H3.782c-.658 0-1.193.506-1.193 1.126v1.924H.69c-.383 0-.69.308-.69.684v2.953c0 .38.308.684.69.684h7.593v1.27H2.762C1.237 25.918 0 27.056 0 28.46c0 .572.2 1.1.557 1.525h-.04c-.285 0-.518.23-.518.508zm9.32-1.525c-.286 0-.518-.227-.518-.508s.232-.508.518-.508.518.227.518.508-.232.508-.518.508zm1.036-3.05H9.32v-1.27h1.036v1.27zm1.553 2.54c0 .28-.232.508-.518.508s-.518-.227-.518-.508.232-.508.518-.508.518.227.518.508zm3.432-15.645l-2.522 4.898-1.325-.682 3.847-4.215zM1.036 23.63v-2.287H9.32V17.06l4.065 2.09c.03.027.067.1.078.128v4.353H1.036zm6.213 4.32c.286 0 .518.227.518.508s-.232.508-.518.508-.518-.227-.518-.508.232-.508.518-.508zm-2.07 0c.286 0 .518.227.518.508s-.232.508-.518.508-.518-.227-.518-.508.232-.508.518-.508zm-2.07 0c.286 0 .518.227.518.508s-.232.508-.518.508-.518-.227-.518-.508.232-.508.518-.508z"/><use xlink:href="#B"/><use xlink:href="#B" x="2.589"/><use xlink:href="#B" y="2.033"/><use xlink:href="#B" x="2.589" y="2.033"/><use xlink:href="#B" y="4.065"/><use xlink:href="#B" x="2.589" y="4.065"/><use xlink:href="#B" y="6.099"/><use xlink:href="#B" x="2.589" y="6.099"/><use xlink:href="#B" y="8.131"/><use xlink:href="#B" x="2.589" y="8.131"/><use xlink:href="#B" y="10.165"/><use xlink:href="#B" x="2.589" y="10.165"/><use xlink:href="#B" x="2.589" y="12.197"/><use xlink:href="#B" x="2.589" y="14.23"/><use xlink:href="#B" x="2.589" y="16.263"/><path d="M21.747 26.172c0 .28.232.508.518.508h.518c.286 0 .518-.227.518-.508s-.232-.508-.518-.508h-.518c-.286 0-.518.227-.518.508z"/><use xlink:href="#B" x="2.589" y="18.295"/><use xlink:href="#B" y="20.328"/><use xlink:href="#B" x="2.589" y="20.328"/></g><path d="M11.4 19.82c-.286 0-.518.227-.518.508v.508c0 .28.232.508.518.508s.518-.227.518-.508v-.508c0-.28-.232-.508-.518-.508zm4.424 5.23l-.777.762c-.202.198-.202.52 0 .72a.52.52 0 0 0 .366.149.52.52 0 0 0 .366-.149l.777-.762c.202-.198.202-.52 0-.72s-.53-.198-.733 0zM17.4 26.2l-.518 1.016c-.128.252-.025.556.232.682.074.037.153.053.232.053a.52.52 0 0 0 .463-.281l.518-1.016c.128-.252.024-.556-.232-.682s-.567-.024-.695.227zM16.247 4.073a.52.52 0 0 0 .717.148l1.183-.755c.148-.094.236-.254.236-.426s-.1-.333-.236-.426l-1.183-.755c-.24-.152-.56-.086-.716.15a.5.5 0 0 0 .153.703l.515.328-.515.33a.5.5 0 0 0-.154.704zM3.372 13.848c-.3 0-.52.224-.524.502v.133c0 .28.232.508.518.508s.518-.227.518-.508l.001-.12c.003-.28-.227-.5-.513-.514zm2.294-6.22a.52.52 0 0 0 .728-.073l.155-.183a.5.5 0 0 0-.058-.717c-.217-.182-.545-.156-.73.057l-.17.2a.5.5 0 0 0 .074.715zM7.27 5.255l-.203.17a.5.5 0 0 0-.053.717.52.52 0 0 0 .392.175.52.52 0 0 0 .339-.125l.184-.152A.5.5 0 0 0 8 5.325a.53.53 0 0 0-.73-.069zm1.742-1.18l-.228.13c-.246.144-.326.456-.18.698a.52.52 0 0 0 .445.248.53.53 0 0 0 .265-.071l.2-.12a.5.5 0 0 0 .194-.692c-.14-.244-.46-.332-.708-.193zm1.925-.864l-.25.1c-.268.1-.402.393-.3.656a.52.52 0 0 0 .668.296l.226-.08c.27-.094.4-.384.316-.65a.52.52 0 0 0-.661-.31zm2.05-.52l-.26.046a.51.51 0 0 0-.413.593c.047.244.264.414.5.414.032 0 .065-.003.097-.01l.238-.042a.51.51 0 0 0 .426-.584c-.047-.277-.315-.465-.595-.418zM4.07 12.467a.51.51 0 0 0-.416-.592c-.28-.05-.55.13-.603.408l-.045.255c-.047.277.145.54.427.583a.48.48 0 0 0 .084.006c.25 0 .47-.177.5-.427l.043-.234zm1.233-3.34l.122-.207a.5.5 0 0 0-.184-.695c-.247-.142-.564-.062-.7.18l-.13.225c-.14.245-.052.555.198.692a.52.52 0 0 0 .254.065c.18-.001.357-.095.452-.26zm-.796 1.733l.083-.225c.1-.263-.036-.557-.303-.654a.52.52 0 0 0-.667.297l-.1.245c-.094.265.048.555.317.648a.54.54 0 0 0 .171.029.52.52 0 0 0 .489-.34zm10.468-8.327l-.136.001a.51.51 0 0 0-.51.515c.005.28.234.502.518.502h.13c.286 0 .518-.227.518-.508s-.232-.508-.518-.508z" fill="#7d8f97"/><path d="M23.3 20.074c0-.28-.232-.508-.518-.508h-.106a4.1 4.1 0 0 1 .566.737.49.49 0 0 0 .058-.229zM24.854 0v1.78H23.3c-.857 0-1.553.684-1.553 1.525V4.32h1.036V3.303c0-.28.233-.508.518-.508h1.553V4.32h1.553a2.6 2.6 0 0 1 1.121.254h.432c.285 0 .518.23.518.508a.49.49 0 0 1-.044.203 2.5 2.5 0 0 1 .562 1.575V30.5c0 .178-.034.35-.1.508h3.715c.285 0 .518-.23.518-.508V0" fill="#546d79"/><g fill="#eceff1"><use xlink:href="#C"/><use xlink:href="#C" y="-2.032"/><use xlink:href="#C" x="2.59" y="24.393"/><use xlink:href="#C" x="2.59" y="22.361"/><use xlink:href="#C" x="2.59" y="20.328"/><use xlink:href="#C" x="2.59" y="18.296"/><use xlink:href="#C" x="2.59" y="16.263"/><use xlink:href="#C" x="2.59" y="14.23"/><use xlink:href="#C" x="2.59" y="12.197"/><use xlink:href="#C" x="2.59" y="10.163"/><use xlink:href="#C" x="2.59" y="8.133"/><use xlink:href="#C" x="2.59" y="6.099"/><use xlink:href="#C" x="2.59" y="4.066"/><use xlink:href="#C" x="2.59" y="2.043"/><use xlink:href="#C" x="2.59"/><use xlink:href="#C" x="2.59" y="-2.032"/></g><path d="M26.407 5.336H21.23c-.857 0-1.553.684-1.553 1.525v3.98a.46.46 0 0 0 .013.111l.405 1.79c.047.204.05.578.01.784l-.417 2.043c-.006.033-.01.066-.01.1v2.625a4.21 4.21 0 0 1 1.036.133v-2.71l.407-1.993c.07-.344.065-.86-.013-1.204l-.394-1.737V6.86c0-.28.232-.508.518-.508h5.178c.286 0 .518.227.518.508v23.123H20.71v-3.69a4.21 4.21 0 0 1-1.036.133v4.066c0 .28.232.508.518.508h7.25c.286 0 .518-.227.518-.508V6.86c0-.84-.696-1.525-1.553-1.525z" fill="#607d8b"/><defs ><path id="B" d="M22.265 8.385h.518c.286 0 .518-.227.518-.508s-.232-.508-.518-.508h-.518c-.286 0-.518.227-.518.508s.232.508.518.508z"/><path id="C" d="M27.96 3.557h-.518c-.285 0-.518-.23-.518-.508s.233-.508.518-.508h.518c.285 0 .518.23.518.508s-.233.508-.518.508z"/></defs></svg>