<svg width="32" height="32" viewBox="0 0 32 32" fill="none" xmlns="http://www.w3.org/2000/svg">
<path d="M29.6666 31.7627H18.3333C17.7813 31.7627 17.3333 31.3147 17.3333 30.7627V12.7627C17.3333 12.4613 17.4693 12.176 17.7026 11.9867C17.9359 11.796 18.2413 11.7213 18.5373 11.784L30.1599 14.2187C31.2479 14.46 31.9999 15.396 31.9999 16.4987V29.4293C31.9999 30.716 30.9533 31.7627 29.6666 31.7627Z" fill="#90A4AE"/>
<path d="M19.3333 11.9507V31.7627H18.3333H25.3332V13.208L19.3333 11.9507Z" fill="#7D8F97"/>
<path d="M17.3733 2.256L2.72 0.0293359C2.04 -0.0773308 1.34667 0.109336 0.826666 0.549336C0.306667 1.00267 0 1.656 0 2.336V30.4293C0 31.1627 0.6 31.7627 1.33333 31.7627H5.66666V24.7627C5.66666 23.4693 6.70666 22.4293 8 22.4293H11.3333C12.6267 22.4293 13.6667 23.4693 13.6667 24.7627V31.7627H19.3333V4.56267C19.3333 3.416 18.5067 2.44267 17.3733 2.256Z" fill="#607D8B"/>
<path d="M13.6667 24.7627V31.7627H5.66675V24.7627C5.66675 23.4694 6.70675 22.4294 8.00008 22.4294H11.3334C12.6267 22.4294 13.6667 23.4694 13.6667 24.7627Z" fill="#ECEFF1"/>
<path d="M2.344 3.05176e-05C1.79067 3.05176e-05 1.25067 0.190697 0.826666 0.549364C0.306667 1.0027 0 1.65603 0 2.33603V30.4294C0 31.1627 0.6 31.7627 1.33333 31.7627H5.66666V24.7627C5.66666 23.4694 6.70666 22.4294 8 22.4294H9.66666V1.08536L2.72 0.0293638C2.59467 0.00936385 2.46933 3.05176e-05 2.344 3.05176e-05Z" fill="#546D79"/>
<path d="M9.66675 22.4294H8.00008C6.70675 22.4294 5.66675 23.4694 5.66675 24.7627V31.7627H9.66675V22.4294Z" fill="#CDD0D2"/>
<path d="M7.33325 11.4294H5.33325C4.78125 11.4294 4.33325 10.9814 4.33325 10.4294C4.33325 9.87737 4.78125 9.42937 5.33325 9.42937H7.33325C7.88525 9.42937 8.33325 9.87737 8.33325 10.4294C8.33325 10.9814 7.88525 11.4294 7.33325 11.4294Z" fill="#ECEFF1"/>
<path d="M14 11.4294H12C11.448 11.4294 11 10.9814 11 10.4294C11 9.87737 11.448 9.42937 12 9.42937H14C14.552 9.42937 15 9.87737 15 10.4294C15 10.9814 14.552 11.4294 14 11.4294Z" fill="#ECEFF1"/>
<path d="M7.33325 15.4294H5.33325C4.78125 15.4294 4.33325 14.9814 4.33325 14.4294C4.33325 13.8774 4.78125 13.4294 5.33325 13.4294H7.33325C7.88525 13.4294 8.33325 13.8774 8.33325 14.4294C8.33325 14.9814 7.88525 15.4294 7.33325 15.4294Z" fill="#ECEFF1"/>
<path d="M14 15.4294H12C11.448 15.4294 11 14.9814 11 14.4294C11 13.8774 11.448 13.4294 12 13.4294H14C14.552 13.4294 15 13.8774 15 14.4294C15 14.9814 14.552 15.4294 14 15.4294Z" fill="#ECEFF1"/>
<path d="M7.33325 19.4294H5.33325C4.78125 19.4294 4.33325 18.9814 4.33325 18.4294C4.33325 17.8774 4.78125 17.4294 5.33325 17.4294H7.33325C7.88525 17.4294 8.33325 17.8774 8.33325 18.4294C8.33325 18.9814 7.88525 19.4294 7.33325 19.4294Z" fill="#ECEFF1"/>
<path d="M14 19.4294H12C11.448 19.4294 11 18.9814 11 18.4294C11 17.8774 11.448 17.4294 12 17.4294H14C14.552 17.4294 15 17.8774 15 18.4294C15 18.9814 14.552 19.4294 14 19.4294Z" fill="#ECEFF1"/>
<path d="M26.3333 23.7627H24.3333C23.7813 23.7627 23.3333 23.3147 23.3333 22.7627C23.3333 22.2107 23.7813 21.7627 24.3333 21.7627H26.3333C26.8853 21.7627 27.3333 22.2107 27.3333 22.7627C27.3333 23.3147 26.8853 23.7627 26.3333 23.7627Z" fill="#ECEFF1"/>
<path d="M26.3333 27.7627H24.3333C23.7813 27.7627 23.3333 27.3147 23.3333 26.7627C23.3333 26.2107 23.7813 25.7627 24.3333 25.7627H26.3333C26.8853 25.7627 27.3333 26.2107 27.3333 26.7627C27.3333 27.3147 26.8853 27.7627 26.3333 27.7627Z" fill="#ECEFF1"/>
<path d="M7.33325 7.42937H5.33325C4.78125 7.42937 4.33325 6.98137 4.33325 6.42937C4.33325 5.87737 4.78125 5.42937 5.33325 5.42937H7.33325C7.88525 5.42937 8.33325 5.87737 8.33325 6.42937C8.33325 6.98137 7.88525 7.42937 7.33325 7.42937Z" fill="#ECEFF1"/>
<path d="M14 7.42938H12C11.448 7.42938 11 6.98138 11 6.42938C11 5.87738 11.448 5.42938 12 5.42938H14C14.552 5.42938 15 5.87738 15 6.42938C15 6.98138 14.552 7.42938 14 7.42938Z" fill="#ECEFF1"/>
<path d="M26.3333 19.7627H24.3333C23.7813 19.7627 23.3333 19.3147 23.3333 18.7627C23.3333 18.2107 23.7813 17.7627 24.3333 17.7627H26.3333C26.8853 17.7627 27.3333 18.2107 27.3333 18.7627C27.3333 19.3147 26.8853 19.7627 26.3333 19.7627Z" fill="#ECEFF1"/>
<path d="M8.33325 6.42935H4.33325C4.33325 6.98135 4.78125 7.42935 5.33325 7.42935H7.33325C7.88525 7.42935 8.33325 6.98135 8.33325 6.42935Z" fill="#CDD0D2"/>
<path d="M15 6.42935H11C11 6.98135 11.448 7.42935 12 7.42935H14C14.552 7.42935 15 6.98135 15 6.42935Z" fill="#CDD0D2"/>
<path d="M8.33325 10.4294H4.33325C4.33325 10.9814 4.78125 11.4294 5.33325 11.4294H7.33325C7.88525 11.4294 8.33325 10.9814 8.33325 10.4294Z" fill="#CDD0D2"/>
<path d="M15 10.4294H11C11 10.9814 11.448 11.4294 12 11.4294H14C14.552 11.4294 15 10.9814 15 10.4294Z" fill="#CDD0D2"/>
<path d="M8.33325 14.4294H4.33325C4.33325 14.9814 4.78125 15.4294 5.33325 15.4294H7.33325C7.88525 15.4294 8.33325 14.9814 8.33325 14.4294Z" fill="#CDD0D2"/>
<path d="M15 14.4294H11C11 14.9814 11.448 15.4294 12 15.4294H14C14.552 15.4294 15 14.9814 15 14.4294Z" fill="#CDD0D2"/>
<path d="M8.33325 18.4294H4.33325C4.33325 18.9814 4.78125 19.4294 5.33325 19.4294H7.33325C7.88525 19.4294 8.33325 18.9814 8.33325 18.4294Z" fill="#CDD0D2"/>
<path d="M15 18.4294H11C11 18.9814 11.448 19.4294 12 19.4294H14C14.552 19.4294 15 18.9814 15 18.4294Z" fill="#CDD0D2"/>
<path d="M27.3333 18.7627H23.3333C23.3333 19.3147 23.7813 19.7627 24.3333 19.7627H26.3333C26.8853 19.7627 27.3333 19.3147 27.3333 18.7627Z" fill="#CDD0D2"/>
<path d="M27.3333 22.7627H23.3333C23.3333 23.3147 23.7813 23.7627 24.3333 23.7627H26.3333C26.8853 23.7627 27.3333 23.3147 27.3333 22.7627Z" fill="#CDD0D2"/>
<path d="M27.3333 26.7627H23.3333C23.3333 27.3147 23.7813 27.7627 24.3333 27.7627H26.3333C26.8853 27.7627 27.3333 27.3147 27.3333 26.7627Z" fill="#CDD0D2"/>
</svg>
