<svg xmlns="http://www.w3.org/2000/svg" width="32" height="32" fill="none"  xmlns:v="https://vecta.io/nano"><path d="M9.118 19.488l-1.31 12.184L0 29.693l1.05-4.148h.004l.264-1.056h.004l1.623-6.4.59.123 5.582 1.276z" fill="#d5d6db"/><path d="M16 18.088V29.7l-8.193 1.98 1.31-12.18L16 18.088z" fill="#e1e6e9"/><path d="M16 18.088V29.7l8.193 1.98-1.31-12.18L16 18.088z" fill="#d5d6db"/><path d="M32 29.693l-7.808 1.98-1.31-12.184 5.547-1.267.625-.132L32 29.693z" fill="#e1e6e9"/><path d="M30.95 25.545l-6.246-2.305-8.705 2.965-8.7-2.965-6.242 2.305.264-1.056h.004l5.973-2.204 1.465.5 7.236 2.468 7.24-2.468 1.465-.5 5.978 2.204.268 1.056z" fill="#37444f"/><path d="M24.13 8.13c0 4.49-8.13 17.6-8.13 17.6S7.87 12.622 7.87 8.13 11.51 0 16 0s8.13 3.64 8.13 8.13z" fill="#546d79"/><path d="M16 13.27c2.842 0 5.146-2.304 5.146-5.146S18.84 2.978 16 2.978s-5.146 2.304-5.146 5.146S13.158 13.27 16 13.27z" fill="#e1e6e9"/></svg>