<svg width="13" height="12" viewBox="0 0 13 12" fill="none" xmlns="http://www.w3.org/2000/svg">
<path d="M1.99449 10.1598C0.343174 8.7383 0.156237 6.23903 1.57772 4.58772L5.18642 0.395533C5.37647 0.174753 5.70897 0.150293 5.92932 0.339967C6.14973 0.529703 6.17501 0.862146 5.98495 1.08293L2.37625 5.27511C1.33418 6.48567 1.47096 8.31886 2.68188 9.36124C3.89281 10.4036 5.72594 10.2662 6.76801 9.05561L10.5486 4.66378C11.2119 3.89324 11.1246 2.72686 10.3541 2.06357C9.58348 1.40022 8.41711 1.48746 7.75382 2.258L4.31692 6.2506C4.03272 6.58075 4.07005 7.08075 4.40027 7.36501C4.73049 7.64927 5.23049 7.6118 5.51468 7.28166L8.77972 3.48871C8.96977 3.26793 9.30227 3.24347 9.52262 3.43314C9.74303 3.62288 9.76831 3.95532 9.57825 4.1761L6.31322 7.96905C5.64993 8.73959 4.48348 8.82676 3.71294 8.16347C2.9424 7.50018 2.85509 6.33374 3.51838 5.56321L6.95528 1.5706C7.99729 0.360117 9.83049 0.222589 11.0415 1.26504C12.2524 2.30742 12.3891 4.14068 11.3471 5.35117L7.56655 9.743C6.14507 11.3943 3.6458 11.5813 1.99449 10.1598Z" fill="#222222" fill-opacity="0.5"/>
</svg>
