<svg width="6" height="6" viewBox="0 0 6 6" fill="none" xmlns="http://www.w3.org/2000/svg">
<path d="M5.04612 3.75343C4.82927 3.53935 4.55856 3.53935 4.3431 3.75343C4.17874 3.9164 4.01438 4.07938 3.85278 4.24512C3.80858 4.29069 3.77129 4.30036 3.71742 4.26998C3.61107 4.21197 3.49782 4.16501 3.39561 4.10148C2.9191 3.80177 2.51994 3.41643 2.16636 2.98275C1.99095 2.76729 1.83487 2.53664 1.72576 2.27699C1.70366 2.2245 1.70781 2.18998 1.75062 2.14716C1.91498 1.98833 2.0752 1.82535 2.2368 1.66238C2.46193 1.43587 2.46193 1.17069 2.23542 0.942803C2.10697 0.812976 1.97852 0.685911 1.85007 0.556083C1.71747 0.423493 1.58626 0.289522 1.45229 0.158314C1.23544 -0.053001 0.964731 -0.0530009 0.749266 0.159695C0.583525 0.32267 0.424689 0.489788 0.256185 0.650001C0.100112 0.797783 0.0213843 0.978713 0.00481013 1.19003C-0.0214323 1.53393 0.0628197 1.8585 0.181601 2.17478C0.424689 2.82944 0.794845 3.41091 1.24373 3.94403C1.85007 4.66498 2.57381 5.2354 3.42047 5.64698C3.80168 5.83205 4.19669 5.97431 4.62624 5.99779C4.92181 6.01436 5.17871 5.93978 5.38451 5.70913C5.52539 5.55168 5.68422 5.40804 5.83339 5.25749C6.05438 5.03375 6.05576 4.76304 5.83615 4.54206C5.57373 4.27826 5.30992 4.01585 5.04612 3.75343Z" fill="#222222" fill-opacity="0.3"/>
</svg>
