<svg xmlns="http://www.w3.org/2000/svg" width="6" height="6" fill="none"  xmlns:v="https://vecta.io/nano"><path d="M5.046 3.753c-.217-.214-.488-.214-.703 0l-.5.492c-.044.046-.08.055-.135.025l-.322-.17c-.477-.3-.876-.685-1.23-1.12-.175-.215-.33-.446-.44-.706a.1.1 0 0 1 .025-.13l.486-.485c.225-.227.225-.492-.001-.72L1.85.556 1.452.158C1.235-.053.965-.053.75.16l-.493.5a.8.8 0 0 0-.251.54c-.026.344.058.668.177.985.243.655.613 1.236 1.062 1.77.606.72 1.33 1.29 2.177 1.703.38.185.776.327 1.206.35.296.017.552-.058.758-.29.14-.157.3-.3.45-.452.22-.224.222-.494.003-.715l-.8-.79z" fill="#222" fill-opacity=".3"/></svg>