<svg width="15" height="14" viewBox="0 0 15 14" fill="none" xmlns="http://www.w3.org/2000/svg">
<path d="M7.76855 0C3.90255 0 0.768555 3.13399 0.768555 7C0.768555 10.866 3.90255 14 7.76855 14C11.6346 14 14.7686 10.866 14.7686 7C14.7686 3.13399 11.6346 0 7.76855 0ZM7.76855 12.4444C4.76165 12.4444 2.32412 10.0069 2.32412 7C2.32412 3.99314 4.76165 1.55557 7.76855 1.55557C10.7755 1.55557 13.213 3.9931 13.213 7C13.213 10.0069 10.7755 12.4444 7.76855 12.4444Z" fill="#FF681D"/>
<path d="M9.99743 5.401C9.99743 5.72367 9.9571 5.98767 9.87643 6.193C9.79576 6.391 9.6931 6.58167 9.56843 6.765C9.4731 6.90433 9.37043 7.04 9.26043 7.172C9.15776 7.304 9.05876 7.44333 8.96343 7.59C8.87543 7.72933 8.79843 7.87967 8.73243 8.041C8.67376 8.20233 8.64443 8.37467 8.64443 8.558V8.888H7.10443V8.525C7.10443 8.22433 7.12643 7.975 7.17043 7.777C7.22176 7.57167 7.3171 7.359 7.45643 7.139C7.5591 6.97033 7.66176 6.809 7.76443 6.655C7.8671 6.501 7.95876 6.35433 8.03943 6.215C8.12743 6.06833 8.1971 5.929 8.24843 5.797C8.29976 5.65767 8.32543 5.522 8.32543 5.39C8.32543 5.33133 8.31443 5.26533 8.29243 5.192C8.27776 5.11867 8.24843 5.05267 8.20443 4.994C8.16043 4.928 8.0981 4.873 8.01743 4.829C7.9441 4.785 7.8451 4.763 7.72043 4.763C7.5371 4.763 7.37943 4.83267 7.24743 4.972C7.12276 5.11133 7.05676 5.34967 7.04943 5.687C6.79276 5.65033 6.5361 5.621 6.27943 5.599C6.0301 5.56967 5.7771 5.54033 5.52043 5.511C5.54243 5.15167 5.61576 4.83633 5.74043 4.565C5.87243 4.28633 6.03743 4.05533 6.23543 3.872C6.44076 3.68133 6.67543 3.53833 6.93943 3.443C7.21076 3.34033 7.50043 3.289 7.80843 3.289C8.5271 3.289 9.06976 3.48333 9.43643 3.872C9.81043 4.25333 9.99743 4.763 9.99743 5.401ZM7.11543 11V9.537H8.63343V11H7.11543Z" fill="#FF681D"/>
</svg>
