<svg xmlns="http://www.w3.org/2000/svg" viewBox="0 0 18 14">
  <path fill="#ff0036" d="M17.73 1.53a7.4 7.4 0 01-2.1.57 3.6 3.6 0 001.6-1.98 7.4 7.4 0 01-2.3.87 3.66 3.66 0 00-2.65-1.13 3.6 3.6 0 00-3.54 4.38A10.39 10.39 0 011.23.51a3.5 3.5 0 00-.49 1.8c0 1.23.64 2.33 1.62 2.97a3.66 3.66 0 01-1.65-.45v.04a3.59 3.59 0 002.92 3.5 3.69 3.69 0 01-1.65.06 3.63 3.63 0 003.4 2.48 7.37 7.37 0 01-4.51 1.53c-.3 0-.59-.02-.87-.05a10.43 10.43 0 005.57 1.6A10.17 10.17 0 0015.91 3.38a7.33 7.33 0 001.82-1.85z"/>
</svg>
