<svg width="34" height="31" viewBox="0 0 34 31" fill="none" xmlns="http://www.w3.org/2000/svg">
<path d="M0 30.4918C0 30.7713 0.233001 31 0.51778 31H18.7307C18.6724 30.8412 18.6401 30.6696 18.6401 30.4918V29.9836H13.9412C14.2881 29.5592 14.4978 29.0307 14.4978 28.459C14.4978 27.0564 13.2603 25.918 11.7355 25.918H11.3912V24.6475H13.8066C14.1898 24.6475 14.4978 24.3426 14.4978 23.964V19.2632C14.4978 18.8871 14.2234 18.4374 13.8869 18.262L13.7367 18.1833L16.3049 13.1928C16.3722 13.2004 16.4369 13.208 16.5042 13.2106L18.3087 19.6253C17.9864 19.7803 17.6887 19.9886 17.4337 20.2516C16.8589 20.8398 16.5534 21.6123 16.5703 22.4254C16.5884 23.2398 16.9275 23.9983 17.5269 24.5624C18.1094 25.11 18.8705 25.4098 19.6743 25.4098C19.6964 25.4098 19.7197 25.4098 19.7417 25.4098C20.5714 25.392 21.3442 25.0591 21.9189 24.4709C22.4937 23.8827 22.7991 23.1102 22.7823 22.2958C22.7642 21.4814 22.4251 20.723 21.8257 20.1589C21.2264 19.5948 20.4381 19.3013 19.6096 19.3114C19.5074 19.314 19.4051 19.3203 19.3041 19.333L17.5061 12.9539C18.0291 12.6414 18.3812 12.0773 18.3812 11.4344C18.3812 10.4536 17.5683 9.65572 16.569 9.65572C15.5696 9.65572 14.7567 10.4536 14.7567 11.4344C14.7567 11.5843 14.7774 11.7292 14.8137 11.8689L10.5472 16.5418L9.15435 15.8252C9.06115 15.7769 8.955 15.7541 8.84886 15.7541C8.56408 15.7541 8.28448 15.9142 8.28448 16.1886V17.2787H3.78238C3.1248 17.2787 2.5889 17.7843 2.5889 18.4043V20.3278H0.691236C0.308079 20.3278 0 20.6353 0 21.0114V23.964C0 24.3426 0.308079 24.6475 0.691236 24.6475H8.28448V25.918H2.76236C1.23749 25.918 0 27.0564 0 28.459C0 29.0307 0.209701 29.5592 0.556613 29.9836H0.51778C0.233001 29.9836 0 30.2123 0 30.4918ZM9.32004 28.9672C9.03397 28.9672 8.80226 28.7398 8.80226 28.459C8.80226 28.1782 9.03397 27.9508 9.32004 27.9508C9.60611 27.9508 9.83782 28.1782 9.83782 28.459C9.83782 28.7398 9.60611 28.9672 9.32004 28.9672ZM10.3556 25.918H9.32004V24.6475H10.3556V25.918ZM11.9089 28.459C11.9089 28.7398 11.6772 28.9672 11.3912 28.9672C11.1051 28.9672 10.8734 28.7398 10.8734 28.459C10.8734 28.1782 11.1051 27.9508 11.3912 27.9508C11.6772 27.9508 11.9089 28.1782 11.9089 28.459ZM15.3405 12.8142L12.8189 17.7119L11.4934 17.0296L15.3405 12.8142ZM1.03556 23.6311V21.3442H9.32004V17.0589L13.3846 19.1501C13.4144 19.1768 13.4519 19.2403 13.4623 19.2784V23.6311H1.03556ZM7.24892 27.9508C7.53499 27.9508 7.7667 28.1782 7.7667 28.459C7.7667 28.7398 7.53499 28.9672 7.24892 28.9672C6.96285 28.9672 6.73114 28.7398 6.73114 28.459C6.73114 28.1782 6.96285 27.9508 7.24892 27.9508ZM5.1778 27.9508C5.46387 27.9508 5.69558 28.1782 5.69558 28.459C5.69558 28.7398 5.46387 28.9672 5.1778 28.9672C4.89173 28.9672 4.66002 28.7398 4.66002 28.459C4.66002 28.1782 4.89173 27.9508 5.1778 27.9508ZM3.10668 27.9508C3.39275 27.9508 3.62446 28.1782 3.62446 28.459C3.62446 28.7398 3.39275 28.9672 3.10668 28.9672C2.82061 28.9672 2.5889 28.7398 2.5889 28.459C2.5889 28.1782 2.82061 27.9508 3.10668 27.9508Z" fill="#546D79"/>
<path d="M22.2646 8.38523H22.7824C23.0685 8.38523 23.3002 8.15781 23.3002 7.87703C23.3002 7.59625 23.0685 7.36884 22.7824 7.36884H22.2646C21.9785 7.36884 21.7468 7.59625 21.7468 7.87703C21.7468 8.15781 21.9785 8.38523 22.2646 8.38523Z" fill="#546D79"/>
<path d="M24.8535 8.38523H25.3713C25.6573 8.38523 25.889 8.15781 25.889 7.87703C25.889 7.59625 25.6573 7.36884 25.3713 7.36884H24.8535C24.5674 7.36884 24.3357 7.59625 24.3357 7.87703C24.3357 8.15781 24.5674 8.38523 24.8535 8.38523Z" fill="#546D79"/>
<path d="M22.2646 10.418H22.7824C23.0685 10.418 23.3002 10.1906 23.3002 9.90982C23.3002 9.62904 23.0685 9.40163 22.7824 9.40163H22.2646C21.9785 9.40163 21.7468 9.62904 21.7468 9.90982C21.7468 10.1906 21.9785 10.418 22.2646 10.418Z" fill="#546D79"/>
<path d="M24.8535 10.418H25.3713C25.6573 10.418 25.889 10.1906 25.889 9.90982C25.889 9.62904 25.6573 9.40163 25.3713 9.40163H24.8535C24.5674 9.40163 24.3357 9.62904 24.3357 9.90982C24.3357 10.1906 24.5674 10.418 24.8535 10.418Z" fill="#546D79"/>
<path d="M22.2646 12.4508H22.7824C23.0685 12.4508 23.3002 12.2234 23.3002 11.9426C23.3002 11.6618 23.0685 11.4344 22.7824 11.4344H22.2646C21.9785 11.4344 21.7468 11.6618 21.7468 11.9426C21.7468 12.2234 21.9785 12.4508 22.2646 12.4508Z" fill="#546D79"/>
<path d="M24.8535 12.4508H25.3713C25.6573 12.4508 25.889 12.2234 25.889 11.9426C25.889 11.6618 25.6573 11.4344 25.3713 11.4344H24.8535C24.5674 11.4344 24.3357 11.6618 24.3357 11.9426C24.3357 12.2234 24.5674 12.4508 24.8535 12.4508Z" fill="#546D79"/>
<path d="M22.2646 14.4836H22.7824C23.0685 14.4836 23.3002 14.2562 23.3002 13.9754C23.3002 13.6946 23.0685 13.4672 22.7824 13.4672H22.2646C21.9785 13.4672 21.7468 13.6946 21.7468 13.9754C21.7468 14.2562 21.9785 14.4836 22.2646 14.4836Z" fill="#546D79"/>
<path d="M24.8535 14.4836H25.3713C25.6573 14.4836 25.889 14.2562 25.889 13.9754C25.889 13.6946 25.6573 13.4672 25.3713 13.4672H24.8535C24.5674 13.4672 24.3357 13.6946 24.3357 13.9754C24.3357 14.2562 24.5674 14.4836 24.8535 14.4836Z" fill="#546D79"/>
<path d="M22.2646 16.5164H22.7824C23.0685 16.5164 23.3002 16.289 23.3002 16.0082C23.3002 15.7274 23.0685 15.5 22.7824 15.5H22.2646C21.9785 15.5 21.7468 15.7274 21.7468 16.0082C21.7468 16.289 21.9785 16.5164 22.2646 16.5164Z" fill="#546D79"/>
<path d="M24.8535 16.5164H25.3713C25.6573 16.5164 25.889 16.289 25.889 16.0082C25.889 15.7274 25.6573 15.5 25.3713 15.5H24.8535C24.5674 15.5 24.3357 15.7274 24.3357 16.0082C24.3357 16.289 24.5674 16.5164 24.8535 16.5164Z" fill="#546D79"/>
<path d="M22.2646 18.5492H22.7824C23.0685 18.5492 23.3002 18.3218 23.3002 18.041C23.3002 17.7602 23.0685 17.5328 22.7824 17.5328H22.2646C21.9785 17.5328 21.7468 17.7602 21.7468 18.041C21.7468 18.3218 21.9785 18.5492 22.2646 18.5492Z" fill="#546D79"/>
<path d="M24.8535 18.5492H25.3713C25.6573 18.5492 25.889 18.3218 25.889 18.041C25.889 17.7602 25.6573 17.5328 25.3713 17.5328H24.8535C24.5674 17.5328 24.3357 17.7602 24.3357 18.041C24.3357 18.3218 24.5674 18.5492 24.8535 18.5492Z" fill="#546D79"/>
<path d="M24.8535 20.5819H25.3713C25.6573 20.5819 25.889 20.3545 25.889 20.0737C25.889 19.793 25.6573 19.5655 25.3713 19.5655H24.8535C24.5674 19.5655 24.3357 19.793 24.3357 20.0737C24.3357 20.3545 24.5674 20.5819 24.8535 20.5819Z" fill="#546D79"/>
<path d="M24.8535 22.6148H25.3713C25.6573 22.6148 25.889 22.3873 25.889 22.1066C25.889 21.8258 25.6573 21.5984 25.3713 21.5984H24.8535C24.5674 21.5984 24.3357 21.8258 24.3357 22.1066C24.3357 22.3873 24.5674 22.6148 24.8535 22.6148Z" fill="#546D79"/>
<path d="M24.8535 24.6475H25.3713C25.6573 24.6475 25.889 24.4201 25.889 24.1393C25.889 23.8586 25.6573 23.6311 25.3713 23.6311H24.8535C24.5674 23.6311 24.3357 23.8586 24.3357 24.1393C24.3357 24.4201 24.5674 24.6475 24.8535 24.6475Z" fill="#546D79"/>
<path d="M21.7468 26.1721C21.7468 26.4529 21.9785 26.6803 22.2646 26.6803H22.7824C23.0685 26.6803 23.3002 26.4529 23.3002 26.1721C23.3002 25.8913 23.0685 25.6639 22.7824 25.6639H22.2646C21.9785 25.6639 21.7468 25.8913 21.7468 26.1721Z" fill="#546D79"/>
<path d="M24.8535 26.6803H25.3713C25.6573 26.6803 25.889 26.4529 25.889 26.1721C25.889 25.8913 25.6573 25.6639 25.3713 25.6639H24.8535C24.5674 25.6639 24.3357 25.8913 24.3357 26.1721C24.3357 26.4529 24.5674 26.6803 24.8535 26.6803Z" fill="#546D79"/>
<path d="M22.2646 28.7131H22.7824C23.0685 28.7131 23.3002 28.4857 23.3002 28.2049C23.3002 27.9241 23.0685 27.6967 22.7824 27.6967H22.2646C21.9785 27.6967 21.7468 27.9241 21.7468 28.2049C21.7468 28.4857 21.9785 28.7131 22.2646 28.7131Z" fill="#546D79"/>
<path d="M24.8535 28.7131H25.3713C25.6573 28.7131 25.889 28.4857 25.889 28.2049C25.889 27.9241 25.6573 27.6967 25.3713 27.6967H24.8535C24.5674 27.6967 24.3357 27.9241 24.3357 28.2049C24.3357 28.4857 24.5674 28.7131 24.8535 28.7131Z" fill="#546D79"/>
<path d="M11.3911 19.8197C11.105 19.8197 10.8733 20.0471 10.8733 20.3279V20.8361C10.8733 21.1169 11.105 21.3443 11.3911 21.3443C11.6771 21.3443 11.9089 21.1169 11.9089 20.8361V20.3279C11.9089 20.0471 11.6771 19.8197 11.3911 19.8197Z" fill="#7D8F97"/>
<path d="M15.8144 25.0503L15.0377 25.8126C14.8357 26.0108 14.8357 26.3322 15.0377 26.5317C15.1386 26.6308 15.2707 26.6803 15.404 26.6803C15.5373 26.6803 15.6694 26.6308 15.7703 26.5317L16.547 25.7694C16.7489 25.5712 16.7489 25.2497 16.547 25.0503C16.3451 24.8521 16.0163 24.8521 15.8144 25.0503Z" fill="#7D8F97"/>
<path d="M17.4001 26.1988L16.8824 27.2152C16.7542 27.4668 16.8578 27.7717 17.1141 27.8975C17.1878 27.9343 17.2668 27.9508 17.3458 27.9508C17.536 27.9508 17.7186 27.8479 17.8092 27.67L18.327 26.6536C18.4551 26.4021 18.3515 26.0972 18.0952 25.9714C17.8389 25.8456 17.5283 25.9473 17.4001 26.1988Z" fill="#7D8F97"/>
<path d="M16.2469 4.07321C16.3465 4.22313 16.5122 4.30444 16.6818 4.30444C16.7789 4.30444 16.876 4.27776 16.964 4.22185L18.1471 3.46718C18.2947 3.37317 18.3827 3.21308 18.3827 3.04157C18.3827 2.87005 18.2934 2.7087 18.1471 2.61595L16.964 1.86128C16.7245 1.70882 16.4035 1.77489 16.2481 2.00993C16.0928 2.24497 16.1601 2.56005 16.4009 2.71251L16.9161 3.0403L16.4009 3.36935C16.1588 3.52308 16.0902 3.8369 16.2469 4.07321Z" fill="#7D8F97"/>
<path d="M3.37215 13.8484C3.36956 13.8484 3.36827 13.8484 3.36568 13.8484C3.0822 13.8484 2.85178 14.072 2.8479 14.3502V14.4836C2.8479 14.7644 3.07961 14.9918 3.36568 14.9918C3.65175 14.9918 3.88346 14.7644 3.88346 14.4836L3.88475 14.3629C3.88734 14.0821 3.65823 13.8522 3.37215 13.8484Z" fill="#7D8F97"/>
<path d="M5.66588 7.62677C5.76167 7.70427 5.87817 7.74111 5.99337 7.74111C6.14353 7.74111 6.29239 7.67759 6.39465 7.55435C6.44643 7.49337 6.49821 7.43239 6.54999 7.3714C6.73509 7.15796 6.7092 6.83653 6.49174 6.65485C6.27427 6.47317 5.94677 6.49858 5.76167 6.71202C5.70471 6.77808 5.64776 6.84415 5.5921 6.91148C5.41087 7.13001 5.44453 7.45017 5.66588 7.62677Z" fill="#7D8F97"/>
<path d="M7.27076 5.25476C7.20215 5.31066 7.13484 5.36656 7.06753 5.42374C6.85136 5.60796 6.82806 5.92812 7.01446 6.14029C7.11672 6.25591 7.2617 6.31562 7.40668 6.31562C7.52706 6.31562 7.64744 6.27496 7.74582 6.19111C7.80666 6.14029 7.8675 6.0882 7.92963 6.03865C8.15098 5.86078 8.18205 5.53935 8.00083 5.32337C7.81702 5.10738 7.49082 5.07689 7.27076 5.25476Z" fill="#7D8F97"/>
<path d="M9.01166 4.0757C8.93529 4.1189 8.85891 4.1621 8.78384 4.20656C8.53789 4.35013 8.45763 4.66267 8.6052 4.90406C8.70229 5.06287 8.87445 5.15181 9.05049 5.15181C9.1411 5.15181 9.23172 5.12894 9.31586 5.08066C9.38576 5.04001 9.45436 5.00062 9.52556 4.96124C9.77409 4.82275 9.86082 4.51275 9.71972 4.26882C9.57604 4.02234 9.26019 3.93722 9.01166 4.0757Z" fill="#7D8F97"/>
<path d="M10.9371 3.21178C10.8542 3.241 10.7714 3.27022 10.6885 3.30071C10.4206 3.39981 10.286 3.6933 10.3882 3.95629C10.4672 4.15957 10.664 4.28534 10.8724 4.28534C10.9332 4.28534 10.9953 4.27518 11.0562 4.25231C11.1312 4.22436 11.2063 4.19768 11.2827 4.171C11.5519 4.07698 11.693 3.78731 11.5985 3.52178C11.5015 3.25752 11.2063 3.11776 10.9371 3.21178Z" fill="#7D8F97"/>
<path d="M12.986 2.69345C12.8992 2.70743 12.8112 2.72267 12.7245 2.73919C12.4436 2.79128 12.2585 3.05681 12.3116 3.33251C12.3582 3.57645 12.5756 3.74669 12.8203 3.74669C12.8526 3.74669 12.885 3.74415 12.9174 3.7378C12.9963 3.72255 13.0766 3.70985 13.1555 3.69587C13.4377 3.65013 13.628 3.38841 13.5814 3.11145C13.5348 2.83448 13.2669 2.64645 12.986 2.69345Z" fill="#7D8F97"/>
<path d="M4.07127 12.4673C4.12304 12.1916 3.93664 11.9261 3.65575 11.8753C3.37485 11.8245 3.10431 12.0061 3.05253 12.2831C3.037 12.3682 3.02147 12.4534 3.00723 12.5385C2.96063 12.8154 3.15221 13.0772 3.4344 13.1216C3.46287 13.1267 3.49135 13.128 3.51853 13.128C3.76836 13.128 3.98713 12.9514 4.02855 12.7011C4.04279 12.6236 4.05703 12.5448 4.07127 12.4673Z" fill="#7D8F97"/>
<path d="M5.30317 9.12721C5.34329 9.05733 5.38342 8.98873 5.42484 8.92012C5.56982 8.67873 5.48827 8.36619 5.24103 8.22517C4.99379 8.08287 4.67665 8.16291 4.53167 8.40557C4.48637 8.48053 4.44236 8.55549 4.39964 8.63045C4.25984 8.87565 4.34786 9.18565 4.59769 9.32287C4.67795 9.36733 4.76467 9.38766 4.8514 9.38766C5.03262 9.38639 5.20867 9.29237 5.30317 9.12721Z" fill="#7D8F97"/>
<path d="M4.50725 10.8602C4.53444 10.7852 4.56162 10.7103 4.5901 10.6353C4.68977 10.3723 4.55385 10.0788 4.2872 9.981C4.01925 9.8819 3.72152 10.0153 3.62055 10.2783C3.58949 10.3596 3.55972 10.4409 3.52994 10.5235C3.43545 10.789 3.57784 11.0787 3.84708 11.1715C3.90404 11.1905 3.961 11.2007 4.01795 11.2007C4.23154 11.2007 4.43218 11.0698 4.50725 10.8602Z" fill="#7D8F97"/>
<path d="M14.9754 2.53339L14.8395 2.53466C14.5534 2.53847 14.3243 2.76843 14.3282 3.04921C14.3321 3.32744 14.5625 3.55105 14.846 3.55105C14.8485 3.55105 14.8498 3.55105 14.8524 3.55105L14.9754 3.54978C15.2615 3.54978 15.4932 3.32236 15.4932 3.04158C15.4932 2.7608 15.2615 2.53339 14.9754 2.53339Z" fill="#7D8F97"/>
<path d="M23.3002 20.0737C23.3002 19.793 23.0685 19.5655 22.7824 19.5655H22.6763C22.8924 19.7891 23.0814 20.0356 23.2419 20.3024C23.2782 20.2338 23.3002 20.1563 23.3002 20.0737Z" fill="#546D79"/>
<path d="M24.8535 0V1.77869H23.3002C22.4432 1.77869 21.7468 2.46221 21.7468 3.30328V4.31967H22.7824V3.30328C22.7824 3.02377 23.0154 2.79508 23.3002 2.79508H24.8535V4.31967H26.4068C26.8094 4.31967 27.1887 4.41242 27.5278 4.57377H27.9602C28.245 4.57377 28.478 4.80246 28.478 5.08196C28.478 5.15565 28.4624 5.22172 28.434 5.28524C28.7848 5.71848 28.9957 6.26606 28.9957 6.86065V30.4918C28.9957 30.6697 28.9621 30.8412 28.9051 31H32.6202C32.905 31 33.138 30.7713 33.138 30.4918V0" fill="#546D79"/>
<path d="M27.9601 3.55741H27.4423C27.1576 3.55741 26.9246 3.32872 26.9246 3.04921C26.9246 2.7697 27.1576 2.54102 27.4423 2.54102H27.9601C28.2449 2.54102 28.4779 2.7697 28.4779 3.04921C28.4779 3.32872 28.2449 3.55741 27.9601 3.55741Z" fill="#ECEFF1"/>
<path d="M27.9601 1.52457H27.4423C27.1576 1.52457 26.9246 1.29588 26.9246 1.01637C26.9246 0.736867 27.1576 0.508179 27.4423 0.508179H27.9601C28.2449 0.508179 28.4779 0.736867 28.4779 1.01637C28.4779 1.29588 28.2449 1.52457 27.9601 1.52457Z" fill="#ECEFF1"/>
<path d="M30.549 27.9508H30.0312C29.7464 27.9508 29.5134 27.7221 29.5134 27.4426C29.5134 27.1631 29.7464 26.9344 30.0312 26.9344H30.549C30.8338 26.9344 31.0668 27.1631 31.0668 27.4426C31.0668 27.7221 30.8338 27.9508 30.549 27.9508Z" fill="#ECEFF1"/>
<path d="M30.549 25.918H30.0312C29.7464 25.918 29.5134 25.6893 29.5134 25.4098C29.5134 25.1303 29.7464 24.9016 30.0312 24.9016H30.549C30.8338 24.9016 31.0668 25.1303 31.0668 25.4098C31.0668 25.6893 30.8338 25.918 30.549 25.918Z" fill="#ECEFF1"/>
<path d="M30.549 23.8852H30.0312C29.7464 23.8852 29.5134 23.6565 29.5134 23.377C29.5134 23.0975 29.7464 22.8688 30.0312 22.8688H30.549C30.8338 22.8688 31.0668 23.0975 31.0668 23.377C31.0668 23.6565 30.8338 23.8852 30.549 23.8852Z" fill="#ECEFF1"/>
<path d="M30.549 21.8525H30.0312C29.7464 21.8525 29.5134 21.6238 29.5134 21.3443C29.5134 21.0648 29.7464 20.8361 30.0312 20.8361H30.549C30.8338 20.8361 31.0668 21.0648 31.0668 21.3443C31.0668 21.6238 30.8338 21.8525 30.549 21.8525Z" fill="#ECEFF1"/>
<path d="M30.549 19.8196H30.0312C29.7464 19.8196 29.5134 19.591 29.5134 19.3115C29.5134 19.0319 29.7464 18.8033 30.0312 18.8033H30.549C30.8338 18.8033 31.0668 19.0319 31.0668 19.3115C31.0668 19.591 30.8338 19.8196 30.549 19.8196Z" fill="#ECEFF1"/>
<path d="M30.549 17.7869H30.0312C29.7464 17.7869 29.5134 17.5582 29.5134 17.2787C29.5134 16.9992 29.7464 16.7705 30.0312 16.7705H30.549C30.8338 16.7705 31.0668 16.9992 31.0668 17.2787C31.0668 17.5582 30.8338 17.7869 30.549 17.7869Z" fill="#ECEFF1"/>
<path d="M30.549 15.7541H30.0312C29.7464 15.7541 29.5134 15.5254 29.5134 15.2459C29.5134 14.9664 29.7464 14.7377 30.0312 14.7377H30.549C30.8338 14.7377 31.0668 14.9664 31.0668 15.2459C31.0668 15.5254 30.8338 15.7541 30.549 15.7541Z" fill="#ECEFF1"/>
<path d="M30.549 13.7213H30.0312C29.7464 13.7213 29.5134 13.4926 29.5134 13.2131C29.5134 12.9336 29.7464 12.7049 30.0312 12.7049H30.549C30.8338 12.7049 31.0668 12.9336 31.0668 13.2131C31.0668 13.4926 30.8338 13.7213 30.549 13.7213Z" fill="#ECEFF1"/>
<path d="M30.549 11.6885H30.0312C29.7464 11.6885 29.5134 11.4598 29.5134 11.1803C29.5134 10.9008 29.7464 10.6721 30.0312 10.6721H30.549C30.8338 10.6721 31.0668 10.9008 31.0668 11.1803C31.0668 11.4598 30.8338 11.6885 30.549 11.6885Z" fill="#ECEFF1"/>
<path d="M30.549 9.65574H30.0312C29.7464 9.65574 29.5134 9.42705 29.5134 9.14754C29.5134 8.86803 29.7464 8.63934 30.0312 8.63934H30.549C30.8338 8.63934 31.0668 8.86803 31.0668 9.14754C31.0668 9.42705 30.8338 9.65574 30.549 9.65574Z" fill="#ECEFF1"/>
<path d="M30.549 7.62295H30.0312C29.7464 7.62295 29.5134 7.39426 29.5134 7.11475C29.5134 6.83524 29.7464 6.60655 30.0312 6.60655H30.549C30.8338 6.60655 31.0668 6.83524 31.0668 7.11475C31.0668 7.39426 30.8338 7.62295 30.549 7.62295Z" fill="#ECEFF1"/>
<path d="M30.549 5.59016H30.0312C29.7464 5.59016 29.5134 5.36147 29.5134 5.08196C29.5134 4.80245 29.7464 4.57376 30.0312 4.57376H30.549C30.8338 4.57376 31.0668 4.80245 31.0668 5.08196C31.0668 5.36147 30.8338 5.59016 30.549 5.59016Z" fill="#ECEFF1"/>
<path d="M30.549 3.55741H30.0312C29.7464 3.55741 29.5134 3.32872 29.5134 3.04921C29.5134 2.7697 29.7464 2.54102 30.0312 2.54102H30.549C30.8338 2.54102 31.0668 2.7697 31.0668 3.04921C31.0668 3.32872 30.8338 3.55741 30.549 3.55741Z" fill="#ECEFF1"/>
<path d="M30.549 1.52457H30.0312C29.7464 1.52457 29.5134 1.29588 29.5134 1.01637C29.5134 0.736867 29.7464 0.508179 30.0312 0.508179H30.549C30.8338 0.508179 31.0668 0.736867 31.0668 1.01637C31.0668 1.29588 30.8338 1.52457 30.549 1.52457Z" fill="#ECEFF1"/>
<path d="M26.4067 5.33609H21.2289C20.372 5.33609 19.6755 6.01961 19.6755 6.86068V10.8411C19.6755 10.878 19.6794 10.9148 19.6885 10.9517L20.0936 12.7431C20.1402 12.9476 20.1441 13.3211 20.1027 13.5269L19.6859 15.5699C19.6794 15.6029 19.6755 15.636 19.6755 15.6703V18.2951C20.0341 18.2951 20.3797 18.3446 20.7111 18.4285V15.7198L21.1176 13.7264C21.1875 13.3821 21.1823 12.865 21.1046 12.522L20.7111 10.7852V6.86068C20.7111 6.5799 20.9428 6.35248 21.2289 6.35248H26.4067C26.6927 6.35248 26.9245 6.5799 26.9245 6.86068V29.9836H20.7111V26.2928C20.3797 26.3767 20.0341 26.4262 19.6755 26.4262V30.4918C19.6755 30.7726 19.9072 31 20.1933 31H27.4422C27.7283 31 27.96 30.7726 27.96 30.4918V6.86068C27.96 6.01961 27.2636 5.33609 26.4067 5.33609Z" fill="#607D8B"/>
</svg>
