<svg xmlns="http://www.w3.org/2000/svg" xmlns:xlink="http://www.w3.org/1999/xlink" width="32" height="32" fill="none" xmlns:v="https://vecta.io/nano"><path d="M29.667 31.763H18.333a1 1 0 0 1-1-1v-18a1 1 0 0 1 .369-.776.99.99 0 0 1 .835-.203L30.16 14.22a2.32 2.32 0 0 1 1.84 2.28v12.93c0 1.287-1.047 2.333-2.333 2.333z" fill="#90a4ae"/><path d="M19.333 11.95v19.812h-1 7V13.208l-6-1.257z" fill="#7d8f97"/><path d="M17.373 2.256L2.72.03C2.04-.077 1.347.11.827.55.307 1.003 0 1.656 0 2.336V30.43a1.34 1.34 0 0 0 1.333 1.333h4.333v-7A2.33 2.33 0 0 1 8 22.429h3.333a2.33 2.33 0 0 1 2.333 2.333v7h5.667v-27.2c0-1.147-.827-2.12-1.96-2.307z" fill="#607d8b"/><path d="M13.667 24.763v7h-8v-7c0-1.293 1.04-2.333 2.333-2.333h3.333c1.293 0 2.333 1.04 2.333 2.333z" fill="#eceff1"/><path d="M2.344 0A2.35 2.35 0 0 0 .827.549C.307 1.003 0 1.656 0 2.336V30.43a1.34 1.34 0 0 0 1.333 1.333h4.333v-7c0-1.293 1.04-2.333 2.333-2.333h1.667V1.085L2.72.03A2.38 2.38 0 0 0 2.344 0z" fill="#546d79"/><path d="M9.667 22.43H8c-1.293 0-2.333 1.04-2.333 2.333v7h4V22.43z" fill="#cdd0d2"/><g fill="#eceff1"><use xlink:href="#B"/><use xlink:href="#B" x="6.667"/><use xlink:href="#B" y="4"/><use xlink:href="#B" x="6.667" y="4"/><use xlink:href="#B" y="8"/><use xlink:href="#B" x="6.667" y="8"/><use xlink:href="#B" x="19" y="12.333"/><use xlink:href="#B" x="19" y="16.333"/><use xlink:href="#B" y="-4"/><use xlink:href="#B" x="6.667" y="-4"/><use xlink:href="#B" x="19" y="8.333"/></g><g fill="#cdd0d2"><use xlink:href="#C"/><use xlink:href="#C" x="6.667"/><use xlink:href="#C" y="4"/><use xlink:href="#C" x="6.667" y="4"/><use xlink:href="#C" y="8"/><use xlink:href="#C" x="6.667" y="8"/><use xlink:href="#C" y="12"/><use xlink:href="#C" x="6.667" y="12"/><use xlink:href="#C" x="19" y="12.333"/><use xlink:href="#C" x="19" y="16.333"/><use xlink:href="#C" x="19" y="20.333"/></g><defs ><path id="B" d="M7.333 11.43h-2a1 1 0 1 1 0-2h2a1 1 0 1 1 0 2z"/><path id="C" d="M8.333 6.43h-4a1 1 0 0 0 1 1h2a1 1 0 0 0 1-1z"/></defs></svg>