<svg width="32" height="32" viewBox="0 0 32 32" fill="none" xmlns="http://www.w3.org/2000/svg">
<path d="M9.11839 19.4877L8.7621 22.7867L8.66528 23.706L7.80756 31.672L0 29.6926L1.05131 25.5447H1.05568L1.31958 24.489H1.32396L2.94708 18.089L3.53652 18.2122L9.11839 19.4877Z" fill="#D5D6DB"/>
<path d="M15.9997 18.0883V29.6898L7.8064 31.6701L9.11737 19.491L15.9997 18.0883Z" fill="#E1E6E9"/>
<path d="M15.9998 18.0883V29.6898L24.1931 31.6701L22.8821 19.491L15.9998 18.0883Z" fill="#D5D6DB"/>
<path d="M31.9999 29.6926L24.1924 31.672L23.3346 23.706L23.2378 22.7867L22.8816 19.4877L28.4282 18.221L29.0528 18.089L30.6803 24.489L30.9487 25.5447L31.9999 29.6926Z" fill="#E1E6E9"/>
<path d="M30.9487 25.5447L24.7027 23.2399L23.3346 23.7061L15.9978 26.2046L8.66526 23.7061L7.2973 23.2399L1.05566 25.5447L1.31957 24.4891H1.32394L7.2973 22.2854L8.76209 22.7868L15.9978 25.2544L23.2379 22.7868L24.7027 22.2854L30.6804 24.4891L30.9487 25.5447Z" fill="#37444F"/>
<path d="M24.1307 8.13105C24.1307 12.6217 15.9997 25.7296 15.9997 25.7296C15.9997 25.7296 7.86865 12.6216 7.86865 8.13105C7.86865 3.64046 11.509 0 15.9997 0C20.4904 0 24.1307 3.64039 24.1307 8.13105Z" fill="#546D79"/>
<path d="M15.9996 13.2687C18.8414 13.2687 21.1451 10.965 21.1451 8.12314C21.1451 5.28132 18.8414 2.97757 15.9996 2.97757C13.1578 2.97757 10.854 5.28132 10.854 8.12314C10.854 10.965 13.1578 13.2687 15.9996 13.2687Z" fill="#E1E6E9"/>
</svg>
