<svg width="13" height="12" viewBox="0 0 13 12" fill="none" xmlns="http://www.w3.org/2000/svg">
<path d="M1.99443 10.1598C0.343113 8.7383 0.156176 6.23903 1.57766 4.58772L5.18636 0.395533C5.37641 0.174753 5.70891 0.150293 5.92925 0.339967C6.14967 0.529703 6.17494 0.862146 5.98489 1.08293L2.37619 5.27511C1.33412 6.48567 1.4709 8.31886 2.68182 9.36124C3.89275 10.4036 5.72588 10.2662 6.76795 9.05561L10.5485 4.66378C11.2118 3.89324 11.1246 2.72686 10.354 2.06357C9.58342 1.40022 8.41705 1.48746 7.75376 2.258L4.31685 6.2506C4.03266 6.58075 4.06999 7.08075 4.40021 7.36501C4.73043 7.64927 5.23042 7.6118 5.51462 7.28166L8.77966 3.48871C8.96971 3.26793 9.30221 3.24347 9.52255 3.43314C9.74297 3.62288 9.76824 3.95532 9.57819 4.1761L6.31316 7.96905C5.64987 8.73959 4.48341 8.82676 3.71288 8.16347C2.94234 7.50018 2.85503 6.33374 3.51832 5.56321L6.95522 1.5706C7.99723 0.360117 9.83043 0.222589 11.0414 1.26504C12.2524 2.30742 12.3891 4.14068 11.3471 5.35117L7.56649 9.743C6.14501 11.3943 3.64574 11.5813 1.99443 10.1598Z" fill="white"/>
</svg>
