<svg xmlns="http://www.w3.org/2000/svg" width="44" height="33" fill="none"  fill-rule="evenodd" xmlns:v="https://vecta.io/nano"><g fill="#546d79"><path d="M7.188 22.314l.25-3.022s.32-.826 1.278-.916c.116-.013.29-.02.514-.026.058 0 .14-.224.2-.23l1.117-.006-.058-.307-.38-.058-.283-.59 1.156.198.193.755.976.006c.058 0 .083.224.14.224l2.633.038c.077 0-.186.928-.148.928l1.907-5.212s1.445-2.235 2.305-2.997l2.646-2.484.244-1.3.68-.563.72-.333 2.935-3.515.212-.685.616-.397c.077-.218.257-.608.6-.864.507-.365 1.56-.96 1.56-.96l1.336.346.507 1.428-.295 1.114L34.12 9.88l-.064.423 1.51 3.406c.096.045.173.096.2.16.122.263.122 1.55.122 1.55l-.122.858.822.05-.026.608-.636.21-.295 5.846h.52l-.05.922-.353.314-1.085.02-.096 1.895-.366.685-.443-.717.026-1.844-.462.006-.7-.147-.14-1.082.2-.083-.63-4.437-.302-1.498-.572-.1.006-.467.867-.173-.122-.698.064-1.67.122-.314-3.846-6.48-.23-1.024-.026 1.024-6.543 6.832-.482.602 4.835.4-.026.467-.745.288s.507 1.16.63 2.92-.05 3.822-.05 3.822l1.17.205-.013.563-1.35.038-.302.602-10.248.224-7.128-.666-.295-.467-.86-.026.1-.5.5-.115z"/><path d="M6.675 24.657c.655-.48.796-.666 3.076-.564l4.56.365c.038.006.1.02.16.045l.006-.672 7.076-.115.026.4c.276 0 4.206.18 5.176.27.976.1 2.793.326 3.422 1.03.5.692.75 1.786.257 3.445-.27.487-.655.755-1.227.768l-1.72.013-3.82-.64-5.047-1.018s-.27-.058-.334-.16c-.07-.102-.128-.263-.128-.263l-.99.026s.058 1.37-.205 2.12c-.263.743-1.13 1.018-2.24 1.005l-1.548-.013-6.55-1.908s-.334-.128-.456-1.076c-.096-.762-.16-2.58.507-3.067z"/></g><path d="M18.535 18.306l.63-.02.578-2.068-1.207 2.087zm2.78-2.556l3.1.128s.84 1.876.84 3.157l-.096 2.72-2.858.05-.135-1.42.02 1.434-.186.006c-.006 0 .058-2.977-.674-6.076zm-1.52 5.232s.655.64.944.8c.282.16.584.128.584.128l-.25-3.182c-.135-.992-.52-2.324-.52-2.324s-.623 2-.758 4.578zm-12.002 3.4l4.078.512s1.3.755 1.573 1.076-1.053-.73-2.427-.948l-3.416-.48s-.52.128-.636.23.25-.333.828-.4zm8.605.973l6.42-.077.077.6-.47.14s-.116.275-.154.455c-.013.058-4.103.1-4.097.134s4.13.032 4.174.064c.23.14.84.37.84.37l-5.94-.013s.038-1.005-.854-1.665zm8.7.635l.777.006-.032-.25-.45-.32-.27.128-.026.435zm2.152-.475l.565.634-.925-.064-.05-.352c0 .006.13-.256.4-.218zm-20.293 2.78l5.9 1.7s.745-.083.783-.442c.013.135-.366.794-1.085.602l-5.606-1.64-.283-.27.3.038zm.783-7.216h1.946l-.013.14H7.728l.013-.14zm-.03.332h1.946l-.013.14H7.696l.013-.14zm-.027.328H9.63l-.013.147H7.67l.013-.147zm-.026.332h1.946l-.013.147H7.645l.013-.147zm4.675-2.273l1.27-.013.02 2.183-1.342-.013.05-2.158zm2.273 3.12l-.02-.768 1.425.045-.006.704 9.105-.186-10.377.493-6.466-.48 6.338.192zm18.095-12.6s.16-.186.257-.192c.1-.013.308.077.308.077l1.83 3.995-.6-.05-1.785-3.83zM29.4 1.62c.167 0 .302.154.302.352 0 .192-.135.352-.302.352s-.302-.154-.302-.352c-.006-.198.135-.352.302-.352zm-1.284 2.382c.167 0 .302.154.302.346s-.135.352-.302.352-.302-.154-.302-.352c0-.186.135-.346.302-.346zm-3.173 1.376l2.58-2.267-.533.275.026-.263-2.074 2.254zm-6.76 10.52l3.134-3.957 3.384-3.5-4.238 4.187c-1.1 1.357-2.28 3.272-2.28 3.272zM33.5 13.856c.122 0 .218.115.218.25 0 .14-.096.25-.218.25s-.218-.115-.218-.25c0-.14.096-.25.218-.25zm-.96-.296c.122 0 .218.115.218.25s-.096.25-.218.25-.218-.115-.218-.25.103-.25.218-.25zm.918 9.676v.7l2.273-.02.135-.18.02-.52-2.427.026zM33 16.897l.648 5.077-.38-5.07 2.594.013.212-.43-3.102-.038.026.448z" fill="#fff"/><g fill="#546d79"><path d="M.812 29.523l.584-.52s-.154-.43-.27-.43-.75-.013-.75-.013l-.238.743.674.218z"/><path d="M2.1 28.473l-.385.154.116.243.276.058s.116-.096.1-.275c0-.173-.116-.18-.116-.18zm29.657-3.765l1.593 1.806v.525s-.36-.27-.373-.333-1.297-1.742-1.27-1.767.05-.23.05-.23zm10.32 4.7l-.115-.096s.045-.18.07-.218c.026-.032.006-.115.077-.064.064.05.045.07.077.1.032.032.14.173.148.198s-.14.154-.14.154l-.116-.083zm-7.404-2.433l.443-.25s.173.077.2.1.1.032.045.1-.405.186-.45.2a1.16 1.16 0 0 1-.225.102c-.025 0-.122-.173-.122-.173l.1-.1z"/><path d="M33.734 27.13l-.116-.096s.04-.18.07-.218c.026-.032.006-.115.077-.064.064.05.045.07.077.1a.93.93 0 0 1 .148.198c.006.026-.14.154-.14.154l-.116-.083zm-21.004.127l-8.014.115-2.125 1.524 1.137-.2L.3 30.06l1.914 1.28 7.147.34 19.136.576 2.33.743-1.804-1.377L35 31.52l-.9.768 9.645-2.062-4.058-1.146-2.427-.218 2.408-.128-4.25-1.293-5.04-.058-4.5.07-5.208.397c-.636.205-5.04-.243-5.04-.243l-2.896-.352zm22.777-1.09l-.116-.096 1.002-1.216c.026-.032.006-.115.077-.064.064.05.045.07.077.1.038.032-.796 1.172-.8 1.197s-.14.154-.14.154l-.1-.083z"/></g><path d="M6.675 25.592l5.625.954-.038 1.03-3.474-.64 3.467.788-.006.14-5.554-1.26-.02-1.012zm6.537.884c.2 0 .366.487.366 1.088s-.16 1.088-.366 1.088c-.2 0-.366-.487-.366-1.088 0-.595.16-1.088.366-1.088zm6.094 1.234l7.982 1.287-4.052-.84-3.93-.448z" fill="#fff"/></svg>