<svg width="158" height="158" viewBox="0 0 158 158" fill="none" xmlns="http://www.w3.org/2000/svg">
<g filter="url(#filter0_d)">
<path fill-rule="evenodd" clip-rule="evenodd" d="M79 32.6C97.9986 32.6 113.4 48.0014 113.4 67C113.4 85.9986 97.9986 101.4 79 101.4C60.0014 101.4 44.6 85.9986 44.6 67C44.6 48.0014 60.0014 32.6 79 32.6ZM79 41.2C64.7511 41.2 53.2 52.751 53.2 67C53.2 81.2489 64.7511 92.8 79 92.8C93.2489 92.8 104.8 81.2489 104.8 67C104.8 52.751 93.2489 41.2 79 41.2ZM76.8666 50.3857L94.0666 63.2857C96.7438 64.8473 96.9013 68.5798 94.5391 70.3969L76.8666 83.6142C74 85.2864 70.4 83.2186 70.4 79.8999V54.0999C70.4 50.7812 74 48.7135 76.8666 50.3857Z" fill="white"/>
</g>
<defs>
<filter id="filter0_d" x="0.600006" y="0.599976" width="156.8" height="156.8" filterUnits="userSpaceOnUse" color-interpolation-filters="sRGB">
<feFlood flood-opacity="0" result="BackgroundImageFix"/>
<feColorMatrix in="SourceAlpha" type="matrix" values="0 0 0 0 0 0 0 0 0 0 0 0 0 0 0 0 0 0 127 0"/>
<feOffset dy="12"/>
<feGaussianBlur stdDeviation="22"/>
<feColorMatrix type="matrix" values="0 0 0 0 1 0 0 0 0 0.406911 0 0 0 0 0.1125 0 0 0 0.65 0"/>
<feBlend mode="normal" in2="BackgroundImageFix" result="effect1_dropShadow"/>
<feBlend mode="normal" in="SourceGraphic" in2="effect1_dropShadow" result="shape"/>
</filter>
</defs>
</svg>
