<svg xmlns="http://www.w3.org/2000/svg" viewBox="0 0 511.62 511.62">
  <path d="M156.45 351.3c8.56 12.28 19.37 23.94 32.4 34.98a301.15 301.15 0 0039.55 28.55c13.32 8 28.55 15.9 45.68 23.7l-.29-.29 1.15.29c-12.76-24.36-19.13-45.68-19.13-63.95 0-9.71 2.33-18.9 7-27.55a87.17 87.17 0 0118.27-23.27 340.78 340.78 0 0124.98-20.56 516.62 516.62 0 0027.4-22.12 230.6 230.6 0 0024.99-25.13c7.52-8.85 13.6-19.56 18.27-32.12 4.66-12.56 7-26.27 7-41.11 0-18.66-2.62-36.17-7.85-52.54-5.24-16.36-12.14-30.69-20.7-42.96-8.56-12.28-19.36-23.94-32.4-34.97a300.72 300.72 0 00-39.55-28.55c-13.32-8-28.55-15.9-45.68-23.7l.29.29-.86-.29c12.56 24.74 18.84 46.06 18.84 63.95 0 9.7-2.33 18.9-7 27.55a87.5 87.5 0 01-18.27 23.27 340.46 340.46 0 01-24.98 20.56 506.21 506.21 0 00-27.4 22.12 230.75 230.75 0 00-25 25.12c-7.5 8.86-13.6 19.56-18.26 32.12-4.66 12.57-7 26.27-7 41.12 0 18.65 2.61 36.16 7.85 52.53 5.24 16.37 12.14 30.7 20.7 42.97zM454.1 477.79a8.8 8.8 0 00-6.43-2.7H63.95c-2.47 0-4.62.9-6.42 2.7a8.78 8.78 0 00-2.72 6.42v18.27c0 2.48.9 4.62 2.72 6.43a8.77 8.77 0 006.42 2.71h383.72c2.47 0 4.61-.9 6.42-2.71a8.79 8.79 0 002.72-6.43v-18.27c0-2.47-.9-4.61-2.72-6.42z"/>
</svg>
