<svg xmlns="http://www.w3.org/2000/svg" fill="#ff0036" viewBox="0 0 15 15">
  <path  d="M9.74 11c.02 1.68-1.73 3.14-4.55 3.14-2.47 0-4.54-1.1-4.54-2.68 0-2.39 1.71-3.16 4.18-3.16h.78C5.27 7.98 5 7.7 5 7.2c0-.3.09-.57.22-.81l-.41.01c-2.03 0-3.21-1.4-3.21-3.15C1.6 1.54 3.4 0 5.55 0H9.8l-.95.96H7.74c.79.44 1.2 1.35 1.2 2.36 0 .92-.52 1.66-1.25 2.23-.72.55-.85.78-.85 1.25 0 .4.85 1 1.25 1.28C9.46 9.1 9.72 9.73 9.74 11zM5.63 5.7c1.09.03 1.71-.83 1.52-2.22-.18-1.4-.89-2.45-1.98-2.48-1.08-.03-2.04.94-1.85 2.33.19 1.4 1.22 2.34 2.31 2.37zm2.55 5.43c0-.13 0-.27-.05-.4-.54-1.33-2.3-1.33-2.88-1.33-1.57 0-2.87.58-2.87 1.68s1.16 2.02 2.76 2.02c2.26 0 3.04-.85 3.04-1.97zM15 2.68h-2.05v2.03h-.68V2.68h-2.04v-.66h2.04V0h.68v2.02H15z"/>
</svg>
