<svg xmlns="http://www.w3.org/2000/svg" viewBox="0 0 29.67 29.67">
  <path d="M29.4 15.85a4 4 0 01-.86 1.44 2040.4 2040.4 0 01-11.29 11.32 3.44 3.44 0 01-4.92-.01L1.04 17.3a3.44 3.44 0 010-4.91c3.76-3.78 7.52-7.55 11.3-11.3a3.42 3.42 0 014.8-.12c1.76 1.7 3.46 3.45 5.18 5.17l-7.66 7.65-3.32-3.3C9.93 9.07 8.41 9.07 7 10.47l-2 2a2.69 2.69 0 000 3.96l7.69 7.7c1.2 1.2 2.81 1.19 4.02-.02l11.4-11.4c.12-.12.22-.26.31-.39.97.69 1.43 2.26.99 3.52zm-14.66.5h-.2c-.1-.15-.18-.3-.3-.42L9.9 11.57c-.53-.52-1.06-.53-1.58-.01l-2.1 2.1c-.55.55-.55 1.05 0 1.6 2.53 2.55 5.07 5.1 7.62 7.64.52.52 1.05.53 1.57 0L29.3 9.03c.51-.51.5-1.03 0-1.54l-2-2c-.69-.7-1.14-.7-1.83 0L15.05 15.9c-.13.13-.21.3-.32.46z"/>
</svg>
