<svg width="38" height="38" fill="none" xmlns="http://www.w3.org/2000/svg"><path fill-rule="evenodd" clip-rule="evenodd" d="M0 0h38v38H0V0z" fill="#D71A21"/><path fill-rule="evenodd" clip-rule="evenodd" d="M20.677 9.424a1.62 1.62 0 00-.372 1.021v3.207a1.166 1.166 0 01-.275.661c-.089.084-.611.528-.656.578l.293.008c.097-.083 1.107-.929 1.205-1.046.292-.301.46-.695.46-1.105V9.667c-.008-.31.116-.62.346-.846.124-.126.514-.436.585-.51l-.31-.01c-.062.076-1.17 1.022-1.276 1.123zM18.187 21.087l1.232 1.013h.824c.788 0 1.55-.293 2.109-.82.505-.478.691-1.123.691-1.726v-1.666a1.322 1.322 0 00-.478-.988l-.417-.377v1.282s.399.385.47.46c.363.368.363 1.038-.798 2.102-.204.184-.78.703-1.577.703l-2.056.017z" fill="#fff"/><path fill-rule="evenodd" clip-rule="evenodd" d="M21.616 14.246c-.133.134-.265.469-.265.77v.628h.673c.266 0 .611-.226.682-.343v-.628c.098.134.222.26.364.36.07-.084.691-.787 1.205-.795.86-.009.665 1.021.32 1.348-.116.108-.621.544-.78.686-.408.369-1.108.193-1.108-.753 0 0-.745.67-.86.761-.115.092-.496.478-.496.478v1.666c0 .795-.275 1.063-.505 1.306-.089.092-1.037.913-1.17 1.005l-.31.008s.558-.477.664-.586c.124-.126.275-.377.275-.795l-.018-2.613h-4.325c-1.506 0-1.825-1.574-1.834-2v-1.583c0-.26-.177-.695-.452-.83h.425c.053.018.32.118.32 1.09 0 0-.018 1.121-.018 1.188 0 .494.416 1.055 1.01 1.055l4.892-.008c0-.125.133-.594.372-.845.133-.143 1.187-1.047 1.303-1.14h.31c-.045.043-.558.47-.665.587l-.009-.017zm1.604.946c.124.16.266.319.417.46.532.403.78-.033.425-.485-.142-.184-.682-.134-.842.025z" fill="#fff"/><path fill-rule="evenodd" clip-rule="evenodd" d="M17.974 18.172c0 .226-.753.821-.798.854-.053-.242-.248-.502-.806-1.038l.824-.779c.558.528.78.645.78.963zM19.41 9.222c.168.16.522.578.31.787-.186.176-.479.46-.479.46-.018-.1-.292-.35-.292-.35v.845c-.01.343-.142.435-.142.435s.665.62.665 1.424v.82a.543.543 0 01-.169.419 20.52 20.52 0 01-.77.728.74.74 0 01-.506.176h-2.295c-.364 0-.736-.268-.736-.536l.009-.804c.115.126.239.276.523.276.23 0 .46-.167.522-.234.063-.067 1.738-1.708 1.738-1.708s-.78-.687-1.294-1.013c-.249-.16-.585.041-.639.25-.159.654 0 1.642 0 1.642l-.629-.595c-.257-.242-.248-.787.062-1.071.044-.05.514-.536 1.1-.536h.912c.611 0 1.285.577 1.285.577a.361.361 0 00.097-.2c0-.302-.008-1.097-.008-1.097-.461-.436-.523-.888-.302-1.097.417-.394.567-.528.567-.528s-.017.478.47.93zm-2.88 4.354c-.231.226-.267.276-.48.402h2.588c.7 0 .559-.41.435-.62-.257-.427-1.073-1.214-1.073-1.214l-1.47 1.432z" fill="#fff"/><path fill-rule="evenodd" clip-rule="evenodd" d="M13.578 15.803h-.425s.452.235.452.846v1.95c0 1.265 1.108 2.438 2.455 2.438h1.125c.674 0 .913-.151 1.32-.494.151-.126.346-.335.417-.41.23-.252.488-.453.488-1.106v-.636c0-.553-.337-.779-.506-.938-.106-.1-.39-.36-.39-.36V18.4s.284.285.408.377c.585.436.124 1.19-.425 1.19h-2.473c-.904.016-2.136-.746-2.136-2.036v-1.055c.01-1.071-.31-1.071-.31-1.071z" fill="#fff"/><path fill-rule="evenodd" clip-rule="evenodd" d="M16.29 18.182c0 .226-.753.82-.798.854-.053-.243-.248-.503-.806-1.039l.824-.778c.55.519.78.636.78.963zM7.65 26.847H6.32c-.416 0-.38-.326-.425-.603v-1.791s.292-.009.62-.009c.364 0 .825-.05 1.268.184-.23-.46-.727-.745-1.268-.728h-.611v-.578s0-.502-.133-.645h.877c.753 0 1.338-.008 1.95.369 0 0-.115-.946-1.578-.946H4.167s.496.401.478 1.214l.018 3.265c0 .82.346.846.346.846h2.809c.638 0 .86-.427.86-.662l.008-.31s-.204.394-1.037.394zM15.13 26.57v-2.285c0-.888-.763-1.122-1.339-1.122-.753 0-.984.595-1.081.804-.169-.553-.762-.804-1.24-.804-.914 0-1.144.82-1.144.82s-.018-.795-.753-.795h-.718s.416.16.416.846v2.537c0 .837.355.854.355.854h1.187c-.284-.201-.452-.52-.452-.863V24.31c.018-.1.195-.435.7-.435.293 0 .612.284.603.602v2.094c0 .845.354.854.354.854h1.188a1.067 1.067 0 01-.452-.863V24.31c.115-.327.487-.511.841-.402.266.084.453.31.461.578v2.084c.01.854.355.846.355.846h1.187a1.055 1.055 0 01-.47-.846h.001zM17.203 26.571c0 .335.168.653.452.854h-1.188s-.363.009-.363-.845v-2.554c0-.67-.408-.846-.408-.846h.718c.257 0 .78 0 .78.946v2.428l.009.017zM20.854 23.506s-.115-.301-.603-.301c-.744 0-.921.837-.921.837-.062-.661-.248-.854-.771-.854h-.718s.416.16.416.846v2.537c0 .837.355.854.355.854h1.187c-.283-.201-.452-.52-.452-.854v-2.085a.599.599 0 01.293-.427.97.97 0 011.232.167l-.018-.72zM26.375 23.657c.248 0 .488.059.7.168v-.636h-.992v-.972a3.696 3.696 0 01-.798.846c-.337.26-1.045.586-1.045.586l.753.008v2.948c0 .82.363.82.363.82h1.179a1.039 1.039 0 01-.46-.829v-2.939h.3zM29.973 24.939c-.665.653-1.187.552-1.604 1.038 0 0 .071.653.594.879.177.075.913.326 1.382-.444v.687s-.3.334-1.267.334c-1.16 0-1.958-.862-1.958-2.034 0-1.155.646-2.219 1.878-2.227 1.197-.017 1.852.904.975 1.766zm-.726-.268c.195-.344.354-1.215-.32-1.164-.78.058-.629 2.01-.629 2.01.257-.269.647-.327.949-.846zM16.654 22.845a.533.533 0 00.531-.52c-.009-.284-.257-.502-.55-.502-.292.009-.53.235-.53.511 0 .285.247.51.549.51zM22.086 26.94c-.266 0-.46-.268-.46-.536 0-1.055.912-1.206 1.16-1.482v1.783c-.115.084-.222.235-.7.235zm.7-2.428c-.275.452-2.42.552-2.091 2.118.133.62.567.804 1.116.804.532 0 .86-.26.993-.51.08.468.336.502.336.502h1.188c-.284-.201-.46-.511-.46-.846v-2.386c0-.57-.665-1.013-1.375-1.013-.398-.009-.78.1-1.107.31v.736s.248-.586.86-.586c.602 0 .646.285.646.427a.722.722 0 01-.106.444zM32.597 26.27c.008.3-.275.695-.878.695-.62 0-.868-.595-.868-.595v.753c.337.201.726.302 1.125.302.807 0 1.63-.578 1.613-1.39a1.246 1.246 0 00-.274-.737c-.275-.343-.772-.586-1.161-.812-.222-.126-.337-.36-.337-.436-.009-.142.07-.427.664-.427.586 0 .842.587.842.587v-.712a2.058 2.058 0 00-1.134-.335c-.709 0-1.356.444-1.338 1.013.009.503.23.82.665 1.13.195.135.399.252.611.36.337.176.46.394.47.603z" fill="#fff"/></svg>