<svg width="100" height="28" fill="none" xmlns="http://www.w3.org/2000/svg"><path d="M18.174 24.616c-.208.026-.416.026-.624.026-.234 0-.468-.026-.702-.026l.702-1.668.624 1.668zm.78 1.9c.13 0 .312-.052.494-.052s.442.026.546.051c-.312-.667-.754-1.668-1.014-2.258-.234-.565-.65-1.515-.988-2.439-.078.026-.156.026-.208.026-.078 0-.156-.026-.234-.026-.156.565-.572 1.438-1.248 2.952l-.806 1.745c.104-.025.182-.051.312-.051.104 0 .234.026.338.051.104-.385.338-.95.546-1.463.286-.025.546-.025.832-.025.286 0 .572.025.884.025l.286.719c-.026 0 .26.744.26.744zm1.638-3.08c0 1.154 0 2.258-.078 3.08.156 0 .338-.052.494-.052.156 0 .312.026.468.051-.052-.539-.078-1.283-.078-2.284 0-.693 0-1.848.078-2.361a3.221 3.221 0 01-.494.051c-.104 0-.364-.026-.494-.051.104.667.104 1.155.104 1.565zm4.082.77c.624-.103 1.196-.514 1.196-1.258a1.08 1.08 0 00-.312-.77c-.286-.283-.624-.334-1.066-.334-.156 0-.962.026-1.118.026-.338 0-.52-.026-.676-.026.052.873.052.975.052 1.848 0 1.309 0 1.463-.052 2.772.156-.026.312-.051.468-.051.182 0 .312.025.468.051 0-.18-.026-1.052-.026-1.232v-.95h.156c.364.514.806 1.104 1.144 1.643.104.154.26.41.364.565.208-.026.286-.052.546-.052.234 0 .416.026.598.052-.442-.54-.624-.77-1.144-1.515-.104-.154-.26-.359-.364-.513l-.234-.257zm-1.118-1.951c.104 0 .364-.026.494-.026.234 0 .442.026.624.18.234.18.286.41.286.693 0 .436-.26.924-.936.924-.182 0-.338-.026-.468-.026v-1.745zm4.68 2.669c-.312-.95-.754-2.259-.988-3.054-.182.025-.312.051-.468.051-.156 0-.39-.026-.546-.051.286.718.52 1.386.702 1.899.312.873.52 1.489.754 2.233l.182.513c.104-.025.208-.051.286-.051.078 0 .156.026.26.051.104-.359.234-.795.338-1.052.26-.77.312-.873.65-1.848l.208-.565c.078.206.208.565.286.77.078.206.416 1.232.52 1.463.104.308.13.385.39 1.207.052 0 .182-.052.286-.052.104 0 .182.026.286.052.26-.796.286-.873.676-1.977a47.086 47.086 0 011.014-2.669 1.319 1.319 0 01-.312.051.98.98 0 01-.312-.051c-.234.873-.364 1.309-.572 1.874-.312.95-.364 1.052-.572 1.565-.208-.59-.442-1.18-.624-1.77-.104-.334-.52-1.669-.546-1.695-.104.026-.156.052-.312.052-.13 0-.208-.026-.312-.052-.208.822-.936 2.824-.988 3.003l-.182.437-.104-.334zm6.916-.308c-.208.026-.416.026-.624.026-.234 0-.468-.026-.702-.026l.702-1.668.624 1.668zm.754 1.9c.13 0 .312-.052.52-.052.182 0 .442.026.546.051-.312-.667-.754-1.668-1.014-2.258-.234-.565-.65-1.515-.988-2.439-.078.026-.156.026-.208.026-.078 0-.156-.026-.234-.026-.156.565-.572 1.438-1.248 2.952l-.806 1.745c.104-.025.182-.051.312-.051.104 0 .234.026.338.051.104-.385.338-.95.546-1.463.286-.025.546-.025.832-.025.286 0 .572.025.884.025l.286.719c-.052 0 .234.744.234.744zm2.886-1.823c0-.051.052-.128.078-.205.286-.488.546-1.001.858-1.489.104-.154.598-.95.702-1.13a.811.811 0 01-.286.052c-.156 0-.286-.026-.39-.051-.494 1.078-.598 1.309-1.196 2.284-.572-1.001-.832-1.54-1.196-2.284-.208.025-.39.051-.572.051-.156 0-.312-.026-.572-.051.364.59.936 1.514 1.274 2.104l.416.693c0 .411-.026 1.31-.052 1.823.13-.026.312-.052.468-.052.156 0 .312.026.468.052-.026-.616-.052-1.001-.052-1.566v-.231h.052zm2.054.796c-.026.333-.052.41-.156.77a2.72 2.72 0 001.274.333c1.248 0 1.742-.795 1.742-1.488 0-.18-.052-.59-.338-.899-.208-.205-.416-.282-.936-.487-.598-.231-.962-.36-.962-.847 0-.411.26-.719.806-.719.442 0 .806.205.884.59h.104c.052-.256.078-.308.208-.641-.338-.154-.65-.283-1.144-.283-1.248 0-1.586.745-1.586 1.36 0 .565.208.899.858 1.207.182.077.52.205.702.282.13.052.572.231.572.77 0 .488-.364.847-.884.847-.416 0-.754-.102-1.066-.77h-.078v-.025z" fill="#505967"/><path d="M92.17 12.707c0 .128-1.872.256-4.524.359a7.7 7.7 0 01-1.092-.744c3.25.102 5.616.23 5.616.385zm-1.898-4.415c0 .103-1.56.205-3.796.308.312-.18.65-.36.988-.565 1.69.077 2.808.154 2.808.257zm-16.588 9.497c-1.04 0-1.924.025-2.652.025-1.014 0-1.846-.308-1.846-.693 0-.385.832-.693 1.846-.693.91 0 2.132 0 3.51.026-.546.77-.806 1.232-.832 1.258 0 .025-.026.051-.026.077zm.546.924c.338.41.676.744 1.092 1.129 0 0 .156.231.676.026.52-.206.936-.488 1.43-1.13l4.394.077c.13.18.364.54.676.976-4.134.102-8.606.18-10.894.18-.962 0-1.742-.283-1.742-.642 0-.36.78-.642 1.742-.642.702 0 1.586 0 2.626.026zm-1.586 3.413c-.858 0-1.534-.256-1.534-.564 0-.308.676-.565 1.534-.565 2.236 0 6.838.077 10.79.18.182.256.39.539.572.77-4.082.102-9.022.18-11.362.18zm13.078 1.848c-3.302.154-8.996.231-11.362.231-.676 0-1.196-.205-1.196-.462 0-.256.546-.462 1.196-.462 2.262 0 7.566.077 10.92.231.156.18.286.334.442.462zm-8.632 1.232c1.95 0 7.904.154 7.904.334 0 .18-5.954.334-7.904.334-.39 0-.676-.154-.676-.334-.026-.205.286-.334.676-.334zm.026-11.883c-2.47.051-4.654.077-6.084.077-1.014 0-1.846-.308-1.846-.693 0-.385.832-.693 1.846-.693 1.638 0 4.342.025 7.28.077-.442.436-.832.847-1.196 1.232zm12.038-3.08c1.43.077 2.34.154 2.34.256 0 .103-1.092.18-2.782.283.364-.283.442-.514.442-.54zm-17.55.898c-.962 0-1.742-.282-1.742-.642 0-.359.78-.641 1.742-.641 1.95 0 5.512.051 9.1.128-.442.36-.858.719-1.248 1.078a541.11 541.11 0 01-7.852.077zm10.66-2.438a395.2 395.2 0 01-9.62.154c-.858 0-1.534-.257-1.534-.565 0-.308.676-.59 1.534-.59 2.236 0 6.838.077 10.764.18-.208.128-.39.282-.598.436l-.546.385zM74.36 6.52c-.676 0-1.196-.205-1.196-.462s.546-.462 1.196-.462c2.522 0 8.762.103 11.96.257-.208.128-.416.256-.598.41-3.354.154-8.996.257-11.362.257zm-3.51 9.086c-1.04 0-1.872-.308-1.872-.693 0-.385.832-.693 1.872-.693 1.3 0 3.25.026 5.434.051-.416.488-.78.924-1.066 1.31-1.768.025-3.302.025-4.368.025zm5.538-11.293c0-.18.312-.334.676-.334 1.95 0 7.904.154 7.904.334 0 .18-5.954.333-7.904.333-.364-.025-.676-.154-.676-.333z" fill="#747F8A"/><path d="M15.314 12.424c0-4.876-3.77-6.93-7.592-6.93C3.562 5.494 0 7.753 0 12.912c0 1.104.234 3.157 1.976 4.877 1.794 1.796 3.9 2.053 5.694 2.053.234 0 .442 0 .676-.026l4.706 3.62c.624-.437 1.586-.95 2.288-1.258l-4.654-2.85c2.834-.975 4.628-3.49 4.628-6.904zm-3.848 4.338a4.474 4.474 0 01-3.77 2.053c-3.796 0-4.888-3.567-4.888-5.8 0-5.108 2.782-6.494 4.862-6.494 3.38 0 4.836 2.746 4.836 5.698 0 1.694-.208 3.26-1.04 4.543zm12.87-11.32c-.234.052-.442.104-.65.104-.234 0-.442-.052-.676-.103-.494 1.668-1.69 4.286-3.77 8.88l-2.392 5.237c.286-.052.572-.129.936-.129.338 0 .728.077.988.129.338-1.155.988-2.85 1.638-4.39a39.71 39.71 0 012.47-.076c.884 0 1.742.05 2.626.077l.858 2.156.858 2.258c.364-.025.936-.128 1.508-.128s1.3.103 1.612.128c-.936-1.976-2.288-5.03-3.068-6.801-.728-1.72-1.976-4.57-2.938-7.341zM23.01 13.99c-.728 0-1.404-.051-2.132-.077l2.106-4.98 1.924 4.98c-.65.026-1.274.077-1.898.077zm13.312 2.798c0 1.54.078 2.207.156 2.772-.598-.052-1.248-.129-1.508-.129-.338 0-.65.052-1.404.129.078-1.54.208-3.106.208-4.646l-.026-5.647c0-.744-.026-1.463-.052-2.258h-1.04c-.182 0-2.158.05-3.198.154.052-.231.104-.514.104-.745 0-.23-.052-.513-.104-.744 1.612.103 3.9.128 5.486.128 1.716 0 3.51-.025 5.486-.128-.052.334-.104.616-.104.77 0 .23.052.41.104.719-1.222-.129-2.678-.154-4.082-.154a62.599 62.599 0 00-.052 2.258v7.52h.026zM48.36 15.17l.858 2.156.858 2.258c.364-.025.936-.128 1.508-.128s1.3.103 1.612.128c-.936-1.976-2.288-5.03-3.068-6.801-.728-1.694-1.976-4.543-2.964-7.315-.234.05-.442.102-.65.102-.234 0-.442-.051-.676-.102-.494 1.668-1.69 4.286-3.77 8.88l-2.392 5.236c.286-.051.572-.128.936-.128.338 0 .728.077.988.128.338-1.155.988-2.849 1.638-4.389a39.632 39.632 0 012.47-.077c.91-.051 1.768 0 2.652.052zm-2.522-6.263l1.924 4.98a23 23 0 01-1.898.076c-.728 0-1.43-.051-2.132-.077l2.106-4.98zm16.224 4.569l-.572-.822c1.872-.333 3.562-1.488 3.562-3.747 0-.847-.338-1.694-.936-2.259-.884-.821-1.898-1-3.224-1-.468 0-2.86.102-3.38.102a16.92 16.92 0 01-2.054-.103c.156 2.618.156 2.9.156 5.544 0 3.902-.026 4.364-.182 8.342.442-.051.936-.128 1.404-.128.52 0 .962.077 1.378.128 0-.54-.078-3.131-.078-3.722v-2.874h.494c1.118 1.54 2.392 3.336 3.432 4.928.312.462.754 1.206 1.066 1.694.624-.077.858-.129 1.664-.129.728 0 1.248.052 1.82.129-1.3-1.592-1.846-2.31-3.458-4.57a20.32 20.32 0 01-1.092-1.513zm-3.952-1.49v-5.26c.312-.026 1.066-.103 1.456-.103.676 0 1.352.102 1.898.513.728.539.858 1.258.858 2.105 0 1.309-.754 2.797-2.808 2.797-.52.026-1.014-.025-1.404-.051zm41.002-9.11c0 .102-.078.153-.312.256-6.292 2.31-10.946 4.466-13.936 6.442 0 0-.312.18-.312.385 0 .077.156.103.156.103 1.508.026 3.484.103 4.446.18 0 0-.13.487-1.04.847-.702.308-1.352.256-2.002.256-.156 0-.26.129-.156.283.052.077 1.43 2.258 6.396 2.746.026.36 0 .693 0 1.052-3.458.129-6.734.334-6.734.565 0 .23 3.198.436 6.63.565-.052.385-.13.77-.234 1.155-3.38.128-6.5.333-6.5.564 0 .206 2.912.41 6.162.54-.156.41-.312.795-.494 1.18-2.782.128-5.07.308-5.07.488s2.002.333 4.524.462a5.96 5.96 0 01-.442.667c-.156.23-.338.462-.52.693-1.586.128-2.652.257-2.652.385s.78.23 1.976.334a11.03 11.03 0 01-2.34 1.745s-1.066-.898-1.95-1.976c-.78-.95-2.47-3.44-2.86-4.004-.39-.565-.65-.72-1.118-.565-.624.205-1.326.334-1.56.334-.208 0-.338-.077.026-.231.364-.154 1.82-.822 2.548-2.233.806-1.592.104-3.773.104-3.773-.26 1.155-.884 1.59-.884 1.59.208-1.077-.026-2.052-.572-2.745l-.312 1.36s-.182 0-.65.385-.598.95-.598.95c.364.154.806-.231.806-.231-.572 2.079-1.378 3.798-1.976 4.697-.598.898-1.066 1.232-1.664 1.463-.494.205-.676-.026-.676-.026-.442-.36-.754-.719-1.092-1.13 0 0-.026-.05.052-.05.234 0 .676-.411.78-.591.104-.205.104-.334.052-.36-.052 0-.156.155-.624.437-.468.282-.676.077-.832-.077-.13-.128 0-.282.078-.385.078-.077 2.548-4.646 9.074-9.42C91.364 1.927 96.85.233 97.162.13c.208-.076.546-.179.624-.102.078.077.13.154.104.257 0 .103-.078.154-.468.334-3.276 1.437-7.124 3.824-9.308 5.21-2.678 1.283-5.252 3.131-5.33 3.183-.208.128-.052.308.078.23 4.524-2.977 9.828-5.004 15.704-6.647.286-.077.442-.077.468-.026.052.154.078.231.078.308zM62.686 22.587c-.286 0-.39-.077-.39-.333 0-.231.078-.385.39-.385.338 0 .468.154.468.385 0 .205-.182.333-.468.333zm-1.092 0c-.286 0-.39-.077-.39-.333 0-.231.078-.385.39-.385.338 0 .468.154.468.385.026.205-.182.333-.468.333zm4.082.077c.156-.128.884-.616.884-.616v4.466h-.806v-3.593c-.182.026-.234-.128-.078-.257zM48.75 27.183c0 .23-.208.333-.468.333-.286 0-.39-.077-.39-.333 0-.231.078-.36.39-.36.338-.025.468.129.468.36zm1.092 0c0 .23-.182.333-.468.333-.286 0-.39-.077-.39-.333 0-.231.078-.36.39-.36.338-.025.468.129.468.36zm.884-3.311s-.52.282-.832.564c-.312.283.078.385.078.385v.95h-2.444v-3.337s-.884.822-.988.924c-.078.103.208.231.208.231l-.052.308s-.364.18-.78.462c-.416.283-.754.642-.754.899 0 .256-.104 1.232-.104 1.232h5.668v-2.618zm-4.004 1.899h-.832s-.104-.513.182-.719c.312-.205.65-.36.65-.36v1.079zm-.026-3.824c.338 0 .468.154.468.385 0 .23-.182.333-.468.333-.286 0-.39-.077-.39-.333 0-.257.078-.385.39-.385zm-1.04 0c.338 0 .468.154.468.385 0 .23-.208.333-.468.333-.286 0-.39-.077-.39-.333 0-.257.078-.385.39-.385zm18.668.975v2.849h-1.092v-2.592s-.234.077-.52.205c-.312.128-1.378.565-1.378 1.155v.693h1.118v.539h-2.626v-.59c0-.847-.728-1.31-1.378-1.31h-3.042c-.52 0-.78.129-.936.283v-2.207l-.832.59c-.338.257 0 .436 0 .436v2.798h-.988l-.026-2.387s-.702.488-.884.642c-.182.154-.078.282.13.282 0 0-.052 1.77-.052 2.182 0 .41-.364.898-1.092.693 0 0-.234.05-.052.23.182.18.416.309.702.309.26 0 1.222-.18 1.222-1.207H65.13V22.05s-.728.488-.884.616c-.156.129-.104.283.078.257zm-5.304 2.336v.513h-4.55v-.796c.13-.308.312-.333.624-.333h3.328c.702.025.598.385.598.616zm3.432-.59h-.52c0-.283.52-.437.52-.437v.436z" fill="#5C0632"/></svg>