<svg xmlns="http://www.w3.org/2000/svg" viewBox="0 0 512 512">
  <path d="M506.76 242.83l-118.4-125.44a19.19 19.19 0 10-27.92 26.35L466.4 256 360.44 368.27a19.2 19.2 0 0027.92 26.37l118.4-125.45a19.2 19.2 0 000-26.36zM151.57 368.26L45.6 256l105.96-112.26a19.2 19.2 0 00-27.93-26.36L5.24 242.82a19.2 19.2 0 000 26.36l118.4 125.45c3.78 4 8.87 6.02 13.97 6.02a19.2 19.2 0 0013.96-32.38zM287.06 52.7a19.22 19.22 0 00-21.88 16.08l-56.32 368.64a19.2 19.2 0 0037.96 5.8l56.32-368.64a19.2 19.2 0 00-16.08-21.88z"/>
</svg>
