<svg xmlns="http://www.w3.org/2000/svg" viewBox="0 0 24 24">
  <defs/>
  <path d="M12 0C5.38 0 0 5.38 0 12s5.38 12 12 12 12-5.38 12-12S18.62 0 12 0zM1.21 12c0-1.56.33-3.05.93-4.39l5.15 14.1A10.8 10.8 0 011.21 12zM12 22.79c-1.06 0-2.08-.15-3.05-.44l3.24-9.4 3.31 9.08.08.15c-1.12.4-2.32.61-3.58.61zm1.49-15.85c.64-.03 1.23-.1 1.23-.1.58-.07.51-.92-.07-.89 0 0-1.75.14-2.87.14-1.06 0-2.84-.14-2.84-.14-.59-.03-.65.86-.07.9 0 0 .55.06 1.13.1l1.68 4.6-2.36 7.08L5.39 6.94c.65-.03 1.23-.1 1.23-.1.58-.07.52-.92-.06-.89 0 0-1.75.14-2.88.14-.2 0-.44 0-.7-.02a10.78 10.78 0 0116.3-2.03h-.13c-1.06 0-1.81.91-1.81 1.9 0 .9.51 1.65 1.06 2.54.4.71.89 1.64.89 2.97 0 .93-.36 2-.83 3.5l-1.07 3.59zm7.98-.12a10.78 10.78 0 01-4.04 14.5l3.29-9.52c.61-1.54.82-2.77.82-3.87a8 8 0 00-.07-1.1z"/>
</svg>
