<svg width="190" height="218" viewBox="0 0 190 218" fill="none" xmlns="http://www.w3.org/2000/svg">
<path d="M0 131L136 165V218L0 183.718V131Z" fill="#242424"/>
<path d="M190 136L136 165V218L190 188.319V136Z" fill="#464B4C"/>
<path d="M0 66L136 100V153L0 118.718V66Z" fill="#004D76"/>
<path d="M190 71L136 100V153L190 123.319V71Z" fill="#007BB5"/>
<path d="M0 66L136 100V153L0 118.718V66Z" fill="#004D76"/>
<path d="M190 71L136 100V153L190 123.319V71Z" fill="#007BB5"/>
<path d="M0 0L136 34V87L0 52.7183V0Z" fill="#004D76"/>
<path d="M190 5L136 34V87L190 57.319V5Z" fill="#007BB5"/>
<path d="M0 0L136 34V87L0 52.7183V0Z" fill="#DBB500"/>
<path d="M190 5L136 34V87L190 57.319V5Z" fill="#FBCF00"/>
</svg>
