<svg width="80" height="80" viewBox="0 0 80 80" fill="none" xmlns="http://www.w3.org/2000/svg">
<path d="M75.9375 0.9375H4.0625C2.33398 0.9375 0.9375 2.33398 0.9375 4.0625V75.9375C0.9375 77.666 2.33398 79.0625 4.0625 79.0625H75.9375C77.666 79.0625 79.0625 77.666 79.0625 75.9375V4.0625C79.0625 2.33398 77.666 0.9375 75.9375 0.9375ZM52.666 40.8594L33.1934 56.1719C32.4707 56.7383 31.4062 56.2305 31.4062 55.3125V24.6973C31.4062 23.7793 32.4707 23.2617 33.1934 23.8379L52.666 39.1406C52.796 39.243 52.9011 39.3735 52.9734 39.5224C53.0456 39.6712 53.0832 39.8345 53.0832 40C53.0832 40.1655 53.0456 40.3288 52.9734 40.4776C52.9011 40.6265 52.796 40.757 52.666 40.8594Z" fill="#0A5EBD"/>
</svg>
