<svg xmlns="http://www.w3.org/2000/svg" viewBox="0 0 490 490">
  <path d="M42.31 0v490H447.7V0H42.3zm384.96 469.58H62.73V20.42h364.54v449.16z"/>
  <path d="M395.66 49.79H94.33v128.27h301.33V49.79zm-20.42 107.85H114.75V70.2h260.5v87.44zM161.57 223.03h-20.41v32.69h-32.7v20.41h32.7v32.7h20.41v-32.7h32.7v-20.41h-32.7zM108.47 405.04h85.79v20.42h-85.79zM295.74 405.04h85.79v20.42h-85.79zM295.74 358.53h85.79v20.42h-85.79zM300.13 308h15.34l60.84-83.08H361zM315.05 222.9c-9.94 0-18 8.57-18 19.13 0 10.57 8.06 19.13 18 19.13s18-8.56 18-19.13c0-10.56-8.06-19.13-18-19.13zm0 27.57c-3.75 0-6.79-3.78-6.79-8.44s3.04-8.43 6.79-8.43 6.79 3.77 6.79 8.43-3.04 8.44-6.79 8.44zM344.3 289.99c0 10.56 8.05 19.12 18 19.12 9.93 0 17.98-8.56 17.98-19.12 0-10.57-8.05-19.13-17.99-19.13-9.94 0-18 8.56-18 19.13zm24.78 0c0 4.65-3.04 8.43-6.79 8.43s-6.78-3.77-6.78-8.43 3.04-8.44 6.78-8.44 6.79 3.78 6.79 8.44z"/>
</svg>
