<svg xmlns="http://www.w3.org/2000/svg" viewBox="0 0 490 490">
  <path d="M352.91 152.59H137.09v115.35h215.82V152.59zm-20.42 94.93H157.51V173h174.98v74.52zM321.4 289.8a41.68 41.68 0 00-45.27 45.24 41.72 41.72 0 0037.66 37.67 41.67 41.67 0 0045.26-45.24 41.72 41.72 0 00-37.64-37.68zm-1.66 62.56a21.24 21.24 0 01-23.25-23.29 21.3 21.3 0 0118.93-18.92 21.24 21.24 0 0123.27 23.3 21.3 21.3 0 01-18.95 18.91zM176.22 289.8a41.68 41.68 0 00-45.28 45.23 41.73 41.73 0 0037.65 37.68 41.68 41.68 0 0045.28-45.24 41.72 41.72 0 00-37.65-37.68zm-1.66 62.56a21.24 21.24 0 01-23.26-23.3 21.3 21.3 0 0118.95-18.91 21.24 21.24 0 0123.26 23.3 21.3 21.3 0 01-18.95 18.9z"/>
  <path d="M221.44 184.51h47.11v20.42h-47.11z"/>
  <path d="M448.25 148.78V0H41.75v148.78h51.87v40.85H52.69v100.75h40.95v172.87A26.75 26.75 0 00120.36 490h28.96a26.75 26.75 0 0026.75-26.75v-49.13h137.84v49.13A26.75 26.75 0 00340.67 490h28.96a26.74 26.74 0 0026.75-26.74V290.38h40.94V189.63h-40.94v-40.85h51.87zM62.17 128.36V20.42h365.66v107.94h-31.45v-17H93.63v17H62.16zm10.92 141.6v-59.91h20.54v59.91H73.09zm82.57 193.3c0 3.49-2.83 6.32-6.33 6.32h-28.96a6.33 6.33 0 01-6.33-6.33v-49.14h41.62v49.14zm220.3 0c0 3.49-2.83 6.32-6.33 6.32h-28.96a6.33 6.33 0 01-6.33-6.33v-49.13h41.62v49.13zm40.95-253.21v59.91h-20.54v-59.91h20.54zM375.96 393.7H114.04V131.77h261.92V393.7z"/>
</svg>
