<svg xmlns="http://www.w3.org/2000/svg" width="40" height="40" fill="#ff681d"  xmlns:v="https://vecta.io/nano"><path d="M29.87 25.07c1.334.9 1.964 3.595 2.095 4.555l.995 7.05 1.04-.128-.994-7.057c-.02-.156-.547-3.873-2.514-5.207-.66-.414-1.365-.758-2.106-1.025a.53.53 0 0 0-.146-.075l-.433-.144-1.992-.65-.405-.133c-.04-.014-.08-.022-.124-.026l-2.574-.693v-1.077c1.565-1.05 2.495-2.748 2.494-4.555v-.83c.175.06.36.09.544.094.875 0 1.584-.666 1.584-1.488v-1.327c0-.36-.142-.708-.396-.975a1.46 1.46 0 0 0 .247-.844v-.567c.024-.413-.114-.82-.39-1.145-.143-.14-.325-.24-.526-.287-.124-1.344-.803-5.29-4.426-6.833h-.032a8.33 8.33 0 0 0-2.982-.599h-.302a8.82 8.82 0 0 0-2.885.426h-.024c-4.012 1.386-4.735 5.598-4.848 6.993a1.1 1.1 0 0 0-.527.287c-.288.32-.438.728-.42 1.146v.583c-.008.297.078.59.246.842-.253.27-.395.617-.395.978v1.33c0 .822.7 1.487 1.584 1.487.186 0 .37-.032.543-.094v.833c.004 1.787.913 3.465 2.45 4.517v1.106c-1.853.454-3.68 1.005-5.466 1.653H8.76c-.792.278-1.547.642-2.252 1.08-1.967 1.347-2.493 5.06-2.515 5.208L3 36.538l1.04.127.994-7.06c.133-.957.76-3.64 2.078-4.557.42-.262.863-.485 1.327-.668v4.23c-.766.264-1.73 1.004-1.73 2.566v5.438c0 .27.232.488.52.488H29.8c.287 0 .518-.22.518-.488v-5.43c0-1.562-.972-2.3-1.732-2.564v-4.23c.452.187.88.416 1.286.68zm-3.568-12.718v1.33c-.023.28-.286.49-.585.47-.266-.02-.477-.22-.5-.47v-1.33c-.023-.282.2-.527.5-.55s.562.188.585.47c.003.027.003.055 0 .082zM19.238 2.1a7.27 7.27 0 0 1 1.85.379v2.47c-.428.58-1.104.95-1.85 1.018V2.1zm-2.89.244c.6-.162 1.223-.25 1.85-.267v3.905c-.746-.067-1.424-.44-1.85-1.02v-2.62zM11.788 13.68c-.024.28-.287.492-.585.47-.266-.02-.477-.218-.5-.47v-1.327c-.024-.282.2-.527.5-.55s.56.188.585.47c.003.027.003.055 0 .082v1.327zm-.544-2.817c-.1 0-.195.01-.3.025-.08-.1-.12-.228-.105-.355v-.59c-.006-.155.035-.308.12-.44.02-.016.046-.02.073-.018h.2c.287 0 .52-.22.52-.49 0-.227.068-4.557 3.543-6.256v2.344c0 .072.018.143.05.208s.883 1.692 3.356 1.692S22.037 5.355 22.07 5.3a.44.44 0 0 0 .047-.208v-2.1c3.046 1.826 3.118 5.802 3.118 6.02 0 .27.233.49.52.49h.2c.052 0 .063 0 .072.018a.75.75 0 0 1 .122.451v.58c.014.128-.026.256-.11.355-.51-.095-1.037.057-1.402.405H12.37a1.62 1.62 0 0 0-1.121-.427l-.003-.003zm1.583 5.05v-3.643h11.36v3.643c-.004 2.56-2.213 4.63-4.936 4.627h-1.496c-2.72-.001-4.925-2.07-4.93-4.627zm8.86 5.113v.722L18.5 25.573l-3.222-3.828v-.742c.777.34 1.622.514 2.477.515h1.496c.84 0 1.67-.17 2.434-.494zm-9.4 2.054l2.286-.61 3.945 4.686 3.9-4.686 2.327.622v5.59h-12.47l.01-5.603zm17.003 8.106v4.95H7.745v-4.95c0-1.473 1.16-1.685 1.285-1.706.258-.034.448-.24.448-.484v-5.012l1.766-.585v5.773c0 .27.232.49.52.49H25.27c.287 0 .52-.22.52-.49v-5.763l1.75.576v5.012a.5.5 0 0 0 .45.484c.053.007 1.29.18 1.29 1.706z"/><path d="M7.4 34.15h3.248v1.08H7.4v-1.08zm18.897 0h3.25v1.08h-3.25v-1.08z"/></svg>