<svg xmlns="http://www.w3.org/2000/svg" width="38" height="35" fill="#ff681d"  xmlns:v="https://vecta.io/nano"><path d="M30.427 7.45a.61.61 0 0 0-.735-.163l-1.062.408L25.364.468C25.242.223 25.038.1 24.793.1H14.177a.58.58 0 0 0-.49.245l-6 7.185a.55.55 0 0 0-.122.5.93.93 0 0 0 .245.45l6.002 4.45c.286.204.694.163.898-.123L18.63 7.5l1.878 3.348-1.184.612c-.245.122-.367.367-.327.612s.204.5.5.53l6.696 1.633h.163c.204 0 .408-.122.53-.286l3.593-5.757a.61.61 0 0 0-.041-.735zM14.055 11.5l-4.94-3.674 5.4-6.45h.857l2.654 4.94-3.96 5.185zm11.922 1.43l-4.532-1.102.245-.123c.163-.082.286-.204.327-.367a.72.72 0 0 0-.04-.5L19.28 6.02l-2.53-4.695h7.594l3.348 7.43c.123.245.408.408.653.367l-2.368 3.797zM16.3 23.943l-6.614-.286 1.715-3.43 1.143.653c.245.122.53.122.735-.082.204-.163.286-.45.163-.694l-2.4-6.45c-.082-.245-.327-.408-.612-.408l-6.818.245c-.286 0-.5.204-.572.45s.04.53.245.694l.94.653L.09 22.065a.7.7 0 0 0 0 .694l4.573 6.736L6.42 32.15c.122.163.327.286.53.286h9.3c.367 0 .653-.286.653-.653v-7.186c0-.327-.286-.612-.612-.653zM5.644 28.68l-4.246-6.287 4.287-6.94a.56.56 0 0 0-.082-.735l4.45-.204 1.633 4.4-.245-.123c-.163-.082-.327-.122-.5-.04-.163.04-.286.163-.367.327l-2.45 4.9-2.5 4.695zm9.962 2.5h-8.33l-.817-1.266 2.613-4.98 6.532.286v5.96zm22.334-9.36l-4.083-8.4c-.082-.163-.204-.286-.367-.327s-.327-.04-.5.082l-6.532 3.634c-.286.163-.408.572-.245.857l3.185 5.757-3.838.327-.04-1.306c0-.286-.204-.5-.45-.572a.66.66 0 0 0-.694.204l-4.246 5.43c-.163.204-.163.53-.04.735l3.797 5.634c.123.163.327.286.53.286.04 0 .122 0 .163-.04.245-.082.45-.327.45-.572l.04-1.143H33c.245 0 .5-.163.572-.367l4.37-9.676a.6.6 0 0 0 0-.53zm-5.267 9.35h-8.125c-.286 0-.53.204-.612.45l-2.5-3.715 2.9-3.715v.286c0 .163.082.327.204.45s.286.163.5.163l5.47-.5 5.308-.367-3.144 6.94zm3.674-8.288l-5.593.408-3.144-5.716 5.4-3.02 3.715 7.553-.367.776z"/></svg>