<svg xmlns="http://www.w3.org/2000/svg" viewBox="0 0 490 490" fill="#fdcc13">
  <path d="M364.62 126.55v-29.5h37.31V0H88.06v97.06h37.31v29.5H64.93V490h360.14V126.55h-60.45zM108.48 20.42h273.03v56.22H108.48V20.42zm37.31 76.64H344.2v29.5H145.8v-29.5zm258.87 372.52H85.34V146.97h319.32v322.61z"/>
  <path d="M120.96 239.8h248.07v20.42H120.96zM120.96 296.27h248.07v20.42H120.96zM120.96 352.74h248.07v20.42H120.96zM120.96 409.21h248.07v20.42H120.96zM151.6 49.4c-1.76-1.51-4.37-2.69-7.83-3.53-3.46-.83-5.72-1.61-6.78-2.34a3.56 3.56 0 01-1.6-3.13c0-1.38.53-2.4 1.6-3.07a7.47 7.47 0 014.08-1.02c1.66 0 3.34.3 5.04.87 1.7.58 3.06 1.32 4.06 2.22l3.04-4.3a16.7 16.7 0 00-5.5-2.99 20.2 20.2 0 00-6.43-1.06c-3.34 0-6.15.84-8.42 2.53-2.27 1.7-3.4 4.1-3.4 7.22 0 3.13 1 5.44 2.99 6.95 1 .8 2.14 1.46 3.43 1.96a47.6 47.6 0 005.65 1.64c2.47.6 4.22 1.26 5.24 1.98a3.52 3.52 0 011.52 3.04 3.7 3.7 0 01-1.62 3.14 7.27 7.27 0 01-4.37 1.19c-3.67 0-7.21-1.48-10.62-4.45l-3.57 4.3A20.52 20.52 0 00142.15 66c3.6 0 6.52-.91 8.74-2.75a8.85 8.85 0 003.33-7.17c0-2.94-.87-5.17-2.63-6.68zM158.09 37.09h10.23v28.53h5.7V37.1h10.23v-5.22H158.1zM205.12 31.05c-5.02 0-9.24 1.67-12.65 5a16.68 16.68 0 00-5.12 12.46c0 4.97 1.7 9.12 5.12 12.45 3.4 3.33 7.63 5 12.65 5 5.02 0 9.23-1.67 12.64-5a16.69 16.69 0 005.12-12.45c0-4.98-1.7-9.13-5.12-12.46-3.4-3.33-7.62-5-12.64-5zm8.47 26.12a11.33 11.33 0 01-8.47 3.58c-3.35 0-6.18-1.2-8.48-3.58a12.03 12.03 0 01-3.45-8.66c0-3.4 1.15-6.29 3.45-8.67a11.33 11.33 0 018.48-3.57c3.34 0 6.17 1.19 8.47 3.57a12.03 12.03 0 013.45 8.67c0 3.4-1.15 6.28-3.45 8.66zM257.02 42.83c0-3.83-1.11-6.61-3.33-8.35-2.22-1.74-5.91-2.6-11.06-2.6h-12.55v33.74h5.7V54.27h7.48l8.06 11.35h7.25l-8.84-12.26c4.86-1.45 7.3-4.96 7.3-10.53zm-14.15 6.28h-7.1V37.04h7.25c3.05 0 5.18.4 6.37 1.23 1.2.82 1.79 2.33 1.79 4.54 0 2.2-.58 3.8-1.74 4.8-1.16 1-3.35 1.5-6.57 1.5zM275.42 31.87l-14.88 33.75h6.08l3.38-7.68h16.9l3.38 7.68h6.09L281.5 31.87h-6.08zm-3.1 20.81l6.14-13.9 6.13 13.9h-12.27zM324.42 58.47c-2.16 1.4-4.84 2.08-8.04 2.08-3.2 0-5.93-1.09-8.18-3.26-2.26-2.17-3.38-5.05-3.38-8.64 0-3.59 1.16-6.49 3.47-8.69a12 12 0 018.6-3.3c1.77 0 3.32.2 4.66.64 1.33.44 2.66 1.22 3.98 2.35l3.04-4.35c-3.21-2.83-7.25-4.25-12.12-4.25-4.86 0-9 1.67-12.43 5.02-3.43 3.35-5.14 7.53-5.14 12.56 0 5.02 1.68 9.17 5.04 12.45 3.37 3.29 7.54 4.93 12.53 4.93 5.93 0 10.48-1.76 13.67-5.27V49.2h-5.7v9.27zM343.3 51.23h16.17v-5.07H343.3v-8.93h18v-5.36h-23.7v33.75h24.29v-5.36H343.3z"/>
</svg>
