<svg xmlns="http://www.w3.org/2000/svg" viewBox="0 0 490 490" fill="#fdcc13">
  <path d="M396.83 111.7H293.87v159.7L157.37 71.87h-.01a45.29 45.29 0 00-37.51-19.92 45.35 45.35 0 00-45.3 45.3v84.48h10c13.95 0 25.3 11.35 25.3 25.3s-11.35 25.3-25.3 25.3-25.3-11.35-25.3-25.3h-20c0 24.98 20.32 45.3 45.3 45.3s45.3-20.32 45.3-45.3a45.38 45.38 0 00-35.3-44.19v-28.03a45.18 45.18 0 0058.52-6.8l42.75 158.85L0 286.85v95.72h35.51c0 30.6 24.89 55.48 55.48 55.48s55.49-24.89 55.49-55.48h189.98a55.54 55.54 0 0055.47 55.48 55.55 55.55 0 0055.5-55.48H490V224.14L396.83 111.7zm-276.98 10.85a25.33 25.33 0 01-25.3-25.3 25.33 25.33 0 0125.3-25.3 25.33 25.33 0 0125.3 25.3 25.33 25.33 0 01-25.3 25.3zm55.38 10.85l104.98 153.46h-63.68l-41.3-153.46zM91 417.2a34.67 34.67 0 01-34.63-34.63A34.67 34.67 0 0191 347.94a34.67 34.67 0 0134.64 34.63 34.67 34.67 0 01-34.64 34.63zm51.4-55.48c-8.26-20.29-28.18-34.63-51.4-34.63s-43.14 14.34-51.4 34.63H20v-54.87l273.87.01v54.86H142.4zm249.55 55.48a34.67 34.67 0 01-34.63-34.63 34.67 34.67 0 0134.63-34.63 34.67 34.67 0 0134.63 34.63 34.67 34.67 0 01-34.63 34.63zm77.2-55.48h-25.8a55.56 55.56 0 00-51.4-34.63 55.55 55.55 0 00-51.4 34.63h-25.82V132.55h72.32l82.1 99.1v130.07z"/>
  <path d="M333.6 158.25v74.8h108.27l-60.07-74.8h-48.2zm20.85 53.95v-33.1h17.36l26.57 33.1h-43.93z"/>
</svg>
