<svg xmlns="http://www.w3.org/2000/svg" fill="none" viewBox="0 0 1001 496">
  <path stroke="#fff" stroke-linecap="round" stroke-linejoin="round" stroke-width="2" d="M1008.08 163.45l-564.9-520.3V-747.2L28.11-770c-3.2 7.54-23.74 29.29-20.54 41.4 3.86 14.5 23.27 9.87 28.9 19.2 6.6 10.98-4.74 55.65-8.12 68.54-6.47 24.41-21.25 44.2-25.53 68.61-7.18 40.99 7.36 37.72 34.9 63.32 46.42 43.19 9.2 87.98 20.9 138.7 9.5 41.35 50.99 62.68 66.18 104.02 11.75 31.84 27.9 39.98 52.95 63.26-.6-14.13-13.24-55.84 10.5-52.15 23.57 3.62 14.49 38.43 19 52.98 3.8 12.12 30.68 36.36 8.37 47.53-7.42 3.68-28.55-11-37.04-14.91 6 18.7 2.2 38.13 11.7 56.01 11.33 21.33 23.56 13.13 38.57 24.71 15.5 11.94 13.83 25.67 6.95 43.72-7.19 18.84-14.6 15.92-3.2 38.62 8.24 16.4 22.25 37.18 34.3 49.66 7 7.24 14.6 8.9 21.6 18.17 5.82 7.73 3.57 17.82 10.51 24.77 11.87 11.94 32 12.12 41.37 27.74 10.45 17.4-1.42 30.54 29.33 28.93 1.6 34.81 8.19 66.35 7.83 101.16 17.15 6.83 44.87-1.3 62.86-4.93 17.87 24.12 40.96 7.37 61.37 20.5 8.9 5.7 7.07 19.96 12.47 24.95 11.1 10.21 19.29 3.8 33.06 7.36 10.21 2.62 18.1 10.1 27.84 12.83 9.2 2.56 24.34-3.44 31.16 4.7 8.2 9.74-5.52 27.56 6.83 35.4 10.26 6.53 24.99-9.03 34.96-6.77 11.63 2.67 44.99 33.14 53.18 43.18 9.32 11.47 18.7 32.85 23.98 47.58 8.25 23.05 7.12 34.34 24.16 51.2 10.86 10.76.53 11.53 18.22 14.68 11.57 2.08 26.89-6.3 38.58-7.6 24.34-2.68 48.91 1.96 72.9-2.62 22.31-4.27 43.62-11.28 66.53-14.55 19.83-2.85 54.73-.65 72.3-10.1 19.05-10.16 20.77-33.15-6.77-28.87-2.2-14.67 7.6-34.93-3.32-45.08 15.19-20.8 20.71-35.47 23.08-60.9 1.07-11.16 1.55-23.51 7.07-32.9 5.4-9.27 20.59-14.8 23.56-22.75 4.57-12.36-2.73-17.88-8.31-24.77-3.56-4.46-13.71-2.32-16.62-6.24-5.4-7.19-.06-14.61-3.03-21.86-8.66-20.97-18.99-29.22-25.52-52.99.18 3.98.36 8.02.12 11.94" opacity=".3"/>
  <path stroke="#fff" stroke-width="2" d="M729.55 82.82c-26.88 19.64-3.6 44.78 9.56 74.75 3.9 8.88-.18 17.69-10.13 18.84-21.4 2.47-70.41-45.83-74.82-29.29-4.55 17.09 32.74 65.34 34.15 68 12.37 23.39.89 58.81-19.54 70.35-14.54 8.21-62.56-24.07-76.09-37.05-88.6-85-43.66-55.69-155.5-129.1-8.55-5.62-17.72-11.17-27.44-13.86-10.03-2.78-14.65 6.18-14.35 12.59 1.03 21.23 30.04 72.47 6.66 86.6-7.17 4.34-17.91 3.62-25.25 7.77-5.74 3.25-8.65 9.24-12.97 13.87"/>
  <path stroke="#fff" stroke-width="2" d="M729.11 83.94c-8.56 23.38 11.5 31.59 27.56 46.87 4.76 4.53 5.22 12 .2 16.53-10.76 9.73-51.6-4.42-49.02 8.4 2.68 13.25 37.21 31.8 38.77 33.06 13.66 11.13 18.12 39.37 10.59 54.86-5.36 11.02-40.87 7.3-52.04 3.63-73.15-24.02-40.18-21.16-122.35-28.62-6.3-.57-12.89-.86-18.93.98-6.22 1.9-6.02 9.69-3.93 13.9 6.92 13.96 37.89 37.63 29.55 55.97-2.55 5.63-8.55 9.19-11.25 14.75-2.1 4.36-1.88 9.5-2.81 14.25"/>
  <path stroke="#fff" stroke-width="2" d="M732.25 85c-3.99 27.41 5.34 37.03 12.81 54.94 2.21 5.31 2.42 14.08.1 19.39-5.01 11.4-24-5.2-22.8 9.85 1.25 15.53 17.3 37.26 18.02 38.75 6.36 13.05 8.43 46.16 4.93 64.3-2.5 12.92-19 8.57-24.2 4.27-34-28.17-18.67-24.81-56.87-33.56-2.93-.67-6-1-8.8 1.15-2.9 2.23-2.8 11.36-1.83 16.3 3.22 16.36 17.62 44.1 13.74 65.61-1.19 6.6-3.97 10.77-5.23 17.3-.98 5.1-.87 11.13-1.31 16.7"/>
  <path stroke="#fff" stroke-width="2" d="M730.9 85c-.3 38.08.4 51.44.96 76.32.16 7.38.18 19.56 0 26.93-.37 15.84-1.78-7.21-1.7 13.68.1 21.57 1.3 51.76 1.35 53.83.47 18.12.63 64.12.36 89.33-.18 17.94-1.41 11.9-1.8 5.92-2.53-39.13-1.39-34.46-4.23-46.61-.22-.93-.45-1.4-.66 1.6-.21 3.09-.2 15.77-.13 22.63.24 22.73 1.3 61.27 1.02 91.15-.09 9.16-.3 14.95-.4 24.01-.06 7.1-.06 15.47-.09 23.21"/>
  <path fill="#4AF6CD" fill-rule="evenodd" d="M573.5 326a6.5 6.5 0 100-13 6.5 6.5 0 000 13zM661 363a3 3 0 100-6 3 3 0 000 6zM725 471a3 3 0 100-6 3 3 0 000 6zM365 228a3 3 0 100-6 3 3 0 000 6zM729.5 91a6.5 6.5 0 100-13 6.5 6.5 0 000 13z" clip-rule="evenodd"/>
  <path fill="#fff" d="M398.41 310.98L396.17 322h-1.95l-2.03-9.23-2.05 9.23h-1.9l-2.25-11.02h1.5l1.77 9.7 2.13-9.7H393l2.18 9.7 1.84-9.7h1.39zm8.13 6.56c0 .24 0 .5-.03.75h-5.37c.06.93.3 1.6.7 2.05.4.43.93.65 1.57.65.4 0 .78-.06 1.12-.17.34-.12.7-.3 1.07-.56l.64.88c-.9.7-1.88 1.05-2.94 1.05a3.44 3.44 0 01-2.76-1.15 4.75 4.75 0 01-.97-3.17c0-.87.14-1.65.41-2.32.3-.68.7-1.21 1.22-1.6a3.12 3.12 0 011.87-.57c1.12 0 1.98.36 2.58 1.1.6.74.9 1.75.9 3.06zm-1.45-.44c0-.83-.17-1.46-.5-1.9-.33-.44-.82-.66-1.49-.66-1.2 0-1.86.89-1.96 2.66h3.95v-.1zm6.1-3.72c.57 0 1.09.08 1.55.24.45.16.9.4 1.3.72l-.62.92a5.02 5.02 0 00-1.1-.54c-.34-.12-.7-.18-1.09-.18-.48 0-.86.1-1.13.3a.92.92 0 00-.42.8c0 .35.13.62.38.8.27.2.74.39 1.43.57a5 5 0 012.1.96c.46.4.7.96.7 1.66 0 .83-.33 1.47-.98 1.9-.64.44-1.42.66-2.35.66a4.67 4.67 0 01-3.19-1.1l.79-.9c.71.55 1.5.82 2.37.82.55 0 .99-.11 1.3-.34.34-.23.5-.55.5-.94 0-.29-.05-.52-.17-.69a1.35 1.35 0 00-.6-.46 7.6 7.6 0 00-1.27-.44 4.38 4.38 0 01-1.95-.94c-.4-.4-.6-.9-.6-1.5 0-.44.13-.84.39-1.19.26-.36.63-.64 1.09-.83.46-.2.99-.3 1.56-.3zm9.43 8.24c-.56.38-1.18.57-1.89.57s-1.27-.2-1.68-.6c-.4-.42-.59-1.02-.59-1.8v-5.09h-1.47v-1.13h1.47v-1.9l1.47-.18v2.08h2l-.16 1.13h-1.84v5.03c0 .44.08.75.23.96.16.19.42.29.78.29.33 0 .7-.12 1.12-.34l.56.98zm8.56-10.84a5 5 0 011.89.32c.52.2 1.03.53 1.52.96l-.83.93a4.48 4.48 0 00-1.24-.72c-.4-.16-.82-.24-1.28-.24-.57 0-1.05.14-1.42.4-.37.27-.56.66-.56 1.17 0 .32.06.6.2.82.12.2.35.4.7.59.35.18.85.37 1.51.57.7.22 1.27.45 1.73.7a2.9 2.9 0 011.54 2.65 3.04 3.04 0 01-1.84 2.85c-.59.27-1.29.41-2.1.41a5.13 5.13 0 01-3.74-1.42l.83-.93a4.16 4.16 0 002.9 1.1c.68 0 1.25-.16 1.7-.5.44-.33.67-.82.67-1.46 0-.37-.07-.67-.21-.9a1.81 1.81 0 00-.72-.66c-.33-.19-.82-.38-1.46-.57a6.44 6.44 0 01-2.48-1.23 2.52 2.52 0 01-.78-1.96c0-.55.14-1.05.43-1.48a3 3 0 011.23-1.03 4.29 4.29 0 011.8-.37zm9.89 2.6c.76 0 1.36.23 1.79.68.44.46.65 1.1.65 1.9V322h-1.47v-5.84c0-.6-.12-1.02-.35-1.26-.22-.25-.56-.37-1-.37-.43 0-.82.13-1.16.38-.34.26-.66.62-.96 1.09v6h-1.47v-11.8l1.47-.17v4.7c.66-.9 1.5-1.35 2.5-1.35zm8.57 0c1.19 0 2.1.4 2.75 1.18.66.79 1 1.86 1 3.22 0 .87-.15 1.64-.45 2.32-.3.66-.73 1.17-1.3 1.55-.56.36-1.24.54-2.01.54-1.19 0-2.11-.4-2.77-1.18-.66-.8-1-1.86-1-3.22 0-.87.15-1.64.45-2.3a3.46 3.46 0 013.33-2.11zm0 1.18c-1.46 0-2.2 1.08-2.2 3.23s.73 3.22 2.19 3.22c1.45 0 2.17-1.08 2.17-3.23s-.72-3.22-2.16-3.22zm9.84-1.18c.3 0 .58.03.83.1l-.27 1.43c-.25-.06-.5-.1-.74-.1-.52 0-.94.2-1.26.58-.32.39-.57.98-.75 1.8V322h-1.47v-8.43h1.26l.15 1.71c.22-.63.52-1.1.9-1.42.4-.32.84-.48 1.35-.48zm8.4 4.16c0 .24-.02.5-.04.75h-5.38c.07.93.3 1.6.7 2.05.41.43.94.65 1.58.65.4 0 .77-.06 1.12-.17.34-.12.7-.3 1.07-.56l.64.88c-.9.7-1.88 1.05-2.95 1.05a3.44 3.44 0 01-2.75-1.15 4.75 4.75 0 01-.97-3.17c0-.87.14-1.65.41-2.32.29-.68.7-1.21 1.22-1.6a3.12 3.12 0 011.87-.57c1.12 0 1.98.36 2.58 1.1.6.74.9 1.75.9 3.06zm-1.46-.44c0-.83-.17-1.46-.5-1.9-.33-.44-.83-.66-1.49-.66-1.2 0-1.86.89-1.97 2.66h3.96v-.1zm9.99-7.92v14.39h-.35v-14.39h.35zM493.24 322h-1.48l-.38-4.98a79.63 79.63 0 01-.27-4.5l-2.38 8.23h-1.43l-2.51-8.24c0 1.34-.07 2.88-.2 4.63l-.38 4.86h-1.44l.92-11.02h2.04l2.32 8.01 2.21-8.01h2.06l.92 11.02zm8.2-1.97c0 .34.05.6.17.77.12.16.3.28.53.37l-.34 1.02a2.25 2.25 0 01-1.05-.37c-.27-.19-.47-.49-.6-.9a2.83 2.83 0 01-2.5 1.27 2.7 2.7 0 01-1.98-.7 2.46 2.46 0 01-.72-1.84c0-.9.32-1.59.96-2.07a4.57 4.57 0 012.76-.72h1.3v-.62c0-.6-.15-1.02-.44-1.28-.29-.26-.73-.38-1.33-.38-.62 0-1.37.15-2.27.44l-.37-1.07a8.49 8.49 0 012.91-.57c1 0 1.74.24 2.23.73.49.48.73 1.17.73 2.07v3.85zm-3.46 1.06c.84 0 1.5-.44 1.98-1.31v-1.94h-1.1c-1.56 0-2.34.58-2.34 1.73 0 .5.13.88.37 1.13.25.26.6.39 1.09.39zm8 1.1c-.54 0-.98-.16-1.3-.48-.3-.33-.46-.79-.46-1.37v-10.16l1.47-.18v10.3c0 .24.04.4.12.52.08.1.22.16.41.16.2 0 .38-.04.54-.1l.39 1.02c-.35.2-.74.3-1.17.3zm4.48-8.62V322H509v-8.43h1.47zm-.75-4.05c.3 0 .56.1.75.29.2.19.29.43.29.72s-.1.53-.29.72c-.2.18-.44.27-.75.27-.3 0-.54-.1-.74-.27a.98.98 0 01-.29-.72c0-.29.1-.53.3-.72a1 1 0 01.73-.29zm7.65 3.86c.96 0 1.72.38 2.29 1.16.56.77.85 1.85.85 3.24 0 .87-.14 1.64-.4 2.32a3.51 3.51 0 01-1.16 1.55c-.5.36-1.08.54-1.76.54-.88 0-1.63-.37-2.24-1.12l-.14.93h-1.3v-11.82l1.48-.18v4.62c.6-.83 1.4-1.24 2.38-1.24zm-.53 7.64c.65 0 1.16-.26 1.52-.78.38-.53.56-1.36.56-2.46 0-1.14-.17-1.97-.51-2.47a1.65 1.65 0 00-1.46-.77c-.74 0-1.4.44-1.96 1.32v4.03c.22.35.5.63.81.83.33.2.68.3 1.04.3zm12.45.98H528l-.11-1.31c-.32.52-.69.9-1.1 1.15-.42.24-.93.35-1.52.35-.74 0-1.32-.22-1.73-.67a2.7 2.7 0 01-.63-1.9v-6.05h1.48v5.89c0 .57.1.98.3 1.23.2.23.53.35 1 .35.81 0 1.52-.49 2.1-1.46v-6.01h1.48V322zm3.42-2.03a1.09 1.09 0 011.12 1.1c0 .33-.1.71-.29 1.14l-1.07 2.45h-1.06l.64-2.66c-.13-.1-.25-.24-.33-.4a1.23 1.23 0 01-.11-.53c0-.3.1-.57.32-.78.21-.22.47-.32.78-.32zm11.63-9.19c.66 0 1.22.09 1.66.26.46.17.93.45 1.4.83l-.84.98a3.33 3.33 0 00-2.12-.82c-.92 0-1.66.35-2.23 1.06-.55.7-.83 1.83-.83 3.39 0 1.51.28 2.63.83 3.36.56.72 1.3 1.07 2.21 1.07.47 0 .88-.08 1.23-.24.36-.16.73-.38 1.12-.67l.75.96a4.1 4.1 0 01-1.3.88c-.54.24-1.15.35-1.85.35-.9 0-1.7-.22-2.4-.65a4.5 4.5 0 01-1.63-1.96 7.6 7.6 0 01-.58-3.1c0-1.2.2-2.24.61-3.09a4.26 4.26 0 013.97-2.6zM555.3 322l-.83-2.77h-4.18l-.83 2.77h-1.54l3.54-11.02h1.92L556.9 322h-1.6zm-4.64-4h3.44l-1.71-5.76-1.73 5.76zM598.38 75.78c.66 0 1.21.09 1.66.26.46.17.93.45 1.4.83l-.84.98a3.33 3.33 0 00-2.13-.82c-.91 0-1.65.35-2.22 1.06-.55.7-.83 1.83-.83 3.39 0 1.51.28 2.63.83 3.36.55.71 1.3 1.07 2.2 1.07.48 0 .89-.08 1.24-.24.35-.16.72-.38 1.12-.67l.75.96a4.1 4.1 0 01-1.31.88c-.53.23-1.15.35-1.84.35-.9 0-1.7-.22-2.4-.65a4.5 4.5 0 01-1.63-1.96 7.6 7.6 0 01-.58-3.1c0-1.2.2-2.23.61-3.09a4.26 4.26 0 013.97-2.6zM609.4 87h-1.26l-.12-1.31c-.31.52-.68.9-1.1 1.15-.41.23-.92.35-1.52.35-.74 0-1.31-.22-1.73-.67a2.7 2.7 0 01-.62-1.9v-6.05h1.47v5.89c0 .57.1.98.3 1.23.2.23.54.35 1 .35.82 0 1.52-.49 2.1-1.46v-6.01h1.48V87zm6.7-8.62c.3 0 .58.03.84.1l-.27 1.43c-.26-.06-.5-.1-.74-.1-.52 0-.94.2-1.26.58-.32.39-.57.98-.76 1.8V87h-1.47v-8.43h1.27l.14 1.71c.22-.63.53-1.1.91-1.42.39-.32.83-.48 1.35-.48zm6.18 0c.3 0 .57.03.83.1l-.27 1.43c-.26-.06-.5-.1-.74-.1-.52 0-.94.2-1.26.58-.32.39-.57.98-.75 1.8V87h-1.48v-8.43h1.27l.14 1.71c.23-.63.53-1.1.91-1.42.39-.32.84-.48 1.35-.48zm8.39 4.16l-.03.75h-5.38c.07.93.3 1.6.7 2.05.41.43.93.65 1.57.65.4 0 .78-.06 1.12-.17.35-.12.7-.3 1.08-.56l.63.88c-.9.7-1.87 1.05-2.94 1.05a3.44 3.44 0 01-2.75-1.15 4.75 4.75 0 01-.98-3.17c0-.87.14-1.65.42-2.32.29-.68.7-1.21 1.22-1.6a3.12 3.12 0 011.87-.57c1.12 0 1.98.36 2.57 1.1.6.74.9 1.75.9 3.06zm-1.46-.44c0-.83-.16-1.46-.5-1.9-.32-.44-.82-.66-1.48-.66-1.2 0-1.86.89-1.97 2.66h3.95v-.1zm7.78-3.72c.77 0 1.36.23 1.79.68.44.46.66 1.1.66 1.9V87h-1.48v-5.84c0-.6-.1-1.02-.33-1.26-.23-.25-.56-.37-1-.37-.44 0-.84.13-1.18.38a4 4 0 00-.96 1.1V87h-1.47v-8.43h1.26l.13 1.25c.3-.45.67-.8 1.1-1.06.45-.26.95-.38 1.48-.38zm9.66 8.24c-.55.38-1.18.57-1.89.57s-1.27-.2-1.68-.6c-.4-.42-.59-1.02-.59-1.8V79.7h-1.47v-1.13h1.47v-1.9l1.47-.18v2.08h2l-.16 1.13h-1.84v5.03c0 .44.08.76.23.96.16.19.42.29.78.29.33 0 .7-.12 1.12-.34l.56.98zm7.36-10.64v9.7h4.53l-.18 1.32h-5.87V75.98h1.52zm9.13 2.4c1.19 0 2.1.4 2.75 1.18.66.79 1 1.86 1 3.22 0 .87-.15 1.64-.45 2.32-.3.66-.73 1.17-1.3 1.55-.56.36-1.24.54-2.01.54-1.19 0-2.11-.4-2.77-1.18-.66-.8-1-1.86-1-3.22 0-.87.15-1.64.45-2.3a3.46 3.46 0 013.33-2.11zm0 1.18c-1.46 0-2.2 1.08-2.2 3.23s.73 3.22 2.18 3.22c1.46 0 2.18-1.08 2.18-3.23s-.72-3.22-2.16-3.22zm9.25-1.18a4.05 4.05 0 012.58.9l-.7.94c-.3-.22-.6-.37-.89-.47-.28-.1-.59-.16-.93-.16-.68 0-1.21.27-1.6.82a4.28 4.28 0 00-.56 2.41c0 1.07.19 1.86.56 2.37.38.5.91.75 1.6.75.33 0 .64-.04.91-.14.28-.1.6-.27.93-.5l.68.96a4 4 0 01-2.58.93 3.38 3.38 0 01-2.7-1.15 4.77 4.77 0 01-.98-3.18c0-.9.15-1.68.45-2.36.3-.67.72-1.2 1.26-1.56a3.44 3.44 0 011.97-.56zm10.1 6.65c0 .34.05.6.17.77.12.16.3.28.52.37l-.33 1.02a2.25 2.25 0 01-1.06-.37c-.26-.19-.46-.49-.59-.9a2.83 2.83 0 01-2.51 1.27 2.7 2.7 0 01-1.97-.7 2.46 2.46 0 01-.72-1.84c0-.9.32-1.59.96-2.07a4.57 4.57 0 012.75-.72h1.3v-.62c0-.6-.14-1.02-.43-1.28-.3-.26-.73-.38-1.33-.38-.62 0-1.38.15-2.27.44l-.37-1.07a8.49 8.49 0 012.91-.57c1 0 1.74.24 2.23.73.49.48.73 1.17.73 2.07v3.85zm-3.47 1.06c.85 0 1.5-.44 1.99-1.31v-1.94h-1.1c-1.56 0-2.34.58-2.34 1.73 0 .5.12.88.37 1.13.24.26.6.39 1.08.39zm10.74.53c-.55.38-1.18.57-1.89.57s-1.27-.2-1.68-.6c-.4-.42-.59-1.02-.59-1.8V79.7h-1.47v-1.13h1.47v-1.9l1.47-.18v2.08h2l-.16 1.13h-1.84v5.03c0 .44.08.76.23.96.16.19.42.29.78.29.33 0 .7-.12 1.12-.34l.56.98zm3-8.05V87h-1.47v-8.43h1.47zm-.75-4.05c.3 0 .56.1.75.29.19.19.29.43.29.72s-.1.53-.3.72c-.18.18-.43.27-.74.27-.3 0-.55-.1-.74-.27a.98.98 0 01-.29-.72 1 1 0 011.02-1zm6.96 3.86c1.18 0 2.1.4 2.75 1.18.66.79 1 1.86 1 3.22 0 .87-.16 1.64-.46 2.32-.3.66-.73 1.17-1.3 1.55-.56.36-1.23.54-2 .54-1.2 0-2.11-.4-2.78-1.18-.66-.8-.99-1.86-.99-3.22 0-.87.15-1.64.45-2.3a3.46 3.46 0 013.33-2.11zm0 1.18c-1.46 0-2.2 1.08-2.2 3.23s.73 3.22 2.18 3.22c1.45 0 2.18-1.08 2.18-3.23s-.72-3.22-2.16-3.22zm10.14-1.18c.77 0 1.37.23 1.8.68.43.46.65 1.1.65 1.9V87h-1.47v-5.84c0-.6-.11-1.02-.34-1.26-.22-.25-.55-.37-.99-.37-.45 0-.84.13-1.18.38a4 4 0 00-.96 1.1V87h-1.48v-8.43h1.27l.13 1.25c.3-.45.66-.8 1.1-1.06.45-.26.94-.38 1.47-.38z"/>
</svg>
